<svg xmlns="http://www.w3.org/2000/svg" version="1.1" xmlns:xlink="http://www.w3.org/1999/xlink" xmlns:svgjs="http://svgjs.com/svgjs" width="512" height="512" x="0" y="0" viewBox="0 0 512 512" style="enable-background:new 0 0 512 512" xml:space="preserve" class=""><g><circle cx="256" cy="256" r="256" fill="#cdcbc9" data-original="#436375" class=""></circle><path fill="#c9c9c9" d="M512 256c0-.984-.026-1.962-.037-2.944L330.719 71.812S240.26 70 220.63 104s-75.385 328.03-75.385 328.03l77.875 77.875A258.506 258.506 0 0 0 256 512c141.385 0 256-114.615 256-256z" data-original="#274a59" class=""></path><path fill="#ffffff" d="M357.72 220.22h-60.839v-78.618c0-23.732-19.307-43.039-43.039-43.039s-43.039 19.307-43.039 43.039v78.611h-60.839v-78.611c0-57.278 46.6-103.878 103.878-103.878s103.878 46.6 103.878 103.878z" data-original="#ffffff" class=""></path><path fill="#e9edf5" d="M357.72 141.6v78.62h-60.84V141.6c0-23.01-18.15-41.86-40.88-42.98V37.74c56.29 1.16 101.72 47.3 101.72 103.86z" data-original="#e9edf5" class=""></path><path fill="#afadac" d="M299.812 457.81h-87.624c-55.124 0-99.81-44.686-99.81-99.81V214.317h287.244V358c0 55.124-44.687 99.81-99.81 99.81z" data-original="#ffaa20" class=""></path><path fill="#979696" d="M399.62 214.32V358c0 55.12-44.68 99.81-99.81 99.81H256V214.32z" data-original="#ff8900" class=""></path><path fill="#9f9f9f" d="M291.37 310.915c0-19.534-15.836-35.37-35.37-35.37s-35.37 15.836-35.37 35.37c0 10.634 4.7 20.165 12.128 26.649l-9.258 59.018h65l-9.258-59.018c7.428-6.484 12.128-16.015 12.128-26.649z" data-original="#9e653e" class=""></path><path fill="#6f7273" d="m279.24 337.56 9.26 59.02H256V275.55c19.53 0 35.37 15.83 35.37 35.37 0 10.63-4.7 20.16-12.13 26.64z" data-original="#835637" class=""></path></g></svg>