<svg id="Capa_1" enable-background="new 0 0 512 512" height="512" viewBox="0 0 512 512" width="512" xmlns="http://www.w3.org/2000/svg"><g><g id="_x32_5-anniversary_2_"><g><path d="m301 149.35c-24.814 0-45 20.186-45 45v60c0 24.814 20.186 45 45 45s45-20.186 45-45v-60c0-24.814-20.186-45-45-45zm15 105c0 8.276-6.738 15-15 15s-15-6.724-15-15v-60c0-8.276 6.738-15 15-15s15 6.724 15 15z" fill="#443d66"/><path d="m196 164.35c0 8.276-6.738 15-15 15h-15v30h15c5.284 0 10.283-1.082 15-2.763v92.763h30c0-13.688 0-153.081 0-150h-30z" fill="#66538c"/></g><g><path d="m403.598 52.449c-5.698-16.8-20.398-31.5-39.298-38.699h-.3c-4.501-1.8-9.298-3.3-14.099-4.799l-20.102-6.301-8.101 30.3c-4.497 20.099.901 38.699 11.104 53.399 18.896 7.5 35.698 18.301 50.098 31.8l12.898-17.399c10.803-14.401 13.502-32.1 7.8-48.301z" fill="#ff9f40"/></g><g><path d="m464.198 87.55c-4.497-5.7-8.998-11.4-13.799-16.5l-10.199-10.2-22.2 20.7c-13.802 14.099-20.402 33.9-18.9 54 11.997 14.7 21.599 31.8 27.598 49.801l18.303-7.202c16.201-6.299 28.198-19.799 32.098-37.2 4.201-17.999-.6-38.098-12.901-53.399z" fill="#ff9f40"/></g><g><path d="m505.001 167.65-30.901 6c-17.402 3.9-32.402 15.3-42.001 30.3 2.699 11.4 3.9 23.399 3.9 35.4 0 9.6-.901 19.2-2.703 28.2l11.104 2.1c3.896.899 7.8 1.199 11.697 1.199 11.704 0 23.401-4.2 33.003-12.599 15.3-12.9 22.8-33.001 20.999-54.901z" fill="#ff9f40"/></g><g><path d="m472.299 281.349c-14.7-5.099-29.099-4.499-41.997-.298-6.302 24.899-18.303 47.098-34.504 65.698 9.302 9.6 22.203 15 36.002 15 2.399 0 5.101-.298 7.8-.599 19.801-3.001 36.603-15.601 46.798-35.099 2.402-4.2 4.504-9.001 6.302-13.5l8.698-19.801z" fill="#ff9f40"/></g><g><path d="m190.302 32.349-8.101-29.7-20.101 6.301c-4.801 1.5-9.598 2.999-14.099 4.799h-.3c-18.9 7.2-33.6 21.899-38.998 38.401-6.002 16.5-3.303 34.199 7.5 48.6l12.898 17.399c14.399-13.499 31.201-24.3 50.098-31.8 10.202-14.7 15.6-33.6 11.103-54z" fill="#ffbe40"/></g><g><path d="m93.402 80.949-21.602-20.099-10.199 10.201c-4.801 5.099-9.302 10.8-13.799 16.5-12.301 15.3-17.102 35.4-12.902 53.699 3.9 17.1 15.897 30.601 32.098 36.899l18.303 7.202c6.299-18.301 15.601-35.402 27.898-50.402 1.202-19.799-5.698-39.598-19.797-54z" fill="#ffbe40"/></g><g><path d="m79.9 203.95c-9.598-15-24.899-26.4-42.601-30.601l-30.3-5.7-5.098 35.7c-1.802 21.899 5.698 42.001 20.999 54.901 9.902 8.399 21.599 12.9 33.003 12.9 3.596 0 7.2-.601 10.796-1.5l11.704-2.1c-1.501-9-2.402-18.6-2.402-28.2-.001-12.001 1.2-23.999 3.899-35.4z" fill="#ffbe40"/></g><g><path d="m81.698 281.349c-12.898-4.199-27.598-4.799-42.598.3l-28.499 11.1 8.699 19.801c1.798 4.499 3.9 9.3 6.302 13.5 10.195 19.5 26.997 32.099 46.798 35.1 2.699.3 5.402.599 8.101.599 13.499 0 26.1-5.099 35.101-14.399l.601-.601c-16.202-18.6-28.202-40.8-34.505-65.4z" fill="#ffbe40"/></g><g><path d="m271 389.145v-30h15c74.443-.029 135-60.498 135-134.795 0-63.955-45.41-119.59-107.988-132.29l-14.707-2.988 5.977-29.399 14.707 2.974c76.493 15.541 132.011 83.539 132.011 161.703 0 90.835-74.004 164.766-165 164.795z" fill="#ffbe40"/></g><g><path d="m241 389.145h-15c-90.996-.029-165-73.96-165-164.795 0-78.164 55.518-146.162 132.012-161.704l14.707-2.974 5.977 29.399-14.707 2.988c-62.579 12.701-107.989 68.336-107.989 132.291 0 74.297 60.557 134.766 135 134.795h15z" fill="#ffdf40"/></g><g><path d="m128.5 509.35h-128.5l40.02-60-40.02-60h148.568z" fill="#e64c2e"/></g><g><g><path d="m512 509.35h-128.5c-4.728-27.596.673 5.98-20.068-120h148.568l-40.02 60z" fill="#d92121"/></g></g></g><g><g><path d="m408.666 479.35h-305.332l20.01-120h265.312z" fill="#f73"/></g></g><path d="m256 479.35h152.666l-20.01-120h-132.656z" fill="#e64c2e"/></g></svg>