<?xml version="1.0" encoding="iso-8859-1"?>
<!-- Generator: Adobe Illustrator 19.0.0, SVG Export Plug-In . SVG Version: 6.00 Build 0)  -->
<svg version="1.1" id="Capa_1" xmlns="http://www.w3.org/2000/svg" xmlns:xlink="http://www.w3.org/1999/xlink" x="0px" y="0px"
	 viewBox="0 0 407.552 407.552" style="enable-background:new 0 0 407.552 407.552;" xml:space="preserve">
<g>
	<circle style="fill:#382B73;" cx="203.776" cy="203.776" r="203.776"/>
	<circle style="fill:#473080;" cx="203.776" cy="203.776" r="176.282"/>
	<g>
		<path style="fill:#382B73;" d="M210.125,334.336c0.102,0,0.256,0,0.358,0c0.87-0.051,1.741-0.102,2.611-0.205
			c0.205,0,0.41-0.051,0.563-0.051c0.973-0.102,1.894-0.205,2.816-0.307c0.205,0,0.358-0.051,0.563-0.051
			c0.87-0.102,1.741-0.205,2.56-0.358c0.154,0,0.256-0.051,0.41-0.051c0.922-0.154,1.894-0.307,2.816-0.461
			c0.205-0.051,0.41-0.051,0.614-0.102c0.922-0.154,1.843-0.358,2.765-0.563h0.051c0.922-0.205,1.843-0.41,2.816-0.666
			c0.205-0.051,0.358-0.102,0.563-0.154c0.922-0.256,1.843-0.461,2.765-0.717c0.051,0,0.154-0.051,0.205-0.051
			c0.87-0.256,1.69-0.512,2.56-0.768c0.154-0.051,0.307-0.102,0.512-0.154c0.87-0.307,1.792-0.563,2.662-0.922
			c0.102-0.051,0.256-0.102,0.358-0.154c0.819-0.307,1.638-0.614,2.458-0.922c0.102-0.051,0.205-0.102,0.307-0.154
			c0.87-0.358,1.741-0.717,2.56-1.075c0.154-0.051,0.307-0.102,0.41-0.205c0.87-0.358,1.69-0.768,2.509-1.178c0,0,0,0,0.051,0
			c0.87-0.41,1.69-0.819,2.509-1.28c0.154-0.051,0.256-0.154,0.41-0.205c1.638-0.87,3.277-1.843,4.864-2.816
			c0.102-0.051,0.256-0.154,0.358-0.205c0.768-0.512,1.587-1.024,2.355-1.536c0.051-0.051,0.102-0.102,0.205-0.154
			c0.717-0.512,1.485-1.024,2.202-1.536c0.051-0.051,0.154-0.102,0.205-0.154c0.768-0.563,1.485-1.126,2.202-1.69
			c0.102-0.051,0.154-0.154,0.256-0.205c0.717-0.614,1.434-1.178,2.15-1.792l0,0c0.717-0.614,1.382-1.28,2.099-1.894
			c0.102-0.102,0.154-0.154,0.256-0.256c1.382-1.28,2.662-2.662,3.942-4.096c0.051-0.102,0.154-0.154,0.205-0.256
			c0.614-0.717,1.229-1.434,1.843-2.202l0.051-0.051c0.614-0.717,1.178-1.485,1.741-2.253c0.051-0.051,0.102-0.102,0.154-0.205
			c0.563-0.768,1.126-1.536,1.638-2.355c0.051-0.051,0.102-0.154,0.154-0.205c0.512-0.819,1.075-1.587,1.587-2.458l0,0
			c0.512-0.819,0.973-1.69,1.485-2.56c0.051-0.102,0.102-0.205,0.154-0.307c0.922-1.69,1.792-3.482,2.611-5.325
			c0.051-0.102,0.102-0.205,0.154-0.307c4.147-9.523,6.502-20.531,6.502-32.922c0-32.922-21.504-56.115-50.79-66.253l25.088-32.512
			l10.906-14.182c0.256-0.358,0.512-0.717,0.717-1.075c0.051-0.102,0.102-0.205,0.154-0.256c0.205-0.358,0.41-0.717,0.614-1.024
			c0.051-0.102,0.102-0.154,0.154-0.256c0.154-0.256,0.307-0.563,0.41-0.819c0.051-0.102,0.102-0.205,0.154-0.358
			c0.154-0.307,0.307-0.666,0.41-0.973c0.051-0.154,0.102-0.256,0.154-0.41c0.102-0.256,0.154-0.512,0.256-0.768
			c0.051-0.102,0.051-0.256,0.102-0.358l0,0c0.102-0.358,0.154-0.717,0.256-1.075c0.051-0.154,0.051-0.307,0.051-0.461
			c0.051-0.256,0.102-0.563,0.102-0.819c0-0.154,0.051-0.256,0.051-0.41c0.051-0.41,0.051-0.87,0.051-1.28l0,0v-29.594l0,0
			c0-0.307,0-0.614-0.051-0.922c0-0.154-0.051-0.256-0.051-0.41c0-0.154-0.051-0.307-0.051-0.461
			c-0.051-0.154-0.051-0.358-0.102-0.512c0-0.102-0.051-0.205-0.051-0.307c-0.051-0.205-0.102-0.358-0.154-0.563
			c0-0.051-0.051-0.154-0.051-0.205c-0.051-0.205-0.154-0.41-0.205-0.563c0-0.051-0.051-0.102-0.051-0.102
			c-0.102-0.205-0.205-0.41-0.307-0.614c0,0,0-0.051-0.051-0.051c-0.102-0.205-0.256-0.41-0.358-0.563l0,0
			c-0.154-0.205-0.256-0.358-0.41-0.563l0,0l0,0c-1.434-1.638-3.635-2.509-6.502-2.509H135.373c-1.792,0-3.328,0.358-4.608,1.024
			l0,0l0,0c-0.922,0.461-1.69,1.126-2.253,1.946l-0.051,0.051c-0.154,0.256-0.307,0.512-0.461,0.768
			c0,0.051-0.051,0.051-0.051,0.102c-0.307,0.563-0.512,1.229-0.666,1.946c0,0.102-0.051,0.154-0.051,0.256
			c-0.051,0.256-0.102,0.563-0.154,0.819c0,0.102-0.051,0.205-0.051,0.307c-0.051,0.358-0.051,0.768-0.051,1.178l0,0v33.587
			c0,0.41,0,0.768,0.051,1.178c0,0.102,0,0.205,0.051,0.307c0.051,0.256,0.051,0.563,0.102,0.819c0,0.102,0.051,0.205,0.051,0.256
			c0.154,0.717,0.41,1.331,0.666,1.946c0,0.051,0.051,0.051,0.051,0.102c0.102,0.205,0.256,0.41,0.358,0.614
			c0.051,0.051,0.051,0.102,0.102,0.154l0.051,0.051c0.563,0.819,1.331,1.434,2.253,1.946l0,0l0,0
			c0.461,0.256,0.922,0.41,1.434,0.614c0.051,0,0.102,0.051,0.205,0.051c0.154,0.051,0.307,0.102,0.461,0.102
			c0.154,0.051,0.307,0.051,0.461,0.102c0.154,0,0.256,0.051,0.41,0.051c0.205,0.051,0.358,0.051,0.563,0.051
			c0.102,0,0.154,0,0.256,0c0.256,0,0.563,0.051,0.87,0.051l0,0h77.978l-2.714,3.533l0,0l-27.853,36.352l-3.379,4.403l0,0
			c-0.256,0.358-0.512,0.717-0.717,1.126c-0.102,0.154-0.154,0.256-0.256,0.41c-0.154,0.256-0.307,0.461-0.41,0.717
			c-0.102,0.154-0.154,0.307-0.256,0.461c-0.102,0.205-0.205,0.41-0.358,0.666c-0.102,0.205-0.205,0.461-0.307,0.666
			c-0.102,0.256-0.205,0.512-0.307,0.768c-0.051,0.154-0.102,0.307-0.154,0.512c0,0.051-0.051,0.154-0.051,0.205
			c-0.051,0.154-0.102,0.256-0.154,0.41c0,0.051-0.051,0.102-0.051,0.102c-0.051,0.154-0.102,0.358-0.154,0.512
			c0,0.051-0.051,0.102-0.051,0.205c0,0,0,0,0,0.051c-0.051,0.205-0.102,0.461-0.154,0.666c0,0.102-0.051,0.256-0.051,0.358
			c-0.051,0.358-0.102,0.717-0.154,1.126c0,0.051,0,0.102,0,0.154c-0.051,0.461-0.051,0.87-0.051,1.331v21.504
			c0,0.358,0,0.717,0.051,1.075c0,0.102,0,0.205,0.051,0.307c0.051,0.256,0.051,0.512,0.102,0.717c0,0.102,0.051,0.205,0.051,0.307
			c0.051,0.256,0.102,0.461,0.154,0.717c0,0.102,0.051,0.154,0.051,0.256c0.102,0.256,0.205,0.563,0.307,0.819v0.051
			c0.256,0.563,0.614,1.126,0.973,1.587c0,0,0,0,0,0.051c0.205,0.205,0.41,0.41,0.614,0.614l0.051,0.051
			c0.205,0.205,0.461,0.358,0.717,0.563l0,0l0,0c1.331,0.87,3.072,1.382,5.222,1.382h19.507c1.894,0,3.738,0.102,5.427,0.256
			c0.512,0.051,1.075,0.102,1.587,0.205c0.051,0,0.102,0,0.154,0c0.512,0.051,0.973,0.154,1.485,0.205c0.051,0,0.154,0,0.205,0.051
			c0.461,0.102,0.922,0.154,1.382,0.256c0.051,0,0.154,0.051,0.205,0.051c0.461,0.102,0.922,0.205,1.331,0.307
			c0.051,0,0.102,0.051,0.154,0.051c0.461,0.102,0.87,0.256,1.331,0.358c0.051,0,0.051,0,0.102,0.051
			c3.277,0.973,6.042,2.304,8.448,3.942c0.051,0.051,0.102,0.051,0.154,0.102c0.307,0.205,0.563,0.41,0.819,0.614
			c0.051,0.051,0.154,0.102,0.205,0.154c0.256,0.205,0.512,0.41,0.768,0.614c0.102,0.051,0.154,0.154,0.256,0.205
			c0.256,0.205,0.461,0.41,0.666,0.614c0.102,0.102,0.154,0.154,0.256,0.256c0.205,0.205,0.41,0.41,0.614,0.614
			c0.102,0.102,0.154,0.154,0.256,0.256c0.205,0.205,0.41,0.41,0.563,0.666c0.051,0.102,0.154,0.154,0.205,0.256
			c0.205,0.205,0.358,0.461,0.563,0.666c0.051,0.102,0.102,0.154,0.154,0.256c0.205,0.256,0.358,0.461,0.512,0.717
			c0,0.051,0.051,0.051,0.051,0.102c0.563,0.819,1.024,1.69,1.485,2.56c0.051,0.154,0.154,0.256,0.205,0.41
			c0.102,0.205,0.205,0.41,0.256,0.614c0.051,0.154,0.154,0.307,0.205,0.512c0.102,0.205,0.154,0.41,0.256,0.614
			c0.051,0.205,0.154,0.358,0.205,0.563c0.051,0.205,0.154,0.41,0.205,0.563c0.051,0.205,0.102,0.41,0.205,0.563
			c0.051,0.205,0.102,0.41,0.154,0.563c0.051,0.205,0.102,0.41,0.154,0.614c0.051,0.205,0.102,0.358,0.154,0.563
			c0.051,0.205,0.102,0.41,0.154,0.666c0.051,0.205,0.051,0.358,0.102,0.563c0.051,0.205,0.051,0.461,0.102,0.717
			c0.051,0.205,0.051,0.358,0.102,0.563c0.051,0.256,0.051,0.512,0.102,0.768c0,0.154,0.051,0.358,0.051,0.512
			c0,0.256,0.051,0.563,0.051,0.87c0,0.154,0,0.307,0,0.41c0,0.41,0.051,0.87,0.051,1.28c0,6.758-2.15,12.954-6.707,17.613
			c-0.307,0.307-0.614,0.614-0.922,0.922c-1.946,1.792-4.301,3.328-7.066,4.506c-0.922,0.41-1.894,0.768-2.867,1.126
			c-4.045,1.331-8.806,2.048-14.336,2.048c-0.768,0-1.485,0-2.253-0.051c-0.154,0-0.358,0-0.512,0
			c-0.717-0.051-1.434-0.051-2.15-0.154l0,0c-0.717-0.051-1.382-0.154-2.048-0.205c-0.154,0-0.307-0.051-0.461-0.051
			c-0.666-0.102-1.331-0.205-1.946-0.307l0,0c-0.614-0.102-1.229-0.256-1.843-0.41c-0.154-0.051-0.256-0.051-0.41-0.102
			c-1.229-0.307-2.355-0.614-3.482-1.024c-0.102-0.051-0.205-0.051-0.307-0.102c-0.563-0.205-1.075-0.41-1.587-0.614l0,0
			c-1.126-0.461-2.15-1.024-3.123-1.587c-0.666-0.41-1.28-0.819-1.894-1.229c-0.922-0.666-1.741-1.331-2.509-2.048
			c-0.768-0.717-1.485-1.485-2.15-2.304c-1.946-2.458-3.328-5.222-4.198-8.243c-0.102-0.358-0.205-0.666-0.307-1.024
			c-0.051-0.102-0.051-0.154-0.102-0.256c-0.102-0.256-0.154-0.461-0.256-0.717c-0.051-0.102-0.051-0.154-0.102-0.256
			c-0.102-0.205-0.205-0.461-0.256-0.666c-0.051-0.051-0.051-0.154-0.102-0.205c-0.102-0.256-0.256-0.461-0.358-0.666
			c0-0.051-0.051-0.051-0.051-0.102c-0.614-1.075-1.331-1.894-2.253-2.509l0,0l0,0c-1.28-0.87-2.918-1.382-4.966-1.382h-37.325
			c-3.738,0-6.451,1.434-7.68,4.25c-0.102,0.205-0.154,0.41-0.256,0.614c0,0.051-0.051,0.102-0.051,0.154
			c-0.051,0.256-0.154,0.461-0.205,0.717c0,0.051,0,0.102-0.051,0.154c-0.051,0.205-0.102,0.461-0.102,0.717
			c0,0.051,0,0.102,0,0.154c-0.051,0.256-0.051,0.563-0.051,0.87c0,0.051,0,0.154,0,0.205c0,0.307,0,0.614,0,0.922
			c0.666,6.963,2.099,13.363,4.198,19.302c0.154,0.461,0.307,0.87,0.512,1.331c0.717,1.894,1.485,3.738,2.355,5.581
			c0.256,0.563,0.563,1.126,0.819,1.69c2.406,4.762,5.325,9.114,8.602,13.107c0.41,0.461,0.768,0.922,1.178,1.382
			c0.614,0.666,1.229,1.331,1.843,1.997c0.614,0.666,1.28,1.331,1.946,1.946c0.666,0.666,1.331,1.28,2.048,1.894
			c1.331,1.178,2.662,2.304,4.045,3.379c3.635,2.816,7.475,5.325,11.622,7.475c0.563,0.307,1.075,0.563,1.638,0.87
			c13.21,6.605,28.621,9.984,44.595,9.984c0.973,0,1.997,0,2.97-0.051c0.205,0,0.461,0,0.666,0
			C208.23,334.438,209.203,334.387,210.125,334.336z"/>
		<g>
			<path style="fill:#FFE36C;" d="M289.331,244.582c0,51.763-40.346,78.643-85.709,78.643c-42.701,0-80.998-23.859-85.35-69.888
				c-0.358-5.734,3.021-8.755,8.397-8.755h37.325c5.018,0,7.373,2.714,8.755,7.731c3.021,10.752,12.749,18.483,30.925,18.483
				c22.17,0,31.949-11.776,31.949-26.214s-9.728-26.214-31.949-26.214h-19.507c-5.376,0-8.397-3.021-8.397-8.397v-21.504
				c0-4.045,1.331-7.066,3.686-10.445l33.946-44.39h-78.029c-5.376,0-8.397-3.021-8.397-8.397V91.648
				c0-5.376,3.021-8.397,8.397-8.397h134.451c5.376,0,8.397,3.021,8.397,8.397v29.594c0,4.045-1.331,7.066-3.686,10.445
				l-35.994,46.694C267.827,188.467,289.331,211.712,289.331,244.582z"/>
			<path style="fill:#E7AD27;" d="M230.195,205.722l-21.146,12.954c18.33,1.792,26.522,12.749,26.522,25.958
				c0,14.438-9.728,26.214-31.949,26.214c-6.861,0-12.493-1.075-16.998-3.021l1.434,5.683l-41.165-13.926l-27.904-10.803
				c-0.563,1.229-0.819,2.765-0.717,4.557c4.352,46.029,42.701,69.888,85.35,69.888c35.533,0,67.994-16.486,80.384-48.538l0,0
				C284.006,221.184,230.195,205.722,230.195,205.722z"/>
			<path style="fill:#FFC733;" d="M203.776,203.264v-17.459l56.883-78.848h-112.64l-17.254-22.682
				c-2.458,1.28-3.789,3.84-3.789,7.373v33.587c0,5.376,3.021,8.397,8.397,8.397h77.978l-33.946,44.39
				c-2.355,3.379-3.686,6.4-3.686,10.445v21.504c0,5.376,3.021,8.397,8.397,8.397h19.507c22.17,0,31.949,11.776,31.949,26.214
				s-9.728,26.214-31.949,26.214c-18.125,0-27.904-7.731-30.925-18.483c-0.768-2.97-1.946-5.12-3.738-6.349l-22.067,13.619
				c0,0-5.632,5.632,11.827,23.654c17.459,18.022,45.056,15.77,45.056,15.77s56.883,5.069,56.883-48.998
				S203.776,203.264,203.776,203.264z"/>
			<path style="fill:#FFC733;" d="M126.976,91.699v33.587c0,3.533,1.331,6.042,3.738,7.373l17.254-25.702l-17.254-22.682
				C128.307,85.606,126.976,88.115,126.976,91.699z"/>
			<path style="fill:#FFC733;" d="M277.709,125.338l-17.05-18.381l-56.883,78.848l34.765-7.424l35.994-46.694
				C276.019,129.536,277.094,127.539,277.709,125.338z"/>
			<path style="fill:#FEDE3A;" d="M277.709,125.338c0.358-1.28,0.512-2.611,0.512-4.096V91.648c0-2.509-0.666-4.506-1.894-5.888
				l-15.667,21.197L277.709,125.338z"/>
			<path style="fill:#E7AD27;" d="M135.373,133.683h77.978l47.309-26.726h-112.64l-17.254,25.702
				C131.994,133.325,133.53,133.683,135.373,133.683z"/>
			<path style="fill:#FFE36C;" d="M215.194,132.659l-4.557,4.608l-31.232,40.806c-1.792,2.56-3.021,4.966-3.482,7.731h27.853
				l56.883-78.848L215.194,132.659z"/>
			<path style="fill:#FEDE3A;" d="M175.718,188.467v21.504c0,3.277,1.126,5.632,3.174,7.014l24.883-13.722v-17.459l-26.931-3.123
				C176.128,184.474,175.718,186.317,175.718,188.467z"/>
		</g>
	</g>
	<path style="fill:#FFFFFF;" d="M179.098,106.803l3.43,11.059c1.075,3.482,3.789,6.144,7.219,7.219l11.059,3.43
		c0.922,0.307,0.922,1.638,0,1.894l-11.059,3.43c-3.482,1.075-6.144,3.789-7.219,7.219l-3.43,11.059
		c-0.307,0.922-1.638,0.922-1.894,0l-3.43-11.059c-1.075-3.482-3.789-6.144-7.219-7.219l-11.059-3.43
		c-0.922-0.307-0.922-1.638,0-1.894l11.059-3.43c3.482-1.075,6.144-3.789,7.219-7.219l3.43-11.059
		C177.51,105.83,178.842,105.83,179.098,106.803z"/>
	<path style="fill:#FFFFFF;" d="M247.04,276.48l3.43,11.059c1.075,3.482,3.789,6.144,7.219,7.219l11.059,3.43
		c0.922,0.307,0.922,1.638,0,1.894l-11.059,3.43c-3.482,1.075-6.144,3.789-7.219,7.219l-3.43,11.059
		c-0.307,0.922-1.638,0.922-1.894,0l-3.43-11.059c-1.075-3.482-3.789-6.144-7.219-7.219l-11.059-3.43
		c-0.922-0.307-0.922-1.638,0-1.894l11.059-3.43c3.482-1.075,6.144-3.789,7.219-7.219l3.43-11.059
		C245.453,275.558,246.784,275.558,247.04,276.48z"/>
</g>
<g>
</g>
<g>
</g>
<g>
</g>
<g>
</g>
<g>
</g>
<g>
</g>
<g>
</g>
<g>
</g>
<g>
</g>
<g>
</g>
<g>
</g>
<g>
</g>
<g>
</g>
<g>
</g>
<g>
</g>
</svg>
