<svg xmlns="http://www.w3.org/2000/svg" version="1.1" xmlns:xlink="http://www.w3.org/1999/xlink" xmlns:svgjs="http://svgjs.com/svgjs" width="512" height="512" x="0" y="0" viewBox="0 0 512 512" style="enable-background:new 0 0 512 512" xml:space="preserve" class=""><g><path fill="#38d9a9" d="m329.032 125.123-69.118-72.516a5.407 5.407 0 0 0-7.827 0l-69.118 72.516c-3.28 3.441-.841 9.136 3.913 9.136h28.04a5.406 5.406 0 0 1 5.406 5.406v165.416a5.406 5.406 0 0 0 5.406 5.406h60.531a5.406 5.406 0 0 0 5.406-5.406V139.666a5.406 5.406 0 0 1 5.406-5.406h28.04c4.756 0 7.195-5.695 3.915-9.137z" data-original="#9be69d" class=""></path><path fill="#20c997" d="M279.026 221.908A27.575 27.575 0 0 0 256 209.553a27.572 27.572 0 0 0-23.024 12.353l-12.647 19.052v64.125a5.406 5.406 0 0 0 5.406 5.406h60.531a5.406 5.406 0 0 0 5.406-5.406v-64.125z" data-original="#6fd7a3" class=""></path><path fill="#38d9a9" d="M164.627 214.012 110.953 157.7a4.198 4.198 0 0 0-6.078 0l-53.674 56.312c-2.547 2.672-.653 7.095 3.039 7.095h21.775a4.198 4.198 0 0 1 4.198 4.198v128.454a4.198 4.198 0 0 0 4.198 4.198h47.005a4.198 4.198 0 0 0 4.198-4.198V225.305a4.198 4.198 0 0 1 4.198-4.198h21.775c3.693 0 5.587-4.423 3.04-7.095z" data-original="#9be69d" class=""></path><path fill="#20c997" d="M80.213 298.717v55.041a4.199 4.199 0 0 0 4.198 4.199h47.005a4.198 4.198 0 0 0 4.198-4.199v-55.041z" data-original="#6fd7a3" class=""></path><path fill="#38d9a9" d="m347.373 214.012 53.674-56.312a4.198 4.198 0 0 1 6.078 0l53.674 56.312c2.547 2.672.653 7.095-3.039 7.095h-21.775a4.198 4.198 0 0 0-4.198 4.198v128.454a4.198 4.198 0 0 1-4.198 4.198h-47.005a4.198 4.198 0 0 1-4.198-4.198V225.305a4.198 4.198 0 0 0-4.198-4.198h-21.775c-3.693 0-5.587-4.423-3.04-7.095z" data-original="#9be69d" class=""></path><path fill="#20c997" d="M431.787 298.717v55.041a4.199 4.199 0 0 1-4.198 4.199h-47.005a4.198 4.198 0 0 1-4.198-4.199v-55.041z" data-original="#6fd7a3" class=""></path><path fill="#f06595" d="M137.113 439.385 9.014 460.992c-4.66.786-7.807-4.621-4.822-8.285l23.459-28.79a5.12 5.12 0 0 0 0-6.47L1.156 384.931c-2.48-3.044-.753-7.631 3.118-8.285l132.838-22.407v85.146z" data-original="#fd3581" class=""></path><path fill="#faa2c1" d="M223.047 390.899H63.793v-66.691a6.63 6.63 0 0 1 6.629-6.629h152.624v73.32z" data-original="#fe76a8" class=""></path><path fill="#f783ac" d="m176.505 365.892-1.058 25.007h47.6v-73.32h-74.581l20.906 26.355a33.088 33.088 0 0 1 7.133 21.958zM63.793 390.899l73.32 48.486v-48.486z" data-original="#fe5694" class=""></path><path fill="#f06595" d="m374.887 439.385 128.099 21.607c4.66.786 7.807-4.621 4.822-8.285l-23.459-28.79a5.12 5.12 0 0 1 0-6.47l26.495-32.517c2.48-3.044.753-7.631-3.118-8.285l-132.839-22.407z" data-original="#fd3581" class=""></path><path fill="#faa2c1" d="M288.953 390.899h159.253v-66.691a6.63 6.63 0 0 0-6.629-6.629H288.953z" data-original="#fe76a8" class=""></path><path fill="#f783ac" d="m335.495 365.892 1.058 25.007h-47.6v-73.32h74.581l-20.906 26.355a33.088 33.088 0 0 0-7.133 21.958zM448.207 390.899l-73.32 48.486v-48.486z" data-original="#fe5694" class=""></path><path fill="#ffe066" d="m280.226 399.856 15.673-28.149 1.038-39.281-18.17-44.646-21.112-40.493-20.688 2.71-16.139 24.311a8.771 8.771 0 0 1-4.954 3.599l-48.526 13.528c-6.045 1.685-8.418 8.987-4.518 13.904l31.307 39.467a8.771 8.771 0 0 1 1.892 5.823L193.9 400.96c-.265 6.27 5.946 10.783 11.827 8.593l47.21-17.578a8.777 8.777 0 0 1 6.123 0z" data-original="#ffe177" class=""></path><path fill="#ffd43b" d="m344.651 291.435-48.526-13.528a8.78 8.78 0 0 1-4.954-3.599l-27.861-41.971c-3.471-5.228-11.149-5.228-14.62 0l-11.723 17.66c16.405 18.645 52.977 70.12 43.259 149.86l26.045 9.698c5.881 2.19 12.093-2.323 11.828-8.593l-2.129-50.331a8.773 8.773 0 0 1 1.892-5.823l31.307-39.467c3.9-4.919 1.527-12.221-4.518-13.906z" data-original="#ffd15b" class=""></path></g></svg>