<svg xmlns="http://www.w3.org/2000/svg" version="1.1" xmlns:xlink="http://www.w3.org/1999/xlink" xmlns:svgjs="http://svgjs.com/svgjs" width="512" height="512" x="0" y="0" viewBox="0 0 495.787 495.787" style="enable-background:new 0 0 512 512" xml:space="preserve" class=""><g><path d="M247.893 0C110.986 0 0 110.986 0 247.893s110.986 247.893 247.893 247.893S495.786 384.8 495.786 247.893C495.669 111.034 384.752.118 247.893 0zm0 474.453v.213c-125.126 0-226.56-101.434-226.56-226.56s101.435-226.56 226.56-226.56c125.042 0 226.442 101.304 226.56 226.347-.117 125.077-101.483 226.443-226.56 226.56z" fill="#12b886" data-original="#000000" class=""></path><path d="M345.629 208.456a10.664 10.664 0 0 0-5.149-1.309v.64h-83.413l5.12-103.04c.438-5.875-3.969-10.992-9.843-11.431a10.669 10.669 0 0 0-9.997 5.244l-96.64 173.653c-2.828 5.168-.931 11.65 4.237 14.478a10.661 10.661 0 0 0 5.149 1.309h83.2l-4.907 103.04a10.667 10.667 0 0 0 7.68 10.667h2.987a10.668 10.668 0 0 0 9.387-5.547l96.427-173.227c2.827-5.168.93-11.65-4.238-14.477zM256.853 346.88l3.2-68.907c.236-5.886-4.345-10.849-10.231-11.085a10.52 10.52 0 0 0-.435-.009h-76.16l65.493-117.333-3.413 68.48c-.353 5.88 4.127 10.934 10.007 11.287.219.013.439.02.659.019h76.373L256.853 346.88z" fill="#12b886" data-original="#000000" class=""></path></g></svg>