<svg id="Capa_1" enable-background="new 0 0 512 512" height="512" viewBox="0 0 512 512" width="512" xmlns="http://www.w3.org/2000/svg"><g><circle cx="256" cy="256" fill="#fca0b2" r="256"/><path d="m510.929 232.646-142.786-142.786-97.39 97.39-59.68-59.68-56.455 56.455 94.117 94.117-105.482 105.483 127.915 127.915c134.322-7.851 240.832-119.249 240.832-255.54 0-7.875-.375-15.66-1.071-23.354z" fill="#fb7a94"/><path d="m240.725 170.545c-6.672-14.713-18.264-33.931-38.186-50.833-22.569-19.148-45.762-26.785-58.682-30.005-7.828 10.771-20.686 31.53-25.666 60.705-6.369 37.312 3.773 67.121 9.167 80.155l-8.781 96.518c.878 29.71 17.923 56.585 43.883 71.059l93.54 52.151 20.059-150-20.059-130.238c-4.246 0-9.395.123-15.275.488z" fill="#555a65"/><path d="m393.809 150.565c-4.98-29.175-17.839-49.934-25.666-60.705-12.92 3.22-36.113 10.857-58.682 30.005-19.854 16.845-31.436 35.991-38.118 50.683-5.909-.368-11.08-.492-15.343-.492v280.238l93.54-52.151c25.961-14.474 43.005-41.349 43.883-71.059l-8.77-96.392c5.398-13.048 15.521-42.841 9.156-80.127z" fill="#333940"/><path d="m184.112 134.694c-11.284-9.574-22.881-13.393-29.341-15.002-3.914 5.386-10.343 15.765-12.833 30.353-3.255 19.066 2.115 34.219 4.759 40.5l59.802-21.766c-2.012-6.512-7.639-21.572-22.387-34.085z" fill="#333940"/><path d="m327.888 134.848c11.284-9.574 22.881-13.393 29.341-15.002 3.914 5.386 10.343 15.765 12.833 30.353 3.255 19.066-2.115 34.219-4.759 40.5l-59.802-21.766c2.012-6.512 7.639-21.572 22.387-34.085z" fill="#101214"/><path d="m183.719 298.449c-19.4-7.061-29.402-28.512-22.342-47.911l70.253 25.57c-7.06 19.4-28.511 29.402-47.911 22.341z" fill="#333940"/><path d="m328.281 298.603c19.4-7.061 29.402-28.512 22.342-47.911l-70.253 25.57c7.06 19.399 28.511 29.402 47.911 22.341z" fill="#101214"/><path d="m190.116 370.55c.101 7.134 1.877 11.95 3.011 14.418 2.454-1.162 6.911-3.709 11.574-9.109 6.094-7.058 8.991-14.878 10.089-18.235l-20.681-7.527c-1.317 3.277-4.125 11.129-3.993 20.453z" fill="#fff"/><path d="m321.884 370.703c-.101 7.134-1.877 11.95-3.011 14.418-2.454-1.161-6.911-3.709-11.574-9.109-6.094-7.058-8.991-14.878-10.089-18.235l20.681-7.527c1.317 3.277 4.125 11.13 3.993 20.453z" fill="#e9edf5"/><path d="m256 351.905c-31.585 0-56-10.75-70.92-19.768l-9.003 14.895c16.814 10.163 44.329 22.278 79.923 22.278l6.647-9.721z" fill="#333940"/><path d="m256 352.058c31.585 0 56-10.75 70.92-19.768l9.003 14.895c-16.814 10.163-44.329 22.277-79.923 22.277z" fill="#101214"/></g></svg>