<svg id="Capa_1" enable-background="new 0 0 512 512" height="512" viewBox="0 0 512 512" width="512" xmlns="http://www.w3.org/2000/svg"><g><circle cx="256" cy="256" fill="#fca0b2" r="256"/><path d="m417.175 210.02-109.668-109.668-38.18 38.18-46.649-46.649-12.905 12.905 59.541 59.541-36.329 36.329-41.787-41.787-71.226 71.226-43.148-43.148-17.294 17.294 32.297 32.297-16.8 16.8 145.108 145.108-8.702 8.702 99.026 99.026c115.219-24.966 201.541-127.482 201.541-250.176 0-13.025-.98-25.82-2.857-38.322l-49.813-49.813z" fill="#fb7a94"/><path d="m217.819 199.219c-26.403-21.802-8.622-49.239-64.61-52.688-41.37-2.549-101.402 7.294-106.201 31.152-3.576 17.781 24.762 37.186 29.736 40.592 19.09 13.073 39.881 17.011 84.961 17.464l47.622-6.083c2.831-10.145 5.662-20.291 8.492-30.437z" fill="#fff"/><path d="m210.408 236.855-31.038 13.869c-28.806 13.97-57.836 28.048-84.017 16.756-17.551-7.57-36.037-27.496-32.079-41.201 4.257-14.741 31.896-20.026 147.622-12.504-.163 7.693-.326 15.387-.488 23.08z" fill="#e9edf5"/><path d="m294.181 199.219c26.403-21.802 8.622-49.239 64.61-52.688 41.37-2.549 101.402 7.294 106.201 31.152 3.576 17.781-24.762 37.186-29.736 40.592-19.09 13.073-39.881 17.011-84.961 17.464l-47.622-6.083c-2.831-10.145-5.662-20.291-8.492-30.437z" fill="#e9edf5"/><path d="m301.592 236.855 31.038 13.869c28.806 13.97 57.836 28.048 84.017 16.756 17.551-7.57 36.037-27.496 32.079-41.201-4.257-14.741-31.896-20.026-147.622-12.504.163 7.693.326 15.387.488 23.08z" fill="#cdd2e1"/><path d="m216.417 93.269h20.06v60.933h-20.06z" fill="#333940" transform="matrix(.907 -.422 .422 .907 -31.069 107.17)"/><path d="m255.087 113.706h60.933v20.06h-60.933z" fill="#101214" transform="matrix(.422 -.907 .907 .422 52.83 330.354)"/><path d="m256 131.485 7.598 33.434-7.598 33.433c-18.465 0-33.434-14.969-33.434-33.434s14.969-33.433 33.434-33.433z" fill="#555a65"/><path d="m256 131.485v66.867c18.465 0 33.434-14.969 33.434-33.434s-14.969-33.433-33.434-33.433z" fill="#333940"/><path d="m256 179.472 7.598 46.807-7.598 46.807c-25.851 0-46.807-20.956-46.807-46.807s20.956-46.807 46.807-46.807z" fill="#333940"/><path d="m256 179.472v93.614c25.851 0 46.807-20.956 46.807-46.807s-20.956-46.807-46.807-46.807z" fill="#101214"/><path d="m256 246.89 7.598 93.614-7.598 93.614c-28.9-9.186-51.557-29.072-63.714-53.494l3.14-13.373-11.8-13.373c-.729-4.442-1.129-8.827-1.18-13.373-.05-4.461.235-8.862.831-13.368l9.435-13.379-2.268-13.373c12.082-29.539 36.671-53.495 65.556-53.495z" fill="#555a65"/><path d="m256 246.89v187.229c28.9-9.186 51.557-29.072 63.714-53.494l-3.14-13.373 11.8-13.373c.729-4.442 1.129-8.827 1.18-13.373.05-4.461-.235-8.862-.831-13.368l-9.435-13.379 2.268-13.373c-12.082-29.54-36.671-53.496-65.556-53.496z" fill="#333940"/><path d="m256 300.383 7.598 13.373-7.598 13.374h-72.723c1.192-9.089 3.65-18.151 7.167-26.747z" fill="#fa0"/><path d="m256 300.383v26.747h72.723c-1.192-9.089-3.65-18.151-7.167-26.747z" fill="#ff9500"/><path d="m256 380.624h-63.714c-4.21-8.457-7.15-17.457-8.661-26.747h72.375l7.598 13.373z" fill="#fa0"/><path d="m256 380.624h63.714c4.21-8.457 7.15-17.457 8.661-26.747h-72.375z" fill="#ff9500"/></g></svg>