<svg id="Capa_1" enable-background="new 0 0 512 512" height="512" viewBox="0 0 512 512" width="512" xmlns="http://www.w3.org/2000/svg"><g><circle cx="256" cy="256" fill="#fca0b2" r="256"/><path d="m357.875 133.3-33.248-33.248-29.132 29.132-55.305-55.305-32.453 32.453 55.305 55.305-28.141 28.141-76.096-76.095-20.108 20.107 17.975 17.975-12.506 12.506 14.798 14.798-14.798 14.798 41.251 41.251-35.161 35.161-25.174-25.174-20.108 20.108 10.49 10.49-23.627 23.627 8.414 8.414-25.018 25.018 60.223 60.223-11.992 11.992 11.765 11.765-16.59 16.59 69.582 69.582c21.592 5.911 44.313 9.086 67.779 9.086 141.385 0 256-114.615 256-256 0-2.66-.054-5.307-.135-7.947l-134.371-134.372z" fill="#fb7a94"/><path d="m118.641 318.932v114.399h24.299v-90.1h19.581v-24.299z" fill="#333940"/><path d="m393.359 318.932v114.399h-24.299v-90.1h-19.581v-24.299z" fill="#101214"/><path d="m107.614 222.855-32.378 109.907 23.308 6.867 22.825-77.479 31.154 21.815 13.938-19.904z" fill="#333940"/><path d="m404.386 222.855 32.378 109.907-23.308 6.867-22.825-77.479-31.154 21.815-13.938-19.904z" fill="#101214"/><path d="m158.805 202.206v-88.525h-24.299v98.591l42.648 42.647 17.182-17.182z" fill="#333940"/><path d="m353.195 202.206v-88.525h24.299v98.591l-42.648 42.647-17.182-17.182z" fill="#101214"/><path d="m240.19 73.878-13.297-13.298-39.47 39.471 35.9 35.9 13.297-13.298-22.603-22.602z" fill="#333940"/><path d="m271.862 73.878 13.296-13.298 39.47 39.471-35.9 35.9-13.296-13.298 22.603-22.602z" fill="#101214"/><path d="m203.917 153.683c0 28.779 23.33 52.109 52.109 52.109l26.055-52.109-26.055-52.109c-28.779 0-52.109 23.331-52.109 52.109z" fill="#555a65"/><path d="m308.135 153.683c0-28.779-23.33-52.109-52.109-52.109v104.218c28.779.001 52.109-23.329 52.109-52.109z" fill="#333940"/><path d="m177.643 189.734c-50.621 63.584-25.911 201.685 35.279 245.791 16.263 11.723 32.511 14.934 43.104 15.895l35.311-163.021-35.311-134.715z" fill="#555a65"/><path d="m334.408 189.734-78.383-36.05v297.736c10.593-.961 26.84-4.173 43.103-15.895 61.375-44.24 85.436-182.491 35.28-245.791z" fill="#333940"/><path d="m251.474 153.683c-13.654.345-48.512 4.248-73.831 36.05l78.383 66.442 30.001-50.384-30.001-52.109c-.002 0-.006 0-.008 0h-4.544z" fill="#333940"/><path d="m334.408 189.734c-27.567-34.792-71.32-35.866-78.383-36.05v102.493z" fill="#101214"/></g></svg>