<svg id="Capa_1" enable-background="new 0 0 512 512" height="512" viewBox="0 0 512 512" width="512" xmlns="http://www.w3.org/2000/svg"><g><circle cx="256" cy="256" fill="#fca0b2" r="256"/><path d="m413.74 134.74-23.829-23.829-22.631 1.961 54.907 54.907-111.28 111.281-166.188-166.188-32.999 3.735-.525-.525-.658.658-4.361.494 1.933 1.934-30.516 30.516 31.903 31.903-25.043 25.043 36.129 36.129-12.855 12.855 135.255 135.255-46.295 46.295 74.382 74.383c134.369-7.803 240.931-119.223 240.931-255.547 0-19.254-2.141-38.005-6.17-56.044l-78.653-78.653z" fill="#fb7a94"/><path d="m89.986 224.049c11.345 41.975 52.52 61.175 91.967 42.885-11.345-41.975-52.52-61.175-91.967-42.885z" fill="#333940"/><path d="m422.014 224.049c-11.345 41.975-52.52 61.175-91.967 42.885 11.345-41.975 52.52-61.175 91.967-42.885z" fill="#101214"/><path d="m256 190.239h-33.576c-36.563 0-65.132 30.71-61.494 66.101.531 15.065 2.032 32.045 5.189 50.478 3.93 22.942 9.562 43.08 15.429 60.031 8.541 33.233 39.237 56.547 74.451 56.547l20.386-127.457z" fill="#cdd2e1"/><path d="m256 190.239h33.576c36.563 0 65.132 30.71 61.494 66.101-.531 15.065-2.031 32.045-5.189 50.478-3.93 22.942-9.562 43.08-15.429 60.031-8.541 33.233-39.237 56.547-74.451 56.547v-233.157z" fill="#b8bcc9"/><path d="m256 401.638 16.645-105.7-16.645-105.699h-33.576c-15.49 0-29.532 5.526-40.311 14.571 15.43 21.077 34.96 53.751 46.021 97.332 7.685 30.28 9.063 57.09 8.455 77.428 6.781 7.355 12.629 14.712 19.411 22.068z" fill="#333940"/><path d="m256 401.638v-211.399h33.576c15.49 0 29.532 5.526 40.311 14.571-15.43 21.077-34.96 53.751-46.021 97.332-7.685 30.28-9.063 57.09-8.455 77.428-6.781 7.355-12.629 14.712-19.411 22.068z" fill="#101214"/><path d="m256 379.569h-43.421c-10.932 0-19.793 6.646-19.793 14.845v33.898c0 8.199 8.862 14.845 19.793 14.845h43.421l16.645-31.794z" fill="#555a65"/><path d="m256 379.569h43.421c10.932 0 19.793 6.646 19.793 14.845v33.898c0 8.199-8.862 14.845-19.793 14.845h-43.421z" fill="#333940"/><path d="m210.748 412.888 3.615 6.262c2.571 4.454 8.266 5.98 12.72 3.408 4.454-2.571 5.98-8.266 3.408-12.72l-3.615-6.262c-2.571-4.454-8.266-5.98-12.72-3.408-4.454 2.571-5.98 8.266-3.408 12.72z" fill="#333940"/><path d="m301.252 412.888-3.615 6.262c-2.571 4.454-8.266 5.98-12.72 3.408-4.454-2.571-5.98-8.266-3.408-12.72l3.615-6.262c2.571-4.454 8.266-5.98 12.72-3.408 4.454 2.571 5.98 8.266 3.408 12.72z" fill="#101214"/><path d="m256 168.856c-6.704-6.113-21.824-17.929-42.452-18.482-16.092-.431-29.08 6.165-35.163 9.255-19.758 10.035-20.437 19.653-34.412 22.069-10.775 1.863-25.504-1.238-32.916-11.97-9.124-13.21-2.779-31.637 5.611-41.893 9.986-12.208 24.202-14.473 28.054-14.962-5.141-2.413-22.426-9.749-41.145-3.366-26.873 9.163-40.524 41.082-36.002 66.37 4.083 22.828 22.21 35.968 29.643 41.356 39.145 28.375 90.104 16.162 110.718 11.221 21.497-5.152 37.948-13.099 48.065-18.702l16.645-19.513z" fill="#555a65"/><path d="m256 168.856c6.704-6.113 21.824-17.929 42.452-18.482 16.092-.431 29.08 6.165 35.163 9.255 19.758 10.035 20.437 19.653 34.412 22.069 10.775 1.863 25.504-1.238 32.916-11.97 9.124-13.21 2.779-31.637-5.611-41.893-9.986-12.208-24.202-14.473-28.054-14.962 5.141-2.413 22.426-9.749 41.145-3.366 26.873 9.163 40.524 41.082 36.002 66.37-4.083 22.828-22.21 35.968-29.643 41.356-39.145 28.375-90.104 16.162-110.718 11.221-21.497-5.152-37.948-13.099-48.065-18.702v-40.896z" fill="#333940"/><path d="m205.231 274.175c4.703 5.605 3.972 13.961-1.633 18.664s-13.961 3.972-18.664-1.633-11.115-22.473-5.51-27.176 21.104 4.54 25.807 10.145z" fill="#555a65"/><path d="m306.769 274.175c-4.703 5.605-3.972 13.961 1.633 18.664s13.961 3.972 18.664-1.633 11.115-22.473 5.51-27.176-21.104 4.54-25.807 10.145z" fill="#333940"/></g></svg>