<svg id="Capa_1" enable-background="new 0 0 512 512" height="512" viewBox="0 0 512 512" width="512" xmlns="http://www.w3.org/2000/svg"><g><circle cx="256" cy="256" fill="#ad6d68" r="256"/><path d="m506.448 202.797-102.751-102.752-60.371 60.371-40.573-40.573-36.308 36.308-44.911-44.911-8.735 8.735 44.911 44.911-13.68 13.68-38.194-38.194-37.352 37.352 15.33 15.33-76.338 76.338 71.435 71.435-64.013 64.013 104.553 104.553c11.939 1.705 24.138 2.607 36.549 2.607 141.385 0 256-114.615 256-256 0-18.245-1.923-36.039-5.552-53.203z" fill="#99584d"/><path d="m217.253 270.068c-38.735-3.488-71.173 10.748-92.018 42.35-27.65 41.919-12.162 87.352-10.338 92.42 4.276 2.865 41.264 26.753 83.75 11.607 27.974-9.973 37.486-27.931 42.007-35.241z" fill="#6cb1f8"/><path d="m294.747 270.068c38.735-3.488 71.173 10.748 92.018 42.35 27.65 41.919 12.162 87.352 10.338 92.42-4.276 2.865-41.264 26.753-83.75 11.607-27.974-9.973-37.486-27.931-42.007-35.241z" fill="#5298f3"/><path d="m217.253 270.068c-6.727 3.294-56.431 34.958-97.665 9.041-63.131-39.68-40.034-171.748 0-186.706 20.894-7.807 42.101 10.447 68.824 32.25 31.254 25.5 49.709 53.89 60.028 73.01-10.396 24.135-20.791 48.27-31.187 72.405z" fill="#8cc7fc"/><path d="m294.747 270.068c6.727 3.294 56.431 34.958 97.665 9.041 63.131-39.68 40.034-171.748 0-186.706-20.894-7.807-42.101 10.447-68.824 32.25-31.254 25.5-49.709 53.89-60.028 73.01 10.396 24.135 20.791 48.27 31.187 72.405z" fill="#6cb1f8"/><path d="m223.334 110.672h15v53.85h-15z" fill="#fa0" transform="matrix(.819 -.574 .574 .819 -37.177 157.285)"/><path d="m273.666 110.672h15v53.85h-15z" fill="#ff9500" transform="matrix(-.819 -.574 .574 -.819 432.562 411.581)"/><path d="m256 188.822c-54.196 58.56-54.196 153.504 0 212.064l7.56-111.659z" fill="#fa0"/><path d="m256 188.822c54.196 58.56 54.196 153.504 0 212.064z" fill="#ff9500"/><path d="m256 149.528c-29.442 14.489-29.442 37.981 0 52.471l7.56-26.235z" fill="#fcc515"/><path d="m256 149.528c29.442 14.489 29.442 37.981 0 52.471z" fill="#fa0"/></g></svg>