<svg id="Capa_1" enable-background="new 0 0 512 512" height="512" viewBox="0 0 512 512" width="512" xmlns="http://www.w3.org/2000/svg"><g><circle cx="256" cy="256" fill="#fca0b2" r="256"/><path d="m282.486 242.002-14.391-14.391-163.831 163.83 118.4 118.4c10.912 1.419 22.037 2.159 33.336 2.159 141.385 0 256-114.615 256-256 0-28.091-4.539-55.118-12.899-80.406l-75.104-75.104z" fill="#fb7a94"/><path d="m94.14 229.338c-6.038-10.383-13.143-25.584-16.682-44.956-7.107-38.897 4.577-70.429 10.546-83.893 31 17.792 62.001 35.584 93.001 53.375-25.407 18.857-61.457 56.618-86.865 75.474z" fill="#e9edf5"/><path d="m106.636 203.726c-3.437-5.909-7.48-14.562-9.495-25.588-4.045-22.139 2.605-40.086 6.003-47.749 17.645 10.127 35.289 20.253 52.934 30.38-14.461 10.732-34.98 32.225-49.442 42.957z" fill="#fff"/><path d="m417.86 229.338c6.038-10.383 13.143-25.584 16.682-44.956 7.107-38.897-4.577-70.429-10.546-83.893-31 17.792-62.001 35.584-93.001 53.375 25.407 18.857 61.457 56.618 86.865 75.474z" fill="#cdd2e1"/><path d="m405.364 203.726c3.437-5.909 7.48-14.562 9.495-25.588 4.045-22.139-2.605-40.086-6.003-47.749-17.645 10.127-35.289 20.253-52.934 30.38 14.461 10.732 34.98 32.225 49.442 42.957z" fill="#e9edf5"/><path d="m108.691 190.029c-30.323 45.318-35.477 124.719 5.05 171.105 34.038 31.822 56.378 33.099 85.449 53.781 23.981 16.86 40.455 25.109 56.81 25.133l23.353-166.111-23.353-140.819c-58.471 1.205-100.728 2.652-147.309 56.911z" fill="#e9edf5"/><path d="m398.26 361.134c40.526-46.386 35.373-125.786 5.05-171.105-46.581-54.26-88.838-55.707-147.309-56.912v306.931c16.355-.024 32.829-8.273 56.81-25.133 29.07-20.681 51.411-21.959 85.449-53.781z" fill="#cdd2e1"/><path d="m256 339.206-37.699-6.589h-5.519c-25.804 0-46.723 20.918-46.723 46.723 0 25.804 20.918 46.723 46.723 46.723 19.514 0 36.227-11.968 43.218-28.96l16.422-27.449z" fill="#fff"/><path d="m256 339.206 37.699-6.589h5.519c25.804 0 46.723 20.918 46.723 46.723 0 25.804-20.918 46.723-46.723 46.723-19.514 0-36.227-11.968-43.218-28.96z" fill="#e9edf5"/><path d="m218.301 332.616 37.699 35.946 13.302-23.729-13.302-12.217z" fill="#555a65"/><path d="m293.699 332.616-37.699 35.946v-35.946z" fill="#333940"/><path d="m155.098 332.809c-17.533-3.17-35.452-3.802-53.193-1.871l1.739 15.982c16.208-1.764 32.547-1.229 48.595 1.709 15.556 2.811 30.639 7.779 44.83 14.765l7.1-14.424c-15.533-7.647-32.043-13.084-49.071-16.161z" fill="#555a65"/><path d="m152.486 368.611c-17.817-.077-35.574 2.412-52.709 7.394l4.488 15.437c15.655-4.552 31.839-6.863 48.154-6.756 15.807.067 31.524 2.34 46.713 6.756l4.488-15.437c-16.627-4.833-33.831-7.321-51.134-7.394z" fill="#555a65"/><path d="m356.902 332.809c17.533-3.17 35.452-3.802 53.193-1.871l-1.739 15.982c-16.208-1.764-32.547-1.229-48.595 1.709-15.556 2.811-30.639 7.779-44.83 14.765l-7.1-14.424c15.533-7.647 32.043-13.084 49.071-16.161z" fill="#333940"/><path d="m359.514 368.611c17.817-.077 35.574 2.412 52.709 7.394l-4.488 15.437c-15.655-4.552-31.839-6.863-48.154-6.756-15.807.067-31.524 2.34-46.713 6.756l-4.488-15.437c16.627-4.833 33.831-7.321 51.134-7.394z" fill="#333940"/><path d="m210.627 287.885-13.556 2.39c-25.147 4.434-49.127-12.357-53.562-37.504l-2.39-13.556 13.556-2.39c25.147-4.434 49.127 12.357 53.562 37.504z" fill="#555a65"/><path d="m301.373 287.885 13.556 2.39c25.147 4.434 49.127-12.357 53.562-37.504l2.39-13.556-13.556-2.39c-25.147-4.434-49.127 12.357-53.562 37.504z" fill="#333940"/></g></svg>