<svg id="Capa_1" enable-background="new 0 0 512 512" height="512" viewBox="0 0 512 512" width="512" xmlns="http://www.w3.org/2000/svg"><g><circle cx="256" cy="256" fill="#ad6d68" r="256"/><path d="m262.001 54-9.416 54.474 20.926 20.926-143.767 143.767 33.966 33.966-8.348 8.348-31.245-31.245-49.679 49.679 31.245 31.245-14.96 14.96 129.361 129.36c11.738 1.648 23.724 2.52 35.916 2.52 126.315 0 231.251-91.488 252.189-211.813z" fill="#99584d"/><path d="m262 198.643h-106.811l-28.11 162.832 134.921 28.043 12.5-80.821z" fill="#36d987"/><path d="m262 198.643h106.811l28.111 162.832-134.922 28.043z" fill="#3cc483"/><path d="m262 364.044-12.5-3.793c-23.612-4.222-33.306-17.824-60.979-18.617-26.536-.76-48.201 10.883-61.442 19.841l134.921 84.525 12.5-46.7z" fill="#3cc483"/><path d="m262 364.044 12.5-3.793c23.612-4.222 33.306-17.824 60.979-18.617 26.536-.76 48.201 10.883 61.442 19.841l-134.921 84.525z" fill="#25b26f"/><circle cx="167.621" cy="235.515" fill="#fff" r="53.406"/><circle cx="146.08" cy="235.515" fill="#555a65" r="15"/><circle cx="356.379" cy="235.515" fill="#e9edf5" r="53.406"/><circle cx="377.921" cy="235.515" fill="#333940" r="15"/><path d="m262 54-50.595 128.109h-43.784l66.211 64.881 28.168 61.707 12.5-121.58z" fill="#3cc483"/><path d="m262 54 50.596 128.109h43.783l-66.21 64.881-28.169 61.707z" fill="#25b26f"/><path d="m249.5 360.251v14.049h-114.455c-21.908 0-39.814-17.466-40.522-39.206l-.021-4.889c0-15.441 12.792-27.95 28.334-27.488 14.957.445 26.666 13.109 26.666 28.073v12.562h25v-12.266c0-28.747-22.742-52.825-51.484-53.371-29.411-.559-53.516 23.204-53.516 52.49l.034.888c.718 35.523 29.818 68.206 65.51 68.206h120.379c2.315 0 4.524-.433 6.577-1.188l8.765-20.171-8.767-16.465c-4.613-.105-8.727-.549-12.5-1.224z" fill="#fca0b2"/><path d="m274.5 380.223v-19.973c-3.772.675-7.887 1.12-12.5 1.225v36.636c7.29-2.682 12.5-9.667 12.5-17.888z" fill="#fb7a94"/></g></svg>