<svg id="Capa_1" enable-background="new 0 0 512 512" height="512" viewBox="0 0 512 512" width="512" xmlns="http://www.w3.org/2000/svg"><g><circle cx="256" cy="256" fill="#ad6d68" r="256"/><path d="m302.509 242.032-6.873-6.873-140.224 140.224 134.392 134.392c125.406-16.545 222.196-123.851 222.196-253.775 0-28.91-4.798-56.697-13.631-82.617l-63.605-63.605z" fill="#99584d"/><path d="m128.756 115.795c-22.756-7.896-41.484-7.178-51.517-6.019-1.159 10.033-1.876 28.762 6.019 51.517 10.319 29.742 29.344 49.044 37.8 56.817l64.515-64.515c-7.773-8.455-27.076-27.48-56.817-37.8z" fill="#fa0"/><path d="m128.056 134.325c-13.138-4.559-23.951-4.144-29.744-3.475-.669 5.793-1.083 16.606 3.475 29.744 5.958 17.172 16.942 28.316 21.824 32.804l37.248-37.248c-4.486-4.883-15.631-15.867-32.803-21.825z" fill="#fcc515"/><path d="m383.244 115.795c22.756-7.896 41.484-7.178 51.517-6.019 1.159 10.033 1.876 28.762-6.019 51.517-10.32 29.742-29.344 49.044-37.8 56.817l-64.515-64.515c7.773-8.455 27.076-27.48 56.817-37.8z" fill="#ff9500"/><path d="m383.944 134.325c13.138-4.559 23.951-4.144 29.744-3.475.669 5.793 1.083 16.606-3.475 29.744-5.958 17.172-16.942 28.316-21.824 32.804l-37.248-37.248c4.486-4.883 15.631-15.867 32.803-21.825z" fill="#fa0"/><path d="m256 102.631c-81.275 0-147.161 70.593-147.161 157.673 0 71.371 44.263 131.655 104.978 151.087 7.811 15.371 23.762 25.909 42.184 25.909l26.031-170.302z" fill="#fa0"/><path d="m256 102.631c81.275 0 147.161 70.593 147.161 157.673 0 71.371-44.263 131.655-104.978 151.087-7.811 15.371-23.762 25.909-42.184 25.909v-334.669z" fill="#ff9500"/><path d="m256 183.137c-17.202 0-31.812 12.735-33.993 29.799-2.149 16.816-5.882 35.836-12.196 56.241-8.979 29.016-20.623 52.573-31.053 70.321-.002.004-.004.007-.007.011-.253.431-.51.876-.762 1.3h.014c-3.945 6.987-6.176 15.07-6.093 23.686.242 24.874 20.095 45.57 44.941 46.777 15.814.768 30.02-6.239 39.148-17.524l26.031-85.617z" fill="#fcc515"/><path d="m256 183.137c17.202 0 31.812 12.735 33.993 29.799 2.149 16.816 5.882 35.836 12.196 56.241 8.979 29.016 20.623 52.573 31.053 70.321.002.004.004.007.007.011.254.431.51.876.762 1.3h-.014c3.945 6.987 6.176 15.07 6.093 23.686-.242 24.874-20.095 45.57-44.941 46.777-15.814.768-30.02-6.239-39.148-17.524v-210.611z" fill="#fa0"/><g fill="#555a65"><circle cx="209.168" cy="144.076" r="10.512"/><circle cx="127.016" cy="277.51" r="10.512"/><circle cx="157.067" cy="301.625" r="13.139"/><circle cx="150.347" cy="339.704" r="10.512"/><circle cx="174.503" cy="174.003" r="15.767"/><circle cx="232.007" cy="183.137" r="13.139"/><path d="m253.718 112.505c-7.146 1.26-11.918 8.075-10.658 15.221 1.125 6.379 6.678 10.853 12.94 10.847v-26.256c-.753 0-1.514.052-2.282.188z"/></g><circle cx="302.832" cy="144.076" fill="#333940" r="10.512"/><circle cx="384.984" cy="277.51" fill="#333940" r="10.512"/><circle cx="354.933" cy="301.625" fill="#333940" r="13.139"/><circle cx="361.653" cy="339.704" fill="#333940" r="10.512"/><circle cx="337.497" cy="174.003" fill="#333940" r="15.767"/><circle cx="279.993" cy="183.137" fill="#333940" r="13.139"/><path d="m258.282 112.505c7.146 1.26 11.918 8.075 10.658 15.221-1.125 6.379-6.678 10.853-12.94 10.847v-26.256c.753 0 1.514.052 2.282.188z" fill="#333940"/><path d="m208.117 350.217 47.883 43.531 10.287-23.748-10.287-19.783z" fill="#555a65"/><path d="m303.883 350.217-47.883 43.531v-43.531z" fill="#333940"/><path d="m219.936 262.085-10.88 3.96c-23.995 8.734-50.527-3.638-59.26-27.634l-3.96-10.88 10.88-3.96c23.995-8.734 50.527 3.638 59.26 27.634z" fill="#555a65"/><path d="m292.064 262.085 10.88 3.96c23.995 8.734 50.527-3.638 59.26-27.634l3.96-10.88-10.88-3.96c-23.995-8.734-50.527 3.638-59.26 27.634z" fill="#333940"/></g></svg>