<svg id="Capa_1" enable-background="new 0 0 512 512" height="512" viewBox="0 0 512 512" width="512" xmlns="http://www.w3.org/2000/svg"><g><circle cx="256" cy="256" fill="#36d987" r="256"/><path d="m511.045 278.046-226.701-226.702-100.029 100.029 82.185 82.185-126.226 126.227 7.871 7.871-3.516 43.208 100.906 100.906c3.473.14 6.958.23 10.465.23 133.956 0 243.864-102.893 255.045-233.954z" fill="#3cc483"/><path d="m256 72.395c-.402 0-.803.001-1.204.002-54.693.175-101.048 40.32-109.366 94.376l-20.833 135.391.024.007c-11.605 36.545-4.957 79.302 19.992 108.692 3.999-4.71 7.51-9.775 10.569-15.092 3.782 12.693 9.532 24.594 17.278 34.858 3.758-4.98 7.036-10.351 9.857-16.004 4.243 10.162 10.212 19.688 17.939 28.038 7.755-8.38 13.737-17.944 17.983-28.147 2.834 5.694 6.132 11.101 9.914 16.113 1.501-1.989 2.904-4.057 4.256-6.164 3.493 17.015 11.34 33.196 23.591 46.433l20.02-211.917z" fill="#fff"/><path d="m387.38 302.171.023-.007-20.833-135.391c-8.318-54.057-54.673-94.201-109.365-94.376-.401-.001-.802-.002-1.204-.002 0 0 0 0-.001 0v398.505c12.251-13.237 20.098-29.418 23.591-46.433 1.352 2.106 2.755 4.174 4.256 6.164 3.754-4.974 7.029-10.339 9.848-15.987 4.243 10.156 10.209 19.675 17.932 28.021 7.76-8.385 13.744-17.955 17.99-28.165 2.836 5.701 6.137 11.113 9.923 16.131 7.745-10.264 13.496-22.166 17.278-34.858 3.06 5.317 6.571 10.382 10.569 15.092 24.949-29.391 31.597-72.149 19.993-108.694z" fill="#e9edf5"/><circle cx="301.61" cy="162.748" fill="#333940" r="15"/><circle cx="205.235" cy="162.748" fill="#555a65" r="15"/><path d="m248.899 263.745c-18.06 13.716-29.247 34.04-32.613 55.594-3.841 24.592 27.158 33.706 39.714 17.955l10.882-32.868-10.882-40.681z" fill="#fca0b2"/><path d="m295.714 319.339c-3.366-21.553-14.553-41.877-32.613-55.594h-7.101v73.549c12.556 15.751 43.554 6.637 39.714-17.955z" fill="#fb7a94"/><path d="m256 185.511-45.61 22.591 45.61 83.136 16.131-52.863z" fill="#fa0"/><path d="m256.529 186.041 45.61 22.591-45.61 83.136z" fill="#ff9500"/><path d="m220.204 68.859c-.682 27.75 11.25 55.688 35.796 76.864l16.131-52.311-16.131-52.312c-17.671 0-35.341 9.253-35.796 27.759z" fill="#fca0b2"/><path d="m291.796 68.859c-.455-18.506-18.125-27.759-35.796-27.759v104.623c24.546-21.176 36.478-49.114 35.796-76.864z" fill="#fb7a94"/></g></svg>