<svg id="Capa_1" enable-background="new 0 0 512 512" height="512" viewBox="0 0 512 512" width="512" xmlns="http://www.w3.org/2000/svg"><g><circle cx="256" cy="256" fill="#8cc7fc" r="256"/><path d="m406.31 148.972-55.825-55.825-115.394 115.395-75.82-75.82-15.613 15.613-12.753-12.753-34.631 34.631 158.741 158.741-94.152 94.152 88.813 88.813c2.102.051 4.209.08 6.324.08 141.385 0 256-114.615 256-256 0-15.35-1.355-30.384-3.944-44.99l-81.892-81.892z" fill="#6cb1f8"/><path d="m214.218 131.805-43.301 25-11.068-55.994c-1.632-8.255 5.078-12.129 11.411-6.588z" fill="#ad6d68"/><path d="m297.782 131.805 43.301 25 11.068-55.994c1.632-8.255-5.078-12.129-11.411-6.588z" fill="#99584d"/><path d="m78.494 139.076 92.76 43.255c9.158-21.865-3.004-48.512-26.986-60.304-24.787-12.19-54.525-4.734-65.774 17.049z" fill="#555a65"/><path d="m78.494 139.076c11.736 41.708 53.266 61.074 92.76 43.255-11.736-41.708-53.265-61.074-92.76-43.255z" fill="#fca0b2"/><path d="m433.506 139.076-92.76 43.255c-9.158-21.865 3.004-48.512 26.986-60.304 24.787-12.19 54.525-4.734 65.774 17.049z" fill="#e9edf5"/><path d="m433.506 139.076c-11.736 41.708-53.266 61.074-92.76 43.255 11.736-41.708 53.265-61.074 92.76-43.255z" fill="#fb7a94"/><path d="m152.59 184.368c-4.355 13.604-7.556 30.19-7.105 49.089.87 36.44 14.713 39.876 16.455 82.56 1.625 39.807-9.725 53.704 0 66.353h94.06l16.115-139.9-16.115-139.9c-13.358 0-25.239 2.668-35.592 6.664z" fill="#fff"/><path d="m350.059 382.37c9.725-12.649-1.625-26.546 0-66.353.442-10.82 1.657-19.094 3.245-26.047l-8.775-52.087 17.845-42.913c-7.66-31.726-23.184-50.886-23.184-50.886-5.361-6.41-34.719-41.514-83.191-41.514v279.8z" fill="#e9edf5"/><g fill="#555a65"><path d="m273.364 242.47c0 26.234 21.266 47.5 47.5 47.5h32.44c4.677-20.491 12.56-29.301 13.21-56.513.34-14.238-1.403-27.156-4.14-38.487h-41.511c-26.233 0-47.499 21.266-47.499 47.5z"/><path d="m172.809 144.084s-12.11 14.948-20.219 40.284c8.29 5.829 18.387 9.263 29.292 9.263 28.167 0 51-22.833 51-51 0-12.778-4.71-24.448-12.474-33.397-27.223 10.505-43.715 30.206-47.599 34.85z"/><circle cx="208.636" cy="242.47" r="15"/></g><circle cx="303.364" cy="242.47" fill="#333940" r="15"/><path d="m182.913 332.37c-17.625 0-31.913 14.968-31.913 33.433v33.134c0 18.464 14.288 33.433 31.913 33.433h73.087l16.115-50-16.115-50z" fill="#fca0b2"/><path d="m361 398.937v-33.134c0-18.464-14.288-33.433-31.913-33.433h-73.087v100h73.087c17.625 0 31.913-14.969 31.913-33.433z" fill="#fb7a94"/><circle cx="203.636" cy="382.37" fill="#555a65" r="15"/><circle cx="308.364" cy="382.37" fill="#333940" r="15"/></g></svg>