<svg id="Capa_1" enable-background="new 0 0 512 512" height="512" viewBox="0 0 512 512" width="512" xmlns="http://www.w3.org/2000/svg"><g><circle cx="256" cy="256" fill="#36d987" r="256"/><path d="m394.5 109.763 13.162 13.162-20.828 20.828-20.218-20.218-11.059 11.059 11.65 11.65-15.154 15.156-15.915-15.915-11.059 11.059 5.071 5.072-62.315 62.315-43.458-43.458-1.729 1.729-32.264-32.264-4.71 4.71-25.993-25.993-5.173 5.173-28.823-28.823-11.059 11.059 5.294 5.294-12.986 12.985 23.329 23.329-9.115 9.115 43.31 43.311-10.39 10.39-.042-.042-25.737 25.737 125.652 125.652-59.054 59.053 80.393 80.393c132.379-9.859 236.72-120.383 236.72-255.281 0-19.698-2.231-38.875-6.443-57.297l-99.999-99.999z" fill="#3cc483"/><path d="m223.797 179.909c-8.904-8.444-19.137-9.045-29.24-8.813-.811-.851-1.563-1.749-2.198-2.732-4.8-7.426-2.726-15.981-1.976-18.426l-14.519-4.453c-1.063 3.465-3.704 14.411.882 25.631-2.836-.222-5.772-.629-8.842-1.306-3.302-3.637-6.765-8.724-8.826-15.449-3.452-11.261-1.104-20.939.604-25.707l-14.297-5.119c-2.342 6.54-5.564 19.82-.826 35.277.139.454.298.885.446 1.329-7.722-5.001-15.408-12.316-19.397-22.79-4.671-12.262-2.535-24.357.081-32.345l-19.243-6.3c-3.632 11.094-6.539 28.056.24 45.852 9.801 25.73 33.716 37.508 47.1 42.239 15.228 5.383 27.755 4.972 37.816 4.644 9.747-.32 14.596-.319 18.263 3.161 4.399 4.172 6.283 12.243 5.448 23.339l20.191 1.521c1.323-17.622-2.615-30.929-11.707-39.553z" fill="#ad6d68"/><path d="m288.203 179.909c8.904-8.444 19.137-9.045 29.24-8.813.811-.851 1.563-1.749 2.198-2.732 4.8-7.426 2.726-15.981 1.976-18.426l14.519-4.453c1.063 3.465 3.704 14.411-.882 25.631 2.836-.222 5.772-.629 8.842-1.306 3.302-3.637 6.765-8.724 8.826-15.449 3.453-11.261 1.104-20.939-.604-25.707l14.297-5.119c2.342 6.54 5.564 19.82.826 35.277-.139.454-.298.885-.446 1.329 7.722-5.001 15.408-12.316 19.397-22.79 4.671-12.262 2.534-24.357-.081-32.345l19.243-6.3c3.632 11.094 6.539 28.056-.24 45.852-9.801 25.73-33.716 37.508-47.1 42.239-15.228 5.383-27.755 4.972-37.816 4.644-9.746-.32-14.596-.319-18.263 3.161-4.399 4.172-6.283 12.243-5.448 23.339l-20.191 1.521c-1.323-17.622 2.615-30.929 11.707-39.553z" fill="#99584d"/><path d="m113.348 203.289 58.074 58.074c12.906-13.974 11.049-37.404-3.798-52.879-15.346-15.993-39.816-18.533-54.276-5.195z" fill="#c48174"/><path d="m113.347 203.29c-2.597 34.671 23.403 60.672 58.074 58.074 2.598-34.671-23.403-60.672-58.074-58.074z" fill="#fa0"/><path d="m398.652 203.289-58.074 58.074c-12.906-13.974-11.049-37.404 3.798-52.879 15.346-15.993 39.816-18.533 54.276-5.195z" fill="#ad6d68"/><path d="m398.653 203.29c2.597 34.671-23.403 60.672-58.074 58.074-2.598-34.671 23.403-60.672 58.074-58.074z" fill="#ff9500"/><path d="m256 192.835-86.433 48.389v61.725l-8.502 34.433 19.895 35.562 13.926 57.943 61.114 22.241 15.16-116.841z" fill="#ad6d68"/><path d="m256 192.835 86.433 48.389v61.725l8.502 34.433-19.895 35.562-13.926 57.943-61.114 22.241z" fill="#99584d"/><path d="m256 192.835h-6.501c-33.572 0-64.368 18.643-79.932 48.389l60.139 62.949-4.018 93.91 30.312 10.355 15.16-113.51z" fill="#c48174"/><path d="m256 192.835h6.501c33.572 0 64.368 18.643 79.932 48.389l-60.139 62.949 4.018 93.91-30.312 10.355z" fill="#ad6d68"/><path d="m225.687 398.082 30.313 27.75 10.069-18.411-10.069-9.339z" fill="#555a65"/><path d="m286.313 398.082-30.313 27.75v-27.75z" fill="#333940"/><circle cx="202.214" cy="310.959" fill="#555a65" r="15"/><circle cx="309.786" cy="310.959" fill="#333940" r="15"/></g></svg>