<svg id="Capa_1" enable-background="new 0 0 512 512" height="512" viewBox="0 0 512 512" width="512" xmlns="http://www.w3.org/2000/svg"><g><circle cx="256" cy="256" fill="#fcc515" r="256"/><path d="m510.168 225.365-100.7-100.7-95.956 95.957-119.679-119.679-48.62 48.62 132.366 132.366-127.904 127.904 102.113 102.114c1.403.023 2.804.053 4.212.053 141.385 0 256-114.615 256-256 0-10.369-.633-20.589-1.832-30.635z" fill="#fa0"/><path d="m256 354.664 22.34-112.324-22.34-139.813c-1.326-.028-2.655-.041-3.989-.032-18.695.128-36.551 3.96-52.877 10.782l.018-.017-5.319-12.318-39.696 20.841-51.606 2.881s15.595 38.889 23.393 58.333l.018-.017c-8.544 17.91-13.415 37.877-13.599 58.915-.183 20.899 4.196 40.754 12.198 58.635 7.583 16.944 9.5 35.761 6.871 54.137z" fill="#ad6d68"/><path d="m256 354.664v-252.137c1.326-.028 2.655-.041 3.989-.032 18.695.128 36.551 3.96 52.877 10.782l-.018-.017 5.319-12.318 39.696 20.841 51.606 2.881s-15.595 38.889-23.393 58.333l-.018-.017c8.544 17.91 13.415 37.877 13.599 58.915.183 20.899-4.196 40.754-12.198 58.635-7.583 16.944-9.5 35.761-6.871 54.137z" fill="#99584d"/><path d="m102.53 124.664 91.302-23.722-5.987 72.067c0 13.68-16.568 20.5-26.199 10.784z" fill="#c48174"/><path d="m409.47 124.664-91.302-23.722 5.987 72.067c0 13.68 16.568 20.5 26.199 10.784z" fill="#ad6d68"/><path d="m256 153.303c-.99-.085-1.99-.139-3.003-.139-19.823 0-35.592 16.622-34.551 36.417l4.085 77.611c.887 16.849-12.241 31.053-29.102 31.672-.258.009-.516.02-.774.033-33.342 1.611-60.353 28.723-61.835 62.071-1.659 37.317 28.104 68.092 65.054 68.092h60.126l22.34-131.657z" fill="#fff"/><path d="m256 153.303c.99-.085 1.99-.139 3.003-.139 19.823 0 35.592 16.622 34.551 36.417l-4.085 77.611c-.887 16.849 12.241 31.053 29.102 31.672.258.009.516.02.774.033 33.342 1.611 60.353 28.723 61.835 62.071 1.659 37.317-28.104 68.092-65.054 68.092h-60.126z" fill="#e9edf5"/><path d="m256 319.105h-29.051c-8.632 0-15.629 6.997-15.629 15.629 0 23.018 18.659 41.677 41.677 41.677 1.011 0 2.01-.049 3.003-.119l19.368-28.534z" fill="#555a65"/><path d="m256 319.105h29.051c8.632 0 15.629 6.997 15.629 15.629 0 23.018-18.659 41.677-41.677 41.677-1.011 0-2.01-.049-3.003-.119z" fill="#333940"/><circle cx="190.833" cy="257.804" fill="#555a65" r="15"/><circle cx="323.384" cy="257.804" fill="#333940" r="15"/></g></svg>