<svg id="Capa_1" enable-background="new 0 0 512 512" height="512" viewBox="0 0 512 512" width="512" xmlns="http://www.w3.org/2000/svg"><g><circle cx="256" cy="256" fill="#fcc515" r="256"/><path d="m202.468 266.167 97.457 97.457-78.31 78.311 67.883 67.883c125.554-16.41 222.502-123.788 222.502-253.818 0-18.427-1.964-36.393-5.663-53.716l-119.993-119.993z" fill="#fa0"/><path d="m172.097 103.14c-21.306-14.061-37.848-18.948-46.603-20.849.352 8.952 2.292 26.092 12.439 49.516 13.263 30.615 32.824 54.139 41.407 63.846l48.444-40.649c-8.07-10.138-27.84-33.486-55.687-51.864z" fill="#cdd2e1"/><path d="m185.88 132.593c-11.862-7.828-21.071-10.549-25.945-11.607.196 4.984 1.276 14.526 6.925 27.567 7.384 17.044 18.274 30.14 23.052 35.545l26.97-22.63c-4.492-5.645-15.499-18.644-31.002-28.875z" fill="#555a65"/><path d="m339.739 103.14c21.306-14.061 37.848-18.948 46.603-20.849-.352 8.952-2.292 26.092-12.439 49.516-13.263 30.615-32.824 54.139-41.407 63.846l-48.444-40.649c8.071-10.138 27.841-33.486 55.687-51.864z" fill="#b8bcc9"/><path d="m325.957 132.593c11.862-7.828 21.071-10.549 25.945-11.607-.196 4.984-1.276 14.526-6.925 27.567-7.384 17.044-18.274 30.14-23.052 35.545l-26.97-22.63c4.492-5.645 15.498-18.644 31.002-28.875z" fill="#333940"/><path d="m256 108.559-40.323 13.117c-9.206 6.677-15.035 13.793-16.588 15.753-10.452 13.186-7.601 19.329-14.655 34.539-1.84 3.964-4.353 8.558-7.951 14.04-7.342 11.188-15.304 20.195-12.687 30.416 1.493 5.83 3.456 5.864 6.494 15.938 2.495 8.271 2.588 14.651 2.797 19.396.464 10.532 2.527 32.712 9.648 54.012 1.96 5.862 5.289 14.274 11.108 23.947 3.098 4.552 7.087 11.675 8.732 20.964 2.321 13.098-2.351 15.595-2.419 30.662l55.844 70.657 17.328-194.508z" fill="#cdd2e1"/><path d="m335.517 186.007c-3.598-5.482-6.111-10.075-7.951-14.04-7.054-15.21-4.203-21.353-14.655-34.539-1.678-2.117-8.21-10.161-18.745-17.263l-38.166-11.606v278.255 65.186l55.843-70.657c-.068-15.067-4.74-17.563-2.419-30.662 1.646-9.289 5.635-16.412 8.732-20.964 5.818-9.673 9.148-18.085 11.108-23.947 7.121-21.3 9.184-43.48 9.648-54.012.209-4.745.302-11.125 2.797-19.396 3.038-10.075 5.001-10.109 6.494-15.938 2.618-10.222-5.344-19.229-12.686-30.417z" fill="#b8bcc9"/><path d="m256 367.033c-.959.012-1.958-.028-3.042-.18-8.994-1.255-10.575-6.851-20.922-7.215-1.971-.069-10.473-.368-17.075 5.05-3.995 3.279-3.61 5.628-7.455 10.341-2.492 3.054-5.016 4.957-7.349 6.312-.038.376-.075.754-.106 1.143-1.129 14.306 3.936 25.427 11.303 41.604 5.014 11.011 7.65 16.604 13.948 20.922 6.123 4.198 12.559 4.963 25.431 6.493 1.872.223 3.619.38 5.266.495l10.907-51.478z" fill="#e9edf5"/><path d="m256 367.033c.959.012 1.958-.028 3.042-.18 8.994-1.255 10.575-6.851 20.922-7.215 1.971-.069 10.473-.368 17.075 5.05 3.995 3.279 3.61 5.628 7.455 10.341 2.492 3.054 5.016 4.957 7.349 6.312.038.376.075.754.106 1.143 1.129 14.306-3.936 25.427-11.303 41.604-5.014 11.011-7.65 16.604-13.948 20.922-6.123 4.198-12.559 4.963-25.431 6.493-1.872.223-3.619.38-5.266.495v-84.965z" fill="#cdd2e1"/><path d="m218.426 400.286 3.487 6.039c2.48 4.295 7.972 5.767 12.267 3.287 4.295-2.48 5.767-7.972 3.287-12.267l-3.487-6.039c-2.48-4.295-7.972-5.767-12.267-3.287-4.295 2.479-5.766 7.972-3.287 12.267z" fill="#cdd2e1"/><path d="m293.573 400.286-3.487 6.039c-2.48 4.295-7.972 5.767-12.267 3.287-4.295-2.48-5.767-7.972-3.287-12.267l3.487-6.039c2.48-4.295 7.972-5.767 12.267-3.287 4.296 2.479 5.767 7.972 3.287 12.267z" fill="#b8bcc9"/><path d="m250.734 108.571c-14.314.717-26.241 6.715-35.057 13.106-3.982 8.893-7.699 20.823-7.768 34.958-.238 48.369 42.442 79.027 48.092 82.954l17.166-80.823-17.167-50.207c-1.722-.076-3.476-.078-5.266.012z" fill="#555a65"/><path d="m261.266 108.571c14.314.717 26.241 6.715 35.057 13.106 3.982 8.893 7.699 20.823 7.768 34.958.238 48.369-42.442 79.027-48.092 82.954v-131.03c1.723-.076 3.477-.078 5.267.012z" fill="#333940"/><circle cx="196.868" cy="239.218" fill="#555a65" r="15"/><circle cx="315.132" cy="239.218" fill="#333940" r="15"/></g></svg>