<svg id="Capa_1" enable-background="new 0 0 512 512" height="512" viewBox="0 0 512 512" width="512" xmlns="http://www.w3.org/2000/svg"><g><circle cx="256" cy="256" fill="#8cc7fc" r="256"/><path d="m317.385 76.699-122.166 122.167 117.346 117.346-117.709 117.709 77.541 77.541c128.826-8.146 231.768-111.56 239.162-240.589z" fill="#6cb1f8"/><path d="m256 52.596c-10.392.194-45.304 3.511-66.352 29.615-11.222 13.917-10.732 24.744-19.596 55.106-5.924 20.292-14.473 43.989-27.176 69.882-2.022 6.042-13.781 43.001 6.706 70.941 10.136 13.824 23.877 19.591 37.695 25.391 23.372 9.809 43.322 10.501 68.724 10.495l18.304-130.715z" fill="#fa0"/><path d="m256 215.168c-21.171-.542-33.842-8.629-35.713-10.792-11.001 30.611-18.824 56.282-24 74.353-27.246 95.118-22.767 124.927-12.235 141.647 10.017 15.903 23.529 24 23.529 24 6.684 4.348 24.036 14.413 48.419 15.029l18.304-106.323z" fill="#ad6d68"/><path d="m222.696 278.556v6.992c0 4.973 3.358 9.004 7.5 9.004 4.142 0 7.5-4.031 7.5-9.004v-6.992c0-4.973-3.358-9.004-7.5-9.004-4.143 0-7.5 4.031-7.5 9.004z" fill="#555a65"/><circle cx="215.11" cy="142.115" fill="#555a65" r="15"/><path d="m256 52.596c10.392.194 45.304 3.511 66.352 29.615 11.222 13.917 10.732 24.744 19.596 55.106 5.924 20.292 14.473 43.989 27.176 69.882 2.022 6.042 13.781 43.001-6.706 70.941-10.136 13.824-23.877 19.591-37.695 25.391-23.372 9.809-43.322 10.501-68.724 10.495v-261.43z" fill="#ff9500"/><path d="m256 215.168c21.171-.542 33.842-8.629 35.713-10.792 11.001 30.611 18.824 56.282 24 74.353 27.246 95.118 22.767 124.927 12.235 141.647-10.017 15.903-23.529 24-23.529 24-6.684 4.348-24.036 14.413-48.419 15.029z" fill="#99584d"/><g fill="#333940"><path d="m289.304 278.556v6.992c0 4.973-3.358 9.004-7.5 9.004-4.142 0-7.5-4.031-7.5-9.004v-6.992c0-4.973 3.358-9.004 7.5-9.004 4.143 0 7.5 4.031 7.5 9.004z"/><circle cx="296.89" cy="142.115" r="15"/></g></g></svg>