<svg id="Capa_1" enable-background="new 0 0 512 512" height="512" viewBox="0 0 512 512" width="512" xmlns="http://www.w3.org/2000/svg"><g><circle cx="256" cy="256" fill="#fca0b2" r="256"/><path d="m512 256c0-3.105-.075-6.191-.185-9.269l-157.764-157.764-161.131 161.13 24.552 24.552-77.199 77.199 11.889 11.889-7.535 50.679 97.186 97.186c4.697.257 9.426.398 14.187.398 141.385 0 256-114.615 256-256z" fill="#fb7a94"/><path d="m157.948 88.968-33.351 216.744.024.007c-11.605 36.545-4.957 79.302 19.992 108.692 3.999-4.71 7.51-9.775 10.569-15.092 3.782 12.693 9.532 24.594 17.278 34.858 7.745-10.264 13.496-22.166 17.278-34.858 3.06 5.317 6.571 10.382 10.569 15.092 3.999-4.71 7.51-9.775 10.569-15.092 3.782 12.693 9.532 24.594 17.278 34.858 7.745-10.264 13.496-22.166 17.278-34.858 3.06 5.317 6.571 10.382 10.569 15.092l16.13-158.411-16.131-180.058c-40.204 0-73.761 6.455-98.052 13.026z" fill="#fff"/><path d="m283.847 434.177c7.745-10.264 13.496-22.166 17.278-34.858 3.06 5.317 6.571 10.382 10.569 15.092 3.999-4.71 7.51-9.775 10.569-15.092 3.782 12.693 9.532 24.594 17.278 34.858 7.745-10.264 13.496-22.166 17.278-34.858 3.06 5.317 6.571 10.382 10.569 15.092 24.949-29.39 31.597-72.147 19.992-108.692l.023-.007-33.351-216.744c-24.283-6.568-57.819-13.02-97.993-13.026-.02 0-.039 0-.059 0v338.468c3.999-4.71 7.51-9.775 10.569-15.092 3.782 12.693 9.533 24.594 17.278 34.859z" fill="#e9edf5"/><path d="m256 189.058-45.61 22.591 45.61 83.136 16.131-52.864z" fill="#fa0"/><path d="m256.529 189.587 45.61 22.591-45.61 83.136z" fill="#ff9500"/><path d="m197.142 183.463c-16.214-4.782-25.05-22.627-18.662-38.351l55.733 20.285c-5.024 15.374-21.86 23.637-37.071 18.066z" fill="#555a65"/><path d="m314.858 183.463c16.214-4.782 25.05-22.627 18.662-38.351l-55.733 20.285c5.024 15.374 21.86 23.637 37.071 18.066z" fill="#333940"/></g></svg>