<svg id="Capa_1" enable-background="new 0 0 512 512" height="512" viewBox="0 0 512 512" width="512" xmlns="http://www.w3.org/2000/svg"><g><circle cx="256" cy="256" fill="#ad6d68" r="256"/><path d="m302.811 507.715c119.028-21.996 209.189-126.32 209.189-251.715 0-6.536-.248-13.013-.729-19.426l-132.197-132.197-84.646 84.646-82.346-82.346-90.543 90.543 14.73 14.73-35.661 35.661 106.746 106.746-1.279 12.564 61.482 61.482-22.029 22.029z" fill="#99584d"/><path d="m211.12 292.9c-3.432 7.219-7.511 17.981-9.112 31.552-2.197 18.626 1.313 33.754 4.066 42.471 1.134-8.865 4.007-22.28 11.973-36.597 4.954-8.903 10.532-15.738 15.286-20.708l-7.38-12.5z" fill="#fff"/><path d="m300.88 292.9c3.432 7.219 7.511 17.981 9.112 31.552 2.197 18.626-1.313 33.754-4.066 42.471-1.134-8.865-4.007-22.28-11.973-36.597-4.954-8.903-10.532-15.738-15.286-20.708l7.38-12.5z" fill="#e9edf5"/><path d="m220.758 117.595c-2.935-4.713-11.62-17.266-28.332-23.982-2.159-.868-20.733-8.018-41.431-.925-16.744 5.737-26.691 20.313-45.902 49.23-18.84 28.359-27.935 42.752-27.109 59.188 1.268 25.234 19.365 43.576 24.92 48.721 11.037 10.222 14.698 7.369 32.009 19.955 24.665 17.932 26.613 30.543 37.619 31.948 9.714 1.24 25.012-6.438 48.226-50.512z" fill="#cdd2e1"/><path d="m291.242 117.595c2.935-4.713 11.62-17.266 28.332-23.982 2.159-.868 20.733-8.018 41.431-.925 16.744 5.737 26.691 20.313 45.902 49.23 18.84 28.359 27.935 42.752 27.109 59.188-1.268 25.234-19.365 43.576-24.92 48.721-11.037 10.222-14.698 7.369-32.009 19.955-24.665 17.932-26.613 30.543-37.619 31.948-9.714 1.24-25.012-6.438-48.226-50.512z" fill="#b8bcc9"/><path d="m256 117.595h-42.028c-19.796 0-35.844 16.048-35.844 35.844v42.697l32.992 71.462v25.302l22.214 16.717 12.194 140.816h10.472l14.106-197.735z" fill="#e9edf5"/><path d="m256 117.595h42.028c19.796 0 35.844 16.048 35.844 35.844v42.697l-32.992 71.462v25.302l-22.214 16.717-12.194 140.816h-10.472z" fill="#cdd2e1"/><circle cx="221.008" cy="200.664" fill="#555a65" r="15"/><circle cx="290.992" cy="200.664" fill="#333940" r="15"/></g></svg>