<svg id="Capa_1" enable-background="new 0 0 512 512" height="512" viewBox="0 0 512 512" width="512" xmlns="http://www.w3.org/2000/svg"><g><circle cx="256" cy="256" fill="#8cc7fc" r="256"/><path d="m347.147 99.971 17.853 17.852-82.89 82.89-120.233-120.232-5.691 5.691 32.824 32.823-34.036 34.036 30.544 30.544-111.812 111.813 214.59 214.59c126.138-15.879 223.704-123.533 223.704-253.978 0-8-.386-15.909-1.104-23.722l-156.135-156.136z" fill="#6cb1f8"/><path d="m190.018 120.278c-12.465-24.395-25.497-37.723-32.777-44.138-4.646 8.518-12.334 25.5-15.704 52.687-4.404 35.533 1.135 67.809 3.906 81.399l68.744-12.121c-2.044-13.72-7.878-45.943-24.169-77.827z" fill="#fcc515"/><path d="m321.982 120.278c12.465-24.395 25.497-37.723 32.777-44.138 4.646 8.518 12.334 25.5 15.704 52.687 4.404 35.533-1.135 67.809-3.906 81.399l-68.744-12.121c2.044-13.72 7.878-45.943 24.169-77.827z" fill="#fa0"/><path d="m256 159.272h-.353c-18.617 1.327-65.836 7.178-111.873 42.009-44.97 34.023-63.516 76.558-70.068 94.109l182.294 103.529 15-115.588z" fill="#fa0"/><path d="m256 159.272h.353c18.617 1.327 65.836 7.178 111.873 42.009 44.97 34.023 63.516 76.558 70.068 94.109l-182.294 103.529z" fill="#ff9500"/><path d="m226 375.228c14.745-32.542 12.222-67.973-7.009-91.932-16.207-20.191-38.671-25.244-45.755-26.729-53.661-11.252-96.625 35.561-99.529 38.824 25.705 15.643 64.315 41.312 106.588 79.059 29.371 26.226 43.281 42.898 56.571 52.489 5.712 4.122 12.423 6.184 19.135 6.184l10.412-22.894-10.413-26.604z" fill="#fff"/><path d="m331.706 374.449c42.273-37.746 80.883-63.416 106.588-79.059-2.904-3.263-45.868-50.075-99.529-38.824-7.084 1.485-29.548 6.538-45.755 26.729-19.232 23.959-21.754 59.391-7.009 91.932l-30 8.397v49.496c6.711 0 13.423-2.061 19.135-6.184 13.289-9.589 27.199-26.262 56.57-52.487z" fill="#e9edf5"/><path d="m226 375.228 30 35 10.412-22.191-10.412-12.809z" fill="#555a65"/><path d="m286 375.228-30 35v-35z" fill="#333940"/><path d="m172.301 306.31c-15.362-4.531-23.734-21.438-17.682-36.335l52.804 19.219c-4.759 14.565-20.711 22.394-35.122 17.116z" fill="#555a65"/><path d="m339.699 306.31c15.362-4.531 23.734-21.438 17.682-36.335l-52.804 19.219c4.759 14.565 20.711 22.394 35.122 17.116z" fill="#333940"/></g></svg>