<svg id="Capa_1" enable-background="new 0 0 512 512" height="512" viewBox="0 0 512 512" width="512" xmlns="http://www.w3.org/2000/svg"><g><circle cx="256" cy="256" fill="#ad6d68" r="256"/><path d="m389.936 134.092-86.716 86.716-86.716-86.716-77.029 77.029 44.169 44.17-87.534 87.533 168.997 168.997c137.113-4.797 246.809-117.403 246.891-255.667z" fill="#99584d"/><path d="m235.897 174.924c-3.321-33.865-31.873-60.327-66.611-60.327-36.969 0-66.939 29.97-66.939 66.939 0 12.415 3.392 24.033 9.282 33.999-25.987 19.188-41.57 43.652-41.57 70.303l185.941 111.565 17.183-124.865-17.183-98.265c-6.793 0-13.499.225-20.103.651z" fill="#36d987"/><path d="m276.103 174.924c3.321-33.865 31.873-60.327 66.611-60.327 36.969 0 66.939 29.97 66.939 66.939 0 12.415-3.392 24.033-9.282 33.999 25.987 19.188 41.57 43.652 41.57 70.303l-185.941 111.565v-223.13c6.793 0 13.499.225 20.103.651z" fill="#3cc483"/><path d="m131.154 285.562c-3.024-.821-12.971-3.786-26.694-4.206-14.889-.456-26.982 2.306-34.401 4.481 0 61.616 83.249 111.565 185.941 111.565l17.183-62.432-17.183-62.432c-54.408 0-91.574 22.054-124.846 13.024z" fill="#fff"/><path d="m441.941 285.838c-7.419-2.176-19.512-4.937-34.401-4.481-13.723.42-23.67 3.385-26.694 4.206-33.271 9.029-70.437-13.025-124.846-13.025v124.865c102.692 0 185.941-49.949 185.941-111.565z" fill="#e9edf5"/><circle cx="169.286" cy="181.536" fill="#fff" r="33.469"/><circle cx="169.286" cy="181.536" fill="#555a65" r="15"/><circle cx="342.714" cy="181.536" fill="#e9edf5" r="33.469"/><circle cx="342.714" cy="181.536" fill="#333940" r="15"/></g></svg>