<svg id="Capa_1" enable-background="new 0 0 512 512" height="512" viewBox="0 0 512 512" width="512" xmlns="http://www.w3.org/2000/svg"><g><circle cx="256" cy="256" fill="#8cc7fc" r="256"/><path d="m400.825 155.048-84.091-84.091-23.652 23.652 6.39 6.39-19.706 19.706-54.956-54.956-23.651 23.651 68.576 68.576-51.602 51.602-52.981-52.981-35.652 35.652 5.735 5.735-20.45 20.45 172.58 172.58-56.167 56.167 62.105 62.105c123.701-18.061 218.697-124.573 218.697-253.286 0-5.827-.213-11.603-.597-17.332l-97.099-97.099z" fill="#6cb1f8"/><path d="m97.698 141.566c-12.335 64.406 25.714 105.751 84.987 92.347 12.335-64.406-25.715-105.751-84.987-92.347z" fill="#fcc515"/><path d="m114.511 159.835c-7.455 38.923 15.54 63.909 51.36 55.808 7.455-38.922-15.54-63.908-51.36-55.808z" fill="#fa0"/><path d="m414.302 141.566c12.335 64.406-25.714 105.751-84.987 92.347-12.335-64.406 25.715-105.751 84.987-92.347z" fill="#fa0"/><path d="m397.489 159.835c7.455 38.923-15.54 63.909-51.36 55.808-7.455-38.922 15.54-63.908 51.36-55.808z" fill="#ff9500"/><path d="m202.852 67.668h30v90h-30z" fill="#fcc515" transform="matrix(.985 -.174 .174 .985 -16.255 39.541)"/><path d="m279.148 67.668h30v90h-30z" fill="#fa0" transform="matrix(-.985 -.174 .174 -.985 564.263 274.703)"/><path d="m256 112.668-82.663 54.043c-4.154 6.196-8.242 13.318-11.915 21.56-6.909 15.502-18.187 40.806-12.186 68.693.663 3.079 5.759 14.267 15.951 36.644 10.436 22.912 13.055 27.026 20.235 43.975 6.247 14.746 11.021 26.795 14.118 34.771 3.105 8 6.281 15.278 9.58 23.196l46.88 62.704 15.666-205.531z" fill="#fcc515"/><path d="m256 112.668 82.663 54.043c4.154 6.196 8.242 13.318 11.915 21.56 6.909 15.502 18.187 40.806 12.186 68.693-.663 3.079-5.759 14.267-15.951 36.644-10.436 22.912-13.055 27.026-20.235 43.975-6.247 14.746-11.021 26.795-14.118 34.771-3.105 8-6.281 15.278-9.58 23.196l-46.88 62.704z" fill="#fa0"/><path d="m256 112.668c-13.543.143-26.254 3.528-37.566 9.657-9.631 5.218-15.706 11.111-22.359 17.638-6.034 5.92-14.514 14.48-22.738 26.748 4.723 8.337 10.383 18.882 16.32 31.276 11.848 24.736 23.488 49.036 30.118 80.792 3.692 17.683 7.421 45.297 3.765 80.281 2.129 2.365 13.822 14.877 32.461 15.319l15.666-140.244z" fill="#fa0"/><path d="m256 112.668c13.543.143 26.254 3.528 37.566 9.657 9.631 5.218 15.706 11.111 22.359 17.638 6.034 5.92 14.514 14.48 22.738 26.748-4.723 8.337-10.383 18.882-16.32 31.276-11.848 24.736-23.488 49.036-30.118 80.792-3.692 17.683-7.421 45.297-3.765 80.281-2.129 2.365-13.822 14.877-32.461 15.319v-261.711z" fill="#ff9500"/><path d="m256 344.874c-11.629.371-30.949 1.036-40.461 14.953-4.675 6.84-3.661 12.039-6.42 35.727 3.549 8.501 6.969 17.055 9.715 25.89 4.596 14.788 6.784 20.236 12.706 26.079 7.904 7.798 17.682 10.051 24.461 10.732l15.666-56.69z" fill="#ad6d68"/><ellipse cx="231.781" cy="373.092" fill="#c48174" rx="8.553" ry="17.105"/><path d="m256 344.874c11.629.371 30.949 1.036 40.461 14.953 4.675 6.84 3.661 12.039 6.42 35.727-3.549 8.501-6.969 17.055-9.715 25.89-4.596 14.788-6.784 20.236-12.706 26.079-7.904 7.798-17.682 10.051-24.461 10.732v-113.381z" fill="#99584d"/><ellipse cx="280.219" cy="373.092" fill="#ad6d68" rx="8.553" ry="17.105"/><circle cx="177.056" cy="252.723" fill="#555a65" r="15"/><circle cx="334.944" cy="252.723" fill="#333940" r="15"/></g></svg>