<svg id="Capa_1" enable-background="new 0 0 512 512" height="512" viewBox="0 0 512 512" width="512" xmlns="http://www.w3.org/2000/svg"><g><circle cx="256" cy="256" fill="#8cc7fc" r="256"/><path d="m317.193 238.584-103.288-103.288-127.157 127.158 35.67 35.669-27.541 27.541 185.201 185.201c130.091-12.138 231.922-121.601 231.922-254.865 0-8.354-.414-16.611-1.196-24.76l-93.133-93.133z" fill="#6cb1f8"/><path d="m256 167.335-85.373 47.796v60.968l-8.397 34.01 19.65 35.126 13.756 57.232 34.392 14.73 25.972 7.239 14.974-115.408z" fill="#e9edf5"/><path d="m256 167.335 85.373 47.796v60.968l8.397 34.01-19.65 35.126-13.756 57.232-34.392 14.73-25.972 7.239z" fill="#cdd2e1"/><path d="m256 167.335h-60.364l-25.009 47.796 59.401 62.176v139.89l25.972 11.123 14.974-153.19z" fill="#fff"/><path d="m256 167.335h60.364l25.009 47.796-59.401 62.176v139.89l-25.972 11.123z" fill="#e9edf5"/><path d="m170.627 215.131c7.953-1.391 24.288-5.367 40.115-18.259 12.997-10.587 19.936-22.53 23.335-29.537-3.035-8.354-11.732-28.664-32.915-42.31-26.944-17.358-58.323-13.778-77.006-6.632-50.824 19.44-79.049 92.561-62.145 152.17 17.644 62.221 78.122 87.375 86.954 90.884-16.794-35.29-23.802-65.937-27.02-87.445-3.606-24.103-7.55-52.712 7.369-63.496 5.073-3.667 14.419-6.785 24.318-4.79 8.95 1.804 14.694 7.05 16.995 9.415z" fill="#ad6d68"/><path d="m341.373 215.131c-7.953-1.391-24.288-5.367-40.115-18.259-12.997-10.587-19.936-22.53-23.335-29.537 3.035-8.354 11.732-28.664 32.915-42.31 26.944-17.358 58.323-13.778 77.006-6.632 50.824 19.44 79.049 92.561 62.145 152.17-17.644 62.221-78.122 87.375-86.954 90.884 16.794-35.29 23.802-65.937 27.02-87.445 3.606-24.103 7.55-52.712-7.369-63.496-5.073-3.667-14.419-6.785-24.318-4.79-8.95 1.804-14.694 7.05-16.995 9.415z" fill="#99584d"/><path d="m113.264 205.551 57.362 57.362c12.748-13.803 10.914-36.946-3.751-52.23-15.158-15.798-39.328-18.307-53.611-5.132z" fill="#e9edf5"/><path d="m113.264 205.551c-2.565 34.246 23.116 59.927 57.362 57.362 2.565-34.246-23.116-59.927-57.362-57.362z" fill="#fa0"/><path d="m398.736 205.551-57.362 57.362c-12.748-13.803-10.914-36.946 3.751-52.23 15.158-15.798 39.328-18.307 53.611-5.132z" fill="#cdd2e1"/><path d="m398.736 205.551c2.565 34.246-23.116 59.927-57.362 57.362-2.565-34.246 23.116-59.927 57.362-57.362z" fill="#ff9500"/><path d="m238.069 362.301 17.931 27.409 5.956-18.185-5.956-9.224z" fill="#555a65"/><path d="m273.931 362.301-17.931 27.409v-27.409z" fill="#333940"/><circle cx="202.874" cy="284.011" fill="#555a65" r="15"/><circle cx="309.126" cy="284.011" fill="#333940" r="15"/></g></svg>