<svg id="Capa_1" enable-background="new 0 0 512 512" height="512" viewBox="0 0 512 512" width="512" xmlns="http://www.w3.org/2000/svg"><g><circle cx="256" cy="256" fill="#36d987" r="256"/><path d="m280.45 212.694-100.512-100.511-4.297 4.297-20.153 20.153-20.153 20.153-4.297 4.297 79.168 79.168-90.92 90.92-16.875-16.875 8.953 46.551 151.074 151.074c138.41-3.42 249.562-116.689 249.562-255.921 0-17.642-1.786-34.867-5.184-51.505l-109.083-109.083z" fill="#3cc483"/><path d="m114.268 95.412c-.919 4.122-8.388 40.526 16.817 65.716 25.189 25.174 61.562 17.711 65.69 16.791.921-4.128 8.383-40.5-16.791-65.69-25.191-25.206-61.595-17.737-65.716-16.817z" fill="#c48174"/><path d="m397.732 95.412c.919 4.122 8.388 40.526-16.817 65.716-25.189 25.174-61.562 17.711-65.69 16.791-.921-4.128-8.383-40.5 16.791-65.69 25.191-25.206 61.595-17.737 65.716-16.817z" fill="#ad6d68"/><path d="m112.53 266.692c0 1.867.07 3.716.141 5.566-24.667 25.706-25.865 62.825-1.298 88.597.919-.328-2.296-7.154-1.037-15 .712-3.431 1.965-8.995 4.445-7.596 6.345 10.98.551 29.551 23.462 38.259 1.263-.427-6.416-20.51-2.041-26.316 4.002 18.38 12.861 28.307 17.699 32.805 1.603 1.49 3.295 2.861 5.072 4.148l97.027-23.066 38.358-108.9-38.358-125.426c-10.345 0-30.062-3.362-30.062-3.362-64.756 13.853-113.408 71.399-113.408 140.291z" fill="#ad6d68"/><path d="m399.47 266.692c0 1.867-.07 3.716-.141 5.566 24.667 25.706 25.865 62.825 1.298 88.597-.919-.328 2.296-7.154 1.037-15-.712-3.431-1.965-8.995-4.445-7.596-6.345 10.98-.551 29.551-23.462 38.259-1.263-.427 6.416-20.51 2.041-26.316-4.002 18.38-12.861 28.307-17.699 32.805-1.643 1.527-3.246 2.834-5.072 4.148l-97.027-23.008c0-96.622 0-137.761 0-234.383 10.313 0 30.062-3.362 30.062-3.362 64.801 13.818 113.408 71.366 113.408 140.29z" fill="#99584d"/><path d="m256 426.327h-26.527v-54.276h26.527l13.264 27.138z" fill="#fff"/><path d="m256 372.051h26.527v54.275h-26.527z" fill="#e9edf5"/><path d="m192.265 317.936c-26.071 17.983-35.607 42.781-33.293 69.219 23.62 17.122 61.945 16.266 97.028-4.457l17.479-125.92-17.479-133.556c-10.314 0-20.365 1.111-30.062 3.18 16.492 47.025 18.149 144.061-33.673 191.534z" fill="#fa0"/><path d="m319.735 317.936c26.071 17.983 35.607 42.781 33.293 69.219-23.62 17.122-61.945 16.266-97.028-4.457 0-96.622 0-162.855 0-259.477 10.314 0 20.365 1.111 30.062 3.18-16.492 47.026-18.149 144.062 33.673 191.535z" fill="#ff9500"/><circle cx="196.513" cy="249.609" fill="#555a65" r="15"/><circle cx="315.487" cy="249.609" fill="#333940" r="15"/><path d="m212.997 348.54 43.003 34.161 14.924-21.659-14.924-12.502z" fill="#555a65"/><path d="m299.003 348.54-43.003 34.161v-34.161z" fill="#333940"/></g></svg>