<svg id="Capa_1" enable-background="new 0 0 512 512" height="512" viewBox="0 0 512 512" width="512" xmlns="http://www.w3.org/2000/svg"><g><circle cx="256" cy="256" fill="#fca0b2" r="256"/><path d="m512 256c0-7.243-.317-14.41-.907-21.501l-135.499-135.499-95.397 95.397-103.02-103.02-29.811 29.811 127.718 127.718-146.32 146.32 116.536 116.535c3.55.146 7.114.239 10.7.239 141.385 0 256-114.615 256-256z" fill="#fb7a94"/><path d="m211.915 442.289h-21.83c-7.779 0-14.085-6.306-14.085-14.085v-35.915h50v35.915c0 7.779-6.306 14.085-14.085 14.085z" fill="#fff"/><path d="m321.915 442.289h-21.83c-7.779 0-14.085-6.306-14.085-14.085v-35.915h50v35.915c0 7.779-6.306 14.085-14.085 14.085z" fill="#e9edf5"/><path d="m256 98.242c-25.526 0-49.155 8.117-68.452 21.907l-6.017-22.273c-4.528-10.984-17.694-15.465-27.983-9.525l-13.1 7.563c-10.289 5.94-12.991 19.583-5.743 28.996l24.23 24.329c-13.115 19-20.801 42.035-20.801 66.869v117.865h117.866l16.709-121.263z" fill="#cdd2e1"/><path d="m371.551 95.914-13.1-7.563c-10.289-5.94-23.454-1.459-27.983 9.525l-6.017 22.273c-19.297-13.79-42.926-21.907-68.452-21.907v235.731h117.865v-117.866c0-24.833-7.687-47.868-20.801-66.869l24.23-24.329c7.249-9.412 4.547-23.055-5.742-28.995z" fill="#b8bcc9"/><path d="m162.132 134.589 14.069-8.123-4.869-18.024c-2.164-5.248-8.455-7.39-13.371-4.551l-6.26 3.614c-4.916 2.838-6.207 9.358-2.744 13.856z" fill="#fca0b2"/><path d="m349.932 134.589-14.069-8.123 4.869-18.024c2.164-5.248 8.455-7.39 13.371-4.551l6.26 3.614c4.916 2.838 6.207 9.358 2.744 13.856z" fill="#fb7a94"/><circle cx="204.221" cy="219.412" fill="#555a65" r="15"/><circle cx="307.779" cy="219.412" fill="#333940" r="15"/><path d="m158.551 277.649c-23.5 0-42.551 19.459-42.551 43.463v43.075c0 24.004 19.051 43.463 42.551 43.463h97.449l21.487-65-21.487-65h-97.449z" fill="#e9edf5"/><path d="m396 364.186v-43.075c0-24.004-19.051-43.463-42.551-43.463h-97.449v130h97.449c23.5.001 42.551-19.458 42.551-43.462z" fill="#cdd2e1"/><circle cx="181.194" cy="342.649" fill="#cdd2e1" r="17.5"/><circle cx="330.806" cy="342.649" fill="#b8bcc9" r="17.5"/></g></svg>