<svg id="Capa_1" enable-background="new 0 0 512 512" height="512" viewBox="0 0 512 512" width="512" xmlns="http://www.w3.org/2000/svg"><g><circle cx="256" cy="256" fill="#fcc515" r="256"/><path d="m289.497 509.818c125.555-16.41 222.503-123.788 222.503-253.818 0-4.263-.11-8.501-.316-12.713l-183.276-183.277-.5 34.852 18.038 18.038-54.727 54.727-107.625-107.625-3.474 31.878 24.708 24.708-27.624 27.624 116.651 116.651-50.998 50.998 54.425 54.425-75.658 75.658z" fill="#fa0"/><path d="m197.706 157.118c-6.775-2.552-19.699-8.673-27.64-22.086-12.51-21.129-7.536-51.713 13.527-75.032.403 5.409 1.842 13.561 7.395 20.742 6.975 9.02 14.876 9.311 22.546 16.714 4.989 4.816 10.838 13.564 12.044 30.628-9.213 9.629-18.661 19.404-27.872 29.034z" fill="#c48174"/><path d="m314.294 157.118c6.775-2.552 19.699-8.673 27.64-22.086 12.509-21.129 7.535-51.713-13.527-75.032-.403 5.409-1.842 13.561-7.395 20.742-6.975 9.02-14.876 9.311-22.546 16.714-4.989 4.816-10.838 13.564-12.044 30.628 9.213 9.629 18.661 19.404 27.872 29.034z" fill="#ad6d68"/><path d="m256 108.559-71.566 63.409c-1.84 3.964-4.353 8.558-7.951 14.04-7.342 11.188-15.304 20.195-12.687 30.416 1.493 5.83 3.456 5.864 6.494 15.938 2.495 8.271 2.588 14.651 2.797 19.397.464 10.532 2.527 32.713 9.648 54.012 1.96 5.862 5.289 14.274 11.108 23.947 3.098 4.552 7.087 11.675 8.732 20.964 2.321 13.098-2.351 15.595-2.419 30.662l55.844 70.656 17.328-194.508z" fill="#ad6d68"/><path d="m256 108.559 71.566 63.409c1.84 3.964 4.353 8.558 7.951 14.04 7.342 11.188 15.304 20.195 12.687 30.416-1.493 5.83-3.456 5.864-6.494 15.938-2.495 8.271-2.588 14.651-2.797 19.397-.464 10.532-2.527 32.713-9.648 54.012-1.96 5.862-5.289 14.274-11.108 23.947-3.098 4.552-7.087 11.675-8.732 20.964-2.321 13.098 2.351 15.595 2.419 30.662l-55.844 70.656z" fill="#99584d"/><path d="m256 108.559-40.323 13.117c-9.206 6.677-15.035 13.793-16.588 15.753-10.452 13.186-7.601 19.329-14.655 34.539 13.361 10.865 20.579 30.478 29.565 54.922 4.949 13.463 10.136 27.841 12.746 48.097 1.732 13.445 4.518 36.886-3.366 65.067-3.082 11.016-6.958 19.769-9.95 25.736l42.571 21.024 10.907-129.322z" fill="#fff"/><path d="m256 108.559 38.166 11.607c10.535 7.102 17.067 15.146 18.745 17.263 10.452 13.186 7.601 19.329 14.655 34.539-13.361 10.865-20.579 30.478-29.565 54.922-4.949 13.463-10.136 27.841-12.746 48.097-1.732 13.445-4.518 36.886 3.366 65.067 3.082 11.016 6.958 19.769 9.95 25.736l-42.571 21.024z" fill="#e9edf5"/><path d="m256 367.033c-.959.012-1.958-.028-3.042-.18-8.994-1.255-10.575-6.851-20.922-7.215-1.971-.069-10.473-.368-17.075 5.05-3.995 3.279-3.61 5.628-7.455 10.341-2.492 3.054-5.016 4.957-7.349 6.312-.038.376-.075.754-.106 1.143-1.129 14.306 3.936 25.427 11.303 41.604 5.014 11.011 7.65 16.604 13.948 20.922 6.123 4.198 12.559 4.963 25.431 6.493 1.872.223 3.619.38 5.266.495l10.907-51.478z" fill="#c48174"/><path d="m256 367.033c.959.012 1.958-.028 3.042-.18 8.994-1.255 10.575-6.851 20.922-7.215 1.971-.069 10.473-.368 17.075 5.05 3.995 3.279 3.61 5.628 7.455 10.341 2.492 3.054 5.016 4.957 7.349 6.312.038.376.075.754.106 1.143 1.129 14.306-3.936 25.427-11.303 41.604-5.014 11.011-7.65 16.604-13.948 20.922-6.123 4.198-12.559 4.963-25.431 6.493-1.872.223-3.619.38-5.266.495v-84.965z" fill="#ad6d68"/><path d="m218.426 400.286 3.487 6.039c2.48 4.295 7.972 5.767 12.267 3.287 4.295-2.48 5.767-7.972 3.287-12.267l-3.487-6.039c-2.48-4.295-7.972-5.767-12.267-3.287-4.295 2.479-5.766 7.972-3.287 12.267z" fill="#ad6d68"/><path d="m293.573 400.286-3.487 6.039c-2.48 4.295-7.972 5.767-12.267 3.287-4.295-2.48-5.767-7.972-3.287-12.267l3.487-6.039c2.48-4.295 7.972-5.767 12.267-3.287 4.296 2.479 5.767 7.972 3.287 12.267z" fill="#99584d"/><circle cx="196.868" cy="239.218" fill="#555a65" r="15"/><circle cx="315.132" cy="239.218" fill="#333940" r="15"/><path d="m250.734 108.571c-14.314.717-26.241 6.715-35.057 13.106-3.235 6.801-4.556 12.843-5.164 15.632-2.232 10.242-1.37 18.345-.361 27.055 2.778 23.967 9.792 28.327 12.084 45.993 1.012 7.797 1.332 19.147-2.356 33.484 7.194-2.184 17.964-6.614 26.525-16.349 4.206-4.783 7.276-10.161 9.595-15.203l17.328-58.025-17.328-45.705c-1.722-.076-3.476-.078-5.266.012z" fill="#c48174"/><path d="m263.9 193.583c2.157.468 1.845 10.718 1.804 12.085-.285 9.387-3.038 14.499-2.164 14.97 1.573.848 14.027-13.826 22.726-34.45 3.933-9.325 12.739-30.938 9.018-58.258-.372-2.73-.726-5.314-1.118-7.764-8.568-5.798-19.721-10.936-32.9-11.596-1.791-.09-3.544-.088-5.266-.012v103.729c4.7-10.219 6.298-19.052 7.9-18.704z" fill="#ad6d68"/></g></svg>