<svg id="Capa_1" enable-background="new 0 0 512 512" height="512" viewBox="0 0 512 512" width="512" xmlns="http://www.w3.org/2000/svg"><g><circle cx="256" cy="256" fill="#36d987" r="256"/><path d="m287.344 245.89-85.973-85.973-37.4 37.4-.135-.135-25.288 25.288 114.543 114.543-72.409 72.409 32.731 32.731-1.691 1.691 67.129 67.129c130.678-11.562 233.149-121.291 233.149-254.973 0-17.536-1.768-34.659-5.127-51.205l-89.217-89.217z" fill="#3cc483"/><path d="m94.343 115.577c-.29 6.172-1.838 60.87 44.457 107.146 46.265 46.246 100.916 44.7 107.098 44.409.29-6.182 1.837-60.832-44.409-107.098-46.276-46.294-100.974-44.747-107.146-44.457z" fill="#c48174"/><path d="m417.657 115.577c.29 6.172 1.838 60.87-44.457 107.146-46.265 46.246-100.916 44.7-107.098 44.409-.29-6.182-1.837-60.832 44.409-107.098 46.276-46.294 100.974-44.747 107.146-44.457z" fill="#ad6d68"/><path d="m198.042 215.526c-8.018 4.664-23.025 13.393-27.371 29.125-.129.467-.483 7.546-1.186 21.685-.772 15.524-1.065 22.01-2.674 31.302-1.21 6.985-2.453 11.51-2.945 13.196-2.226 7.616-4.791 13.085-6.529 17.333-8.189 20.008-.192 57.134 22.809 80.709 26.038 26.687 63.241 25.863 75.855 25.569l20.765-127.484-20.766-104.418c-17.755.532-37.463 1.061-57.958 12.983z" fill="#ad6d68"/><path d="m331.855 408.877c23.001-23.575 30.998-60.701 22.809-80.709-1.738-4.247-4.304-9.717-6.529-17.333-.493-1.686-1.736-6.211-2.945-13.196-1.609-9.292-1.902-15.777-2.674-31.302-.703-14.139-1.057-21.218-1.186-21.685-4.346-15.732-19.353-24.461-27.371-29.125-20.496-11.922-40.203-12.451-57.958-12.984v231.903c12.613.294 49.816 1.118 75.854-25.569z" fill="#99584d"/><path d="m256 258.337c-3.993 0-32.556.491-52.87 24.564 4.202 1.386 16.874 6.165 24.856 19.183 7.727 12.603 6.516 25.334 5.615 32.751-.865 7.122-2.696 22.192-13.649 34.317-6.479 7.172-13.547 10.555-17.034 20.739-1.481 4.325-1.652 8.181-1.601 10.593v18.189c0 19.687 15.959 35.646 35.646 35.646h19.037l14.412-120.52z" fill="#c48174"/><path d="m256 258.337c3.993 0 32.556.491 52.87 24.564-4.202 1.386-16.874 6.165-24.856 19.183-7.727 12.603-6.516 25.334-5.615 32.751.865 7.122 2.696 22.192 13.649 34.317 6.479 7.172 13.547 10.555 17.034 20.739 1.481 4.325 1.652 8.181 1.601 10.593v18.189c0 19.687-15.959 35.646-35.646 35.646h-19.037z" fill="#ad6d68"/><path d="m256 394.84h-20.834c-6.19 0-11.208 5.018-11.208 11.208 0 16.507 13.382 29.888 29.888 29.888.725 0 1.442-.035 2.154-.086l7.466-20.463z" fill="#555a65"/><path d="m256 394.84h20.834c6.19 0 11.208 5.018 11.208 11.208 0 16.507-13.382 29.888-29.888 29.888-.725 0-1.442-.035-2.154-.086z" fill="#333940"/><circle cx="209.47" cy="320.381" fill="#555a65" r="15"/><circle cx="302.53" cy="320.381" fill="#333940" r="15"/></g></svg>