<svg id="Capa_1" enable-background="new 0 0 512 512" height="512" viewBox="0 0 512 512" width="512" xmlns="http://www.w3.org/2000/svg"><g><circle cx="256" cy="256" fill="#ad6d68" r="256"/><path d="m512 256c0-12.002-.845-23.805-2.443-35.367l-96.082-96.082-107.063 107.062-118.832-118.832-57.4 57.4 8.375 8.375-55 55 98.898 98.898-56.506 56.506 122.936 122.936c2.365.065 4.737.103 7.117.103 141.385.001 256-114.614 256-255.999z" fill="#99584d"/><ellipse cx="135.668" cy="173.27" fill="#cdd2e1" rx="80" ry="60" transform="matrix(.574 -.819 .819 .574 -84.082 185.019)"/><ellipse cx="135.668" cy="173.27" fill="#e9edf5" rx="40" ry="30" transform="matrix(.574 -.819 .819 .574 -84.082 185.019)"/><ellipse cx="376.332" cy="173.27" fill="#b8bcc9" rx="60" ry="80" transform="matrix(.819 -.574 .574 .819 -31.325 247.191)"/><ellipse cx="376.332" cy="173.27" fill="#cdd2e1" rx="30" ry="40" transform="matrix(.819 -.574 .574 .819 -31.325 247.191)"/><path d="m195.823 151.304c-37.913 17.612-65.84 63.751-69.707 70.27-14.424 24.319-35.344 59.589-29.052 105.123.902 6.525 3.792 26.257 15.358 45.093 38.839 63.256 138.642 57.016 143.578 56.641l15.361-145.159-15.361-145.491c-6.924.043-15.818.593-25.982 2.516 0 0-17.712 3.35-34.195 11.007z" fill="#cdd2e1"/><path d="m316.177 151.304c37.913 17.612 65.84 63.751 69.707 70.27 14.424 24.319 35.344 59.589 29.052 105.123-.902 6.525-3.792 26.257-15.358 45.093-38.839 63.257-138.642 57.017-143.578 56.642v-290.651c6.924.043 15.818.593 25.982 2.516 0 0 17.712 3.35 34.195 11.007z" fill="#b8bcc9"/><path d="m256 270.865h-15.863c-12.852 0-23.271 20.465-23.271 45.711v20.389c0 25.245 10.419 45.711 23.271 45.711h15.863l15.361-55.905z" fill="#555a65"/><path d="m256 270.865h15.863c12.852 0 23.271 20.465 23.271 45.711v20.389c0 25.245-10.419 45.711-23.271 45.711h-15.863z" fill="#333940"/><circle cx="328.019" cy="274.252" fill="#333940" r="15"/><circle cx="180.654" cy="274.252" fill="#555a65" r="15"/></g></svg>