<svg id="Capa_1" enable-background="new 0 0 512 512" height="512" viewBox="0 0 512 512" width="512" xmlns="http://www.w3.org/2000/svg"><g><circle cx="256" cy="256" fill="#36d987" r="256"/><path d="m320.262 70.9-53.816 53.816-62.42-62.419-7.982 7.982 131.501 131.501-203.772 203.773 105.005 105.006c8.946.945 18.026 1.441 27.222 1.441 139.193 0 252.439-111.089 255.917-249.445z" fill="#3cc483"/><path d="m207.588 61.173h15v60h-15z" fill="#333940" transform="matrix(.819 -.574 .574 .819 -13.396 139.858)"/><path d="m289.412 61.173h15v60h-15z" fill="#101214" transform="matrix(-.819 -.574 .574 -.819 487.834 336.159)"/><path d="m206 143.14c0 27.614 22.386 50 50 50l17.706-50-17.706-50c-27.614 0-50 22.386-50 50z" fill="#555a65"/><path d="m306 143.14c0-27.614-22.386-50-50-50v100c27.614 0 50-22.386 50-50z" fill="#333940"/><path d="m116 291.862c0 77.32 62.68 140 140 140l27.034-140-27.034-140c-77.32 0-140 62.681-140 140z" fill="#333940"/><path d="m396 291.862c0-77.32-62.68-140-140-140v280c77.32 0 140-62.68 140-140z" fill="#101214"/><path d="m82.232 273.536c-14.385 81.584 40.09 159.383 121.674 173.768l52.094-295.442c-81.584-14.386-159.383 40.09-173.768 121.674z" fill="#ff6c52"/><path d="m429.768 273.536c14.385 81.584-40.09 159.383-121.674 173.768l-52.094-295.442c81.584-14.386 159.383 40.09 173.768 121.674z" fill="#ff432e"/><circle cx="136.459" cy="280.621" fill="#555a65" r="25"/><circle cx="201.281" cy="215.516" fill="#555a65" r="20"/><circle cx="169.731" cy="371.922" fill="#555a65" r="22.5"/><g fill="#333940"><circle cx="375.541" cy="280.621" r="25"/><circle cx="310.719" cy="215.516" r="20"/><circle cx="342.269" cy="371.922" r="22.5"/></g></g></svg>