<svg id="Capa_1" enable-background="new 0 0 512 512" height="512" viewBox="0 0 512 512" width="512" xmlns="http://www.w3.org/2000/svg"><g><circle cx="256" cy="256" fill="#fca0b2" r="256"/><path d="m393.169 203.349-37.559-37.559-136.086 136.087-84.684-84.684-59.214 59.214 87.104 87.104-10.87 10.87 135.684 135.684c126.5-15.545 224.456-123.361 224.456-254.065 0-18.292-1.934-36.13-5.58-53.335l-56.283-56.283z" fill="#fb7a94"/><path d="m61.864 146.38 57.286 157.392c36.669-14.985 54.048-60.117 39.961-101.521-14.561-42.795-58.228-68.351-97.247-55.871z" fill="#fff"/><path d="m61.864 146.38c-35.75 62.233-10.102 132.699 57.286 157.392 35.75-62.233 10.102-132.699-57.286-157.392z" fill="#555a65"/><path d="m450.136 146.38-57.286 157.392c-36.669-14.985-54.048-60.117-39.961-101.521 14.561-42.795 58.228-68.351 97.247-55.871z" fill="#e9edf5"/><path d="m450.136 146.38c35.75 62.233 10.102 132.699-57.286 157.392-35.75-62.233-10.102-132.699 57.286-157.392z" fill="#333940"/><path d="m256 136.088-88.869 25.894-36.214 54.218c.153 10.677-.531 26.355-4.907 44.613-4.234 17.665-8.152 21.999-10.261 31.229-9.245 40.459 37.131 83.583 40.999 87.046 35.836 32.08 79.314 34.925 95.679 34.931 1.075 0 2.274-.014 3.573-.047l14.22-149.995z" fill="#fff"/><path d="m256 136.088 88.869 25.894 36.214 54.219c-.153 10.677.531 26.355 4.907 44.613 4.234 17.665 8.152 21.999 10.261 31.229 9.245 40.459-37.131 83.583-40.999 87.046-35.836 32.08-79.314 34.925-95.679 34.931-1.075 0-2.274-.014-3.573-.047z" fill="#e9edf5"/><path d="m191.144 183.187c39.492-1.594 62.796 28.064 64.856 30.783l14.22-46.843-14.22-31.039c-1.228-.039-2.43-.074-3.573-.104-26.809.688-78.185 3.41-103.665 38.726-13.359 18.516-17.845 41.49-17.845 41.49 2.312-3.292 22.867-31.506 60.227-33.013z" fill="#555a65"/><path d="m320.856 183.187c-39.492-1.594-62.796 28.064-64.856 30.783v-77.882c1.228-.039 2.43-.074 3.573-.104 26.809.688 78.185 3.41 103.665 38.726 13.359 18.516 17.845 41.49 17.845 41.49-2.312-3.292-22.867-31.506-60.227-33.013z" fill="#333940"/><path d="m256 280.152-1.205 1.808c-9.308 13.963-22.278 24.936-37.177 32.658-12.843 6.658-21.618 20.072-21.618 35.536 0 22.091 17.909 40 40 40h20l15-47.296z" fill="#555a65"/><path d="m256 280.152 1.205 1.808c9.308 13.963 22.278 24.936 37.177 32.658 12.843 6.658 21.618 20.072 21.618 35.536 0 22.091-17.909 40-40 40h-20z" fill="#333940"/><path d="m226 326.851 30 35 6.647-20.58-6.647-14.42z" fill="#333940"/><path d="m286 326.851-30 35v-35z" fill="#101214"/><path d="m231.207 263.356c-1.943 14.657-13.072 33.862-31.961 36.979-18.638 3.076-35.122-11.114-41.769-23.978-11.063-21.412-2.077-53.097 24.912-74.289 32.702 10.542 51.986 37.379 48.818 61.288z" fill="#555a65"/><circle cx="192.2" cy="255.872" fill="#fcc515" r="20"/><circle cx="192.2" cy="255.872" fill="#555a65" r="7.5"/><path d="m280.793 263.356c1.943 14.657 13.072 33.862 31.961 36.979 18.638 3.076 35.122-11.114 41.769-23.978 11.063-21.412 2.077-53.097-24.912-74.289-32.702 10.542-51.986 37.379-48.818 61.288z" fill="#333940"/><circle cx="319.8" cy="255.872" fill="#fcc515" r="20"/><circle cx="319.8" cy="255.872" fill="#333940" r="7.5"/></g></svg>