<svg id="Capa_1" enable-background="new 0 0 512 512" height="512" viewBox="0 0 512 512" width="512" xmlns="http://www.w3.org/2000/svg"><g><circle cx="256" cy="256" fill="#36d987" r="256"/><path d="m380.301 131.775-16.977-16.977-112.603 112.603-111.1-111.1-25.809 25.809 4.233 4.233-16.524 16.524 71.741 71.741-69.553 69.553 68.566 68.566-11.75 11.75 125.735 125.735c127.12-14.972 225.74-123.067 225.74-254.212 0-16.962-1.666-33.532-4.814-49.572l-100.769-100.769z" fill="#3cc483"/><path d="m256 70.557c-44.685 0-84.875 19.245-112.735 49.898-7.425-9.781-20.057-16.617-34.847-17.421-16.829 14.497-21.558 36.527-12.976 51.87 3.535 6.32 9.905 12.523 17.372 15.955-5.893 16.225-9.111 33.733-9.111 51.993v81.317c2.24.695 6.777 1.745 12.129.413 9.862-2.455 14.367-10.977 15.092-12.404-1.596 9.656-3.383 28.617 3.859 50.582 8.959 27.171 26.523 43.134 34.181 49.341-.541-3.084-1.693-12.059 3.308-21.225 2.686-4.923 6.166-8.102 8.545-9.923 1.445 10.718 6.633 38.265 29.182 63.001 16.907 18.547 35.827 27.015 46.002 30.72l25.601-202.498z" fill="#ad6d68"/><path d="m403.582 103.034c-14.791.803-27.422 7.64-34.847 17.421-27.859-30.653-68.05-49.898-112.735-49.898v384.118c10.174-3.705 29.095-12.173 46.002-30.72 22.549-24.736 27.736-52.283 29.182-63.001 2.379 1.821 5.859 5 8.545 9.923 5.001 9.166 3.849 18.141 3.307 21.225 7.658-6.208 25.222-22.17 34.181-49.341 7.242-21.964 5.455-40.926 3.859-50.582.725 1.427 5.23 9.95 15.092 12.404 5.352 1.332 9.888.282 12.129-.413 0-27.106 0-54.211 0-81.317 0-18.261-3.218-35.769-9.111-51.993 7.468-3.432 13.837-9.635 17.372-15.955 8.582-15.343 3.853-37.373-12.976-51.871z" fill="#99584d"/><path d="m256 155.595h-49.549c-28.461 0-52.08 21.394-51.536 47.774.223 10.828 4.408 20.757 11.267 28.592.139.159.278.318.416.477 20.043 23.065 30.827 52.743 30.827 83.3v8.554c0 31.632 25.077 57.392 56.432 58.521.435.018.873.026 1.311.033.278.004.553.021.832.021l19.64-128.809z" fill="#fa0"/><path d="m256 155.595h49.549c28.461 0 52.08 21.394 51.536 47.774-.223 10.828-4.408 20.757-11.267 28.592-.139.159-.278.318-.416.477-20.043 23.065-30.827 52.743-30.827 83.3v8.554c0 31.632-25.077 57.392-56.432 58.521-.435.018-.873.026-1.311.033-.278.004-.553.021-.832.021z" fill="#ff9500"/><path d="m227.574 291.761h17.573v24.395h-17.573z" fill="#555a65" transform="matrix(.94 -.342 .342 .94 -89.706 99.171)"/><path d="m263.443 295.172h24.395v17.573h-24.395z" fill="#333940" transform="matrix(.342 -.94 .94 .342 -104.262 459.016)"/><circle cx="211.898" cy="204.042" fill="#555a65" r="15"/><circle cx="300.102" cy="204.042" fill="#333940" r="15"/></g></svg>