<svg id="Capa_1" enable-background="new 0 0 512 512" height="512" viewBox="0 0 512 512" width="512" xmlns="http://www.w3.org/2000/svg"><g><circle cx="256" cy="256" fill="#ad6d68" r="256"/><path d="m218.552 269.963 84.999 84.999-77.983 77.983 75.155 75.155c120.061-21.154 211.277-125.972 211.277-252.1 0-7.428-.335-14.776-.955-22.043l-128.244-128.244z" fill="#99584d"/><path d="m108.428 150.611c-2.811 84.29 46.38 169.15 147.572 233.474l40.529-178.731-40.529-139.06c-72.848 0-145.697 28.106-147.572 84.317z" fill="#cdd2e1"/><path d="m403.572 150.611c-1.874-56.211-74.723-84.317-147.572-84.317v317.79c101.193-64.323 150.383-149.183 147.572-233.473z" fill="#b8bcc9"/><path d="m256 200.749c-27.163 1.231-35.458 19.731-58.985 28.669-29.173 11.082-48.219-5.283-55.044 4.587-7.803 11.286 19.197 29.654 37.842 73.391 18.713 43.896 17.909 87.301 37.842 115.82 3.882 5.555 13.245 18.563 28.752 21.736 1.39.284 5.07 1.056 9.592.626l40.529-130.108z" fill="#555a65"/><path d="m256 200.749c27.163 1.231 35.458 19.731 58.985 28.669 29.173 11.082 48.22-5.283 55.044 4.587 7.803 11.286-19.197 29.654-37.842 73.391-18.713 43.896-17.909 87.301-37.842 115.82-3.882 5.555-13.245 18.563-28.752 21.736-1.39.284-5.07 1.056-9.592.626v-244.829z" fill="#333940"/><path d="m222.696 278.556v6.992c0 4.973 3.358 9.004 7.5 9.004 4.142 0 7.5-4.031 7.5-9.004v-6.992c0-4.973-3.358-9.004-7.5-9.004-4.143 0-7.5 4.031-7.5 9.004z" fill="#333940"/><path d="m289.304 278.556v6.992c0 4.973-3.358 9.004-7.5 9.004-4.142 0-7.5-4.031-7.5-9.004v-6.992c0-4.973 3.358-9.004 7.5-9.004 4.143 0 7.5 4.031 7.5 9.004z" fill="#101214"/><path d="m160.113 198.739c-18.717-5.521-28.918-26.12-21.544-44.271l64.337 23.417c-5.799 17.746-25.235 27.285-42.793 20.854z" fill="#555a65"/><path d="m351.887 198.739c18.717-5.521 28.918-26.12 21.544-44.271l-64.337 23.417c5.799 17.746 25.235 27.285 42.793 20.854z" fill="#333940"/></g></svg>