<svg id="Capa_1" enable-background="new 0 0 512 512" height="512" viewBox="0 0 512 512" width="512" xmlns="http://www.w3.org/2000/svg"><g><circle cx="256" cy="256" fill="#fcc515" r="256"/><path d="m417.777 140.979-150.913 150.914-123.059-123.059-32.591 32.591 68.594 68.594-81.484 81.484 160.461 160.461c140.1-1.495 253.215-115.51 253.215-255.964 0-21.764-2.725-42.889-7.836-63.064l-74.931-74.931z" fill="#fa0"/><path d="m149.875 183.411-51.551 168.092 157.676 87.086 25-141.338-25-150.756c-61.292 0-99.538 30.129-106.125 36.916z" fill="#ad6d68"/><path d="m362.125 183.411c-6.587-6.787-44.833-36.916-106.125-36.916v292.094l157.676-87.086z" fill="#99584d"/><path d="m256 259.27h-40.903v23.304l40.903 52.658 13-44.477z" fill="#fa0"/><path d="m256 259.27h40.903v23.304l-40.903 52.658z" fill="#ff9500"/><circle cx="184.999" cy="273.225" fill="#fff" r="40.903"/><circle cx="184.999" cy="273.225" fill="#555a65" r="15"/><circle cx="327.001" cy="273.225" fill="#fff" r="40.903"/><circle cx="327.001" cy="273.225" fill="#333940" r="15"/><path d="m256 137.799c-11.28 0-17.224 1.38-47.434 7.424-36.325 7.268-54.577 10.899-58.982 10.724-16.549-.656-39.595-7.898-66.819-37.947 1.221 48.448 16.647 72.606 30.842 85.735 21.941 20.294 44.486 17.519 82.586 39.655 27.328 15.877 48.167 34.952 59.807 48.671l25-87.03z" fill="#c48174"/><path d="m256 137.799c11.28 0 17.224 1.38 47.434 7.424 36.325 7.268 54.577 10.899 58.982 10.724 16.549-.656 39.595-7.898 66.819-37.947-1.221 48.448-16.647 72.606-30.842 85.735-21.941 20.294-44.486 17.519-82.586 39.655-27.328 15.877-48.167 34.952-59.807 48.671z" fill="#ad6d68"/></g></svg>