<svg id="Capa_1" enable-background="new 0 0 512 512" height="512" viewBox="0 0 512 512" width="512" xmlns="http://www.w3.org/2000/svg"><g><circle cx="256" cy="256" fill="#fcc515" r="256"/><path d="m512 256c0-14.466-1.219-28.644-3.524-42.455l-110.755-110.754-108.176 108.176-108.171-108.171-22.165 22.165-22.845 22.845-22.165 22.165 105.601 105.601-109.325 109.324 126.393 126.393c6.317.467 12.696.711 19.132.711 141.385 0 256-114.615 256-256z" fill="#fa0"/><circle cx="147.824" cy="136.421" fill="#555a65" r="47.5"/><circle cx="364.176" cy="136.421" fill="#333940" r="47.5"/><path d="m189.661 118.393c-30.012 17.661-52.363 47.195-70.028 82.006-10.079 19.863-18.638 41.438-26.22 63.506-36.701 106.815 32.012 165.382 162.587 163.11l17.5-163.071-17.5-163.135c-25.627.086-47.493 6.494-66.339 17.584z" fill="#fff"/><path d="m322.339 118.393c30.012 17.661 52.363 47.195 70.028 82.006 10.079 19.863 18.638 41.438 26.22 63.506 36.701 106.815-32.012 165.382-162.587 163.11v-326.206c25.627.086 47.493 6.494 66.339 17.584z" fill="#e9edf5"/><path d="m221 325.19c0 11.046 15.67 25 35 25l17.5-22.5-17.5-22.5c-19.33 0-35 8.954-35 20z" fill="#555a65"/><path d="m291 325.19c0 11.046-15.67 25-35 25v-45c19.33 0 35 8.954 35 20z" fill="#333940"/><path d="m209.716 233.878c-18.189-14.259-49.778-4.082-70.554 22.732-20.777 26.814-22.874 60.11-4.685 74.37 18.189 14.259 49.777 4.082 70.554-22.732s22.874-60.111 4.685-74.37zm-20.051 41.213c-8.284 0-15-6.716-15-15s6.716-15 15-15 15 6.716 15 15-6.716 15-15 15z" fill="#555a65"/><path d="m372.839 256.61c-20.777-26.814-52.365-36.991-70.554-22.732s-16.092 47.556 4.685 74.37 52.365 36.991 70.554 22.732c18.189-14.26 16.091-47.556-4.685-74.37zm-50.504 18.481c-8.284 0-15-6.716-15-15s6.716-15 15-15 15 6.716 15 15-6.716 15-15 15z" fill="#333940"/></g></svg>