<svg id="Capa_1" enable-background="new 0 0 512 512" height="512" viewBox="0 0 512 512" width="512" xmlns="http://www.w3.org/2000/svg"><g><circle cx="256" cy="256" fill="#fcc515" r="256"/><path d="m266.208 511.78c128.349-5.035 232.418-104.549 244.589-230.941l-137.959-137.96-88.107 88.107-12.17-12.17-149.658 149.659z" fill="#fa0"/><path d="m81 271.225c0 82.719 78.35 149.775 175 149.775l25.18-149.409-25.18-180.591c-96.65 0-175 97.507-175 180.225z" fill="#555a65"/><path d="m431 271.225c0 82.719-78.35 149.775-175 149.775v-330c96.65 0 175 97.507 175 180.225z" fill="#333940"/><path d="m256 281.042c-3.293 0-6.558.07-9.788.206-1.254-43.364-26.94-77.985-58.447-77.985-32.309 0-58.5 36.402-58.5 81.306v27.562c0 38.649 56.741 108.869 126.735 108.869l28.058-86.706z" fill="#fff"/><path d="m256 281.042c3.293 0 6.558.07 9.788.206 1.254-43.364 26.94-77.985 58.447-77.985 32.309 0 58.5 36.402 58.5 81.306v27.562c0 38.649-56.741 108.869-126.735 108.869z" fill="#e9edf5"/><path d="m256 269.203-30 24.482 30 40.518 10.378-37.149z" fill="#fa0"/><path d="m256 269.203 30 24.482-30 40.518z" fill="#ff9500"/><circle cx="187.176" cy="261.068" fill="#555a65" r="15"/><circle cx="324.824" cy="261.068" fill="#333940" r="15"/></g></svg>