<svg id="Capa_1" enable-background="new 0 0 512 512" height="512" viewBox="0 0 512 512" width="512" xmlns="http://www.w3.org/2000/svg"><g><circle cx="256" cy="256" fill="#8cc7fc" r="256"/><path d="m300.813 262.097-132.48-132.48-22.494 22.493-.958-.959-39.546 39.547 103.175 103.176-80.301 80.301 137.619 137.619c136.828-5.168 246.172-117.702 246.172-255.794 0-12.59-.925-24.963-2.681-37.067l-82.671-82.671z" fill="#6cb1f8"/><path d="m85.353 136.261c3.854 66.259 50.133 87.839 103.368 48.201-3.854-66.258-50.133-87.839-103.368-48.201z" fill="#fca0b2"/><path d="m426.647 136.261c-3.854 66.259-50.134 87.839-103.368 48.201 3.854-66.258 50.133-87.839 103.368-48.201z" fill="#fb7a94"/><path d="m256 122.357c-84.216 0-152.487 62.314-152.487 139.183v54.154c0 42.312 33.341 78.628 79.049 85.679 21.995 3.393 46.616 5.627 73.438 5.627l21.946-138.642z" fill="#fdc5ce"/><path d="m256 122.357c84.216 0 152.487 62.314 152.487 139.183v54.154c0 42.312-33.341 78.628-79.049 85.679-21.995 3.393-46.616 5.627-73.438 5.627z" fill="#fca0b2"/><path d="m256 279.898h-23.756c-19.247 0-34.85 15.603-34.85 34.85v15.545c0 19.247 15.603 34.85 34.85 34.85h23.756l23.003-42.622z" fill="#fca0b2"/><path d="m256 279.898h23.756c19.247 0 34.85 15.603 34.85 34.85v15.545c0 19.247-15.603 34.85-34.85 34.85h-23.756z" fill="#fb7a94"/><circle cx="232.997" cy="322.52" fill="#fdc5ce" r="10"/><circle cx="279.003" cy="322.52" fill="#fca0b2" r="10"/><circle cx="197.394" cy="234.706" fill="#555a65" r="15"/><circle cx="314.606" cy="234.706" fill="#333940" r="15"/></g></svg>