<svg id="Capa_1" enable-background="new 0 0 512 512" height="512" viewBox="0 0 512 512" width="512" xmlns="http://www.w3.org/2000/svg"><g><circle cx="256" cy="256" fill="#fcc515" r="256"/><path d="m268.37 269.598-116.594-116.594-21.768 21.768 46.998 46.998-63.969 63.969-33.212-33.212-32.825 10.711 44.269 44.269-15.919 15.919 188.445 188.445c137.778-4.122 248.205-117.095 248.205-255.871 0-15.494-1.378-30.667-4.015-45.403l-90.307-90.307z" fill="#fa0"/><path d="m137.154 140.305c-17.982-13.453-34.073-18.169-42.831-20.014-2.782 8.507-6.743 24.8-4.083 47.1 3.476 29.146 16.239 51.582 22.055 60.843l66.522-38.407c-5.111-9.668-18.16-31.939-41.663-49.522z" fill="#333940"/><path d="m374.846 140.305c17.982-13.453 34.073-18.169 42.831-20.014 2.782 8.507 6.743 24.8 4.083 47.1-3.476 29.146-16.239 51.582-22.055 60.843l-66.522-38.407c5.111-9.668 18.16-31.939 41.663-49.522z" fill="#101214"/><path d="m256 125.544c-1.469-.067-2.944-.12-4.435-.139l-87.742 79.951-116.823 57.882c3.883 1.904 8.988 3.944 15.177 5.294 9.058 1.977 16.864 1.697 22.235 1.059-2.566 3.238-8.805 10.199-19.412 14.118-8.574 3.168-16.098 2.904-20.118 2.471l132.606 96.785c30.888 8.508 55.943 8.723 73.688 8.744 1.55.002 3.162.002 4.823-.005l21.127-133.147z" fill="#fff"/><path d="m256 125.544c1.469-.067 2.944-.12 4.435-.139l87.742 79.951 116.823 57.882c-3.883 1.904-8.988 3.944-15.177 5.294-9.058 1.977-16.864 1.697-22.235 1.059 2.566 3.238 8.805 10.199 19.412 14.118 8.574 3.168 16.098 2.904 20.118 2.471l-132.606 96.785c-30.888 8.508-55.943 8.723-73.688 8.744-1.55.002-3.162.002-4.823-.005v-266.16z" fill="#e9edf5"/><path d="m251.565 125.405c-54.581.685-95.032 34.37-97.977 36.892-24.181 20.71-29.398 40.026-66.353 71.647-15.876 13.585-30.3 23.19-40.235 29.294 7.659-1.301 20.442-3.854 35.647-8.941 54.3-18.168 65.713-43.969 98.471-42.588 27.748 1.17 47.652 20.868 51.529 24.706 15.638 15.477 21.266 32.974 23.353 41.241l21.127-87.476-21.127-64.636c-1.469-.067-2.944-.121-4.435-.139z" fill="#555a65"/><path d="m260.435 125.405c54.581.685 95.032 34.37 97.977 36.892 24.181 20.71 29.398 40.026 66.353 71.647 15.876 13.585 30.3 23.19 40.235 29.294-7.659-1.301-20.442-3.854-35.647-8.941-54.3-18.168-65.713-43.969-98.471-42.588-27.748 1.17-47.652 20.868-51.529 24.706-15.638 15.477-21.266 32.974-23.353 41.241v-152.112c1.469-.067 2.944-.121 4.435-.139z" fill="#333940"/><path d="m135.86 367.253c15.755 7.836 30.459 12.4 35.397 13.905 2.102.641 4.18 1.242 6.231 1.807 4.416-2.022 10.386-5.194 16.688-10.079 34.371-26.644 53.94-85.118 30.353-113.176-14.762-17.56-41.206-16.994-42.706-16.941-31.743 1.122-40.927 29.012-78 41.294-20.103 6.66-40.341 6.059-58.941 2.118 14.113 21.054 42.652 57.037 90.978 81.072z" fill="#333940"/><path d="m376.14 367.253c-15.755 7.836-30.459 12.4-35.397 13.905-2.102.641-4.18 1.242-6.231 1.807-4.416-2.022-10.386-5.194-16.688-10.079-34.371-26.644-53.94-85.118-30.353-113.176 14.762-17.56 41.206-16.994 42.706-16.941 31.743 1.122 40.927 29.012 78 41.294 20.103 6.66 40.341 6.059 58.941 2.118-14.113 21.054-42.652 57.037-90.978 81.072z" fill="#101214"/><path d="m256 304.265h-18.542c-5.509 0-9.975 4.466-9.975 9.975 0 14.691 11.909 26.6 26.601 26.6.645 0 1.283-.031 1.917-.076l14.259-18.212z" fill="#333940"/><path d="m256 304.265h18.542c5.509 0 9.975 4.466 9.975 9.975 0 14.691-11.909 26.6-26.601 26.6-.645 0-1.283-.031-1.917-.076v-36.499z" fill="#101214"/><circle cx="192.534" cy="282.273" fill="#555a65" r="15"/><circle cx="319.466" cy="282.273" fill="#333940" r="15"/></g></svg>