<svg id="Capa_1" enable-background="new 0 0 512 512" height="512" viewBox="0 0 512 512" width="512" xmlns="http://www.w3.org/2000/svg"><g><circle cx="256" cy="256" fill="#fca0b2" r="256"/><path d="m512 256c0-20.498-2.424-40.428-6.975-59.534l-133.032-133.032-104.817 104.816-84.397-84.397-28.28 28.28 6.688 6.688-26.727 26.727 172.265 172.265-123.696 123.697 70.459 70.459c.838.007 1.672.031 2.512.031 141.385 0 256-114.615 256-256z" fill="#fb7a94"/><path d="m208.213 114.001c-3.906 1.471-7.566 3.213-10.988 5.142.454-26.827-19.768-48.573-57.216-55.709-32.758 40.149-23.792 80.523 18.178 97.206-5.634 10.866-13.625 33.22-5.49 95.479 3.799 29.078 11.519 69.945 28.706 117.647-2.731 8.76-5.716 21.771-5.412 37.647.266 13.857.449 23.435 7.059 30.118 4.669 4.721 10.774 6.208 36 6.824 9.796.239 22.309.342 36.95-.052l25.088-186.026-25.088-155.667c-19.959.572-34.332 2.325-47.787 7.391z" fill="#cdd2e1"/><path d="m371.991 63.434c-37.447 7.136-57.669 28.882-57.216 55.709-3.422-1.929-7.082-3.671-10.988-5.142-13.456-5.066-27.829-6.82-47.787-7.391v341.692c14.641.394 27.154.291 36.95.052 25.226-.616 31.331-2.103 36-6.824 6.609-6.683 6.793-16.261 7.059-30.118.304-15.876-2.681-28.887-5.412-37.647 17.187-47.702 24.907-88.569 28.706-117.647 8.135-62.26.144-84.613-5.49-95.479 41.97-16.683 50.935-57.056 18.178-97.205z" fill="#b8bcc9"/><path d="m256 139.413-50.176 192.672c1.391 1.507 18.675 19.534 50.176 19.534l19.538-89.343z" fill="#fff"/><path d="m256 139.413 50.176 192.672c-1.391 1.507-18.675 19.534-50.176 19.534z" fill="#e9edf5"/><path d="m193.3 413.321 3.411 5.909c2.426 4.202 7.8 5.642 12.002 3.216 4.202-2.426 5.642-7.8 3.216-12.002l-3.411-5.909c-2.426-4.202-7.8-5.642-12.002-3.216-4.203 2.426-5.642 7.799-3.216 12.002z" fill="#555a65"/><path d="m318.7 413.321-3.411 5.909c-2.426 4.202-7.8 5.642-12.002 3.216-4.202-2.426-5.642-7.8-3.216-12.002l3.411-5.909c2.426-4.202 7.8-5.642 12.002-3.216 4.203 2.426 5.642 7.799 3.216 12.002z" fill="#333940"/><path d="m196.484 240.925c2.361 6.487-.984 13.66-7.471 16.021s-13.66-.984-16.021-7.471-2.603-23.513 3.885-25.874c6.486-2.361 17.246 10.837 19.607 17.324z" fill="#555a65"/><path d="m315.516 240.925c-2.361 6.487.984 13.66 7.471 16.021s13.66-.984 16.021-7.471 2.603-23.513-3.885-25.874c-6.486-2.361-17.246 10.837-19.607 17.324z" fill="#333940"/></g></svg>