<svg id="Capa_1" enable-background="new 0 0 512 512" height="512" viewBox="0 0 512 512" width="512" xmlns="http://www.w3.org/2000/svg"><g><circle cx="256" cy="256" fill="#fcc515" r="256"/><path d="m404.298 182.597-1.997 1.997-144.761-144.761-6.089 6.089 31.765 31.765-98 98 46.149 46.149-123.816 123.815 20.191 20.191-33.791 33.791 106.25 106.25c17.964 3.994 36.633 6.117 55.801 6.117 130.451 0 238.109-97.575 253.98-223.721z" fill="#fa0"/><path d="m256 38.321c-8.403 8.101-23.004 24.543-34.162 52.524-14.583 36.571-14.791 71.56-14.279 86.374h48.441l18.059-69.449z" fill="#555a65"/><path d="m256 38.321c8.403 8.101 23.004 24.543 34.162 52.524 14.583 36.571 14.791 71.56 14.279 86.374h-48.441z" fill="#333940"/><path d="m117.075 348.479c-15.209 24.363-20.845 41.979-23.126 51.154 9.176-2.281 26.791-7.918 51.154-23.126 31.842-19.877 56.668-44.532 66.933-55.218l-19.872-19.872-19.872-19.872c-10.685 10.266-35.34 35.092-55.217 66.934z" fill="#333940"/><path d="m395.278 348.479c15.209 24.363 20.845 41.979 23.126 51.154s0 0 0 0c-9.176-2.281-26.791-7.918-51.154-23.126-31.842-19.877-56.668-44.532-66.933-55.218l19.872-19.872 19.872-19.872c10.685 10.266 35.34 35.092 55.217 66.934z" fill="#101214"/><path d="m256 139.203h-43.41c-72.935 0-135.067 52.981-146.591 125l190.001 125 18.059-125z" fill="#333940"/><path d="m256 139.203h43.41c72.935 0 135.067 52.981 146.591 125l-190.001 125z" fill="#101214"/><path d="m256 261.049c-.002 0-.005 0-.007 0-27.999 0-42.229 5.099-55.991 10.029-13.682 4.902-27.83 9.971-55.654 9.971s-41.971-5.068-55.653-9.971c-6.891-2.469-13.9-4.98-22.696-6.872.057.357.123.711.183 1.067 11.966 71.472 73.835 123.931 146.408 123.931h43.41l18.059-61.294z" fill="#555a65"/><path d="m256 261.049h.007c27.999 0 42.229 5.099 55.991 10.029 13.682 4.902 27.83 9.971 55.654 9.971s41.971-5.068 55.653-9.971c6.891-2.469 13.9-4.98 22.696-6.872-.057.357-.123.711-.183 1.067-11.966 71.472-73.835 123.931-146.408 123.931h-43.41z" fill="#333940"/><path d="m256 355.861c-.649-4.12-1.697-8.65-3.371-13.257-3.383-9.311-7.81-14.782-10.358-17.478-2.548 2.696-6.975 8.167-10.358 17.478-1.785 4.912-2.852 9.73-3.488 14.063-.436-4.378-1.373-9.623-3.326-15-2.846-7.834-6.571-12.437-8.715-14.705-2.144 2.268-5.868 6.871-8.715 14.705-1.354 3.727-2.218 7.392-2.769 10.751-.284-4.069-1.058-9.289-3.009-14.658-2.445-6.731-5.646-10.686-7.488-12.635-1.842 1.949-5.042 5.904-7.488 12.635-.799 2.198-1.4 4.372-1.852 6.453-.212-3.021-.788-6.895-2.235-10.878-1.817-5.002-4.196-7.941-5.564-9.389-1.369 1.448-3.747 4.387-5.564 9.389-.374 1.028-.683 2.047-.95 3.048-.3-2.684-.9-5.831-2.069-9.048-1.817-5.002-4.196-7.941-5.564-9.389-1.311 1.387-3.544 4.164-5.327 8.79-.207-2.255-.677-5.002-1.7-7.818-1.432-3.941-3.306-6.258-4.385-7.399-1.078 1.141-2.953 3.457-4.385 7.399-1.872 5.152-1.899 10.08-1.833 12.167l47.966 25.119 62.547 17.646 3.235-8.882z" fill="#e9edf5"/><path d="m256 312.439-110.511-19.676c-.066 2.087-.039 7.015 1.833 12.167 1.432 3.942 3.306 6.258 4.385 7.399 1.02-1.079 2.747-3.227 4.143-6.787.354 2.045.889 4.254 1.705 6.5 1.817 5.002 4.196 7.941 5.564 9.389 1.369-1.448 3.747-4.387 5.564-9.389.355-.977.652-1.945.91-2.897.285 2.765.884 6.058 2.109 9.429 1.817 5.002 4.196 7.941 5.564 9.389 1.369-1.448 3.747-4.387 5.564-9.389.592-1.63 1.039-3.242 1.374-4.786.424 3.48 1.224 7.488 2.713 11.585 2.446 6.731 5.646 10.686 7.488 12.635 1.842-1.949 5.042-5.904 7.488-12.635 1.176-3.236 1.923-6.418 2.395-9.329.409 4.491 1.342 9.967 3.383 15.584 2.846 7.834 6.571 12.437 8.715 14.705 2.144-2.268 5.868-6.871 8.715-14.705 1.485-4.087 2.379-8.097 2.917-11.712.542 5.084 1.662 11.099 3.897 17.252 3.383 9.311 7.81 14.782 10.358 17.478 2.548-2.696 6.975-8.167 10.358-17.478 1.674-4.607 2.721-9.137 3.371-13.257l3.235-5.841z" fill="#fff"/><path d="m256 355.861c.649-4.12 1.697-8.65 3.371-13.257 3.383-9.311 7.81-14.782 10.358-17.478 2.548 2.696 6.975 8.167 10.358 17.478 1.785 4.912 2.852 9.73 3.488 14.063.436-4.378 1.373-9.623 3.326-15 2.846-7.834 6.571-12.437 8.715-14.705 2.144 2.268 5.868 6.871 8.715 14.705 1.354 3.727 2.218 7.392 2.769 10.751.284-4.069 1.058-9.289 3.009-14.658 2.445-6.731 5.646-10.686 7.488-12.635 1.842 1.949 5.042 5.904 7.488 12.635.799 2.198 1.4 4.372 1.852 6.453.212-3.021.788-6.895 2.235-10.878 1.817-5.002 4.196-7.941 5.564-9.389 1.369 1.448 3.747 4.387 5.564 9.389.374 1.028.683 2.047.95 3.048.3-2.684.9-5.831 2.069-9.048 1.817-5.002 4.196-7.941 5.564-9.389 1.311 1.387 3.544 4.164 5.327 8.79.207-2.255.677-5.002 1.7-7.818 1.432-3.941 3.306-6.258 4.385-7.399 1.078 1.141 2.953 3.457 4.385 7.399 1.872 5.152 1.899 10.08 1.833 12.167l-47.966 25.119-62.547 17.646z" fill="#cdd2e1"/><path d="m256 312.439 110.511-19.676c.066 2.087.039 7.015-1.833 12.167-1.432 3.942-3.306 6.258-4.385 7.399-1.02-1.079-2.747-3.227-4.143-6.787-.354 2.045-.889 4.254-1.705 6.5-1.817 5.002-4.196 7.941-5.564 9.389-1.369-1.448-3.747-4.387-5.564-9.389-.355-.977-.652-1.945-.91-2.897-.285 2.765-.884 6.058-2.109 9.429-1.817 5.002-4.196 7.941-5.564 9.389-1.369-1.448-3.747-4.387-5.564-9.389-.592-1.63-1.039-3.242-1.374-4.786-.424 3.48-1.224 7.488-2.713 11.585-2.446 6.731-5.646 10.686-7.488 12.635-1.842-1.949-5.042-5.904-7.488-12.635-1.176-3.236-1.923-6.418-2.395-9.329-.409 4.491-1.342 9.967-3.383 15.584-2.846 7.834-6.571 12.437-8.715 14.705-2.144-2.268-5.868-6.871-8.715-14.705-1.485-4.087-2.379-8.097-2.917-11.712-.542 5.084-1.662 11.099-3.897 17.252-3.383 9.311-7.81 14.782-10.358 17.478-2.548-2.696-6.975-8.167-10.358-17.478-1.674-4.607-2.721-9.137-3.371-13.257v-11.472z" fill="#e9edf5"/><path d="m256 302.946c-40.229 0-79.713-7.199-117.353-21.399l-5.294 14.035c39.338 14.84 80.603 22.364 122.647 22.364l7.092-6.77z" fill="#555a65"/><path d="m256 302.946c40.229 0 79.713-7.199 117.353-21.399l5.294 14.035c-39.338 14.84-80.603 22.364-122.647 22.364z" fill="#333940"/><path d="m256 361.338c-62.343-.007-103.765-33.077-115.027-43.268l-10.064 11.123c12.272 11.104 57.382 47.138 125.091 47.145l5.353-7.047z" fill="#555a65"/><path d="m256 361.338c62.343-.007 103.765-33.077 115.027-43.268l10.064 11.123c-12.272 11.104-57.382 47.138-125.091 47.145z" fill="#333940"/><path d="m172.301 248.017c-15.362-4.531-23.734-21.438-17.682-36.335l52.804 19.219c-4.76 14.565-20.711 22.394-35.122 17.116z" fill="#555a65"/><path d="m339.699 248.017c15.362-4.531 23.734-21.438 17.682-36.335l-52.804 19.218c4.76 14.566 20.711 22.395 35.122 17.117z" fill="#333940"/></g></svg>