<svg id="Capa_1" enable-background="new 0 0 512 512" height="512" viewBox="0 0 512 512" width="512" xmlns="http://www.w3.org/2000/svg"><g><circle cx="256" cy="256" fill="#fcc515" r="256"/><path d="m391.69 136.986-34.374-34.374-130.879 130.879-66.296-66.296-74.852 74.852 138.73 138.73-23.33 23.33 103.369 103.369c118.41-22.493 207.942-126.52 207.942-251.476 0-5.6-.2-11.153-.554-16.664l-111.053-111.053z" fill="#fa0"/><path d="m72.618 179.828c-12.307 53.757 21.295 87.359 75.052 75.052 12.307-53.757-21.295-87.359-75.052-75.052z" fill="#e9edf5"/><path d="m438.276 179.828c15.18 56.631-18.421 90.232-75.052 75.052-15.18-56.631 18.421-90.232 75.052-75.052z" fill="#cdd2e1"/><path d="m226.664 109.48c-30.858 0-59.163 17.135-73.469 44.476-6.207 11.863-9.449 25.053-9.449 38.442v58.576c0 .54-.066 1.077-.192 1.602-6.792 28.357-2.663 58.244 11.583 83.71 1.828 3.268 3.388 6.681 4.55 10.241 9.911 30.356 47.718 65.599 72.758 86.4 6.669 5.54 14.835 8.309 23.002 8.309l19.472-165.878-19.472-165.878z" fill="#e9edf5"/><path d="m351.207 346.526c1.162-3.559 2.722-6.973 4.55-10.241 14.246-25.465 18.375-55.352 11.583-83.71-.126-.525-.192-1.062-.192-1.602v-58.576c0-13.389-3.242-26.579-9.449-38.441-14.306-27.341-42.611-44.476-73.469-44.476h-28.783v331.755c8.167 0 16.334-2.77 23.002-8.309 25.041-20.801 62.847-56.044 72.758-86.4z" fill="#cdd2e1"/><path d="m219.466 366.147 35.981 32.71 11.952-21.701-11.952-11.009z" fill="#555a65"/><path d="m291.428 366.147-35.981 32.71v-32.71z" fill="#333940"/><circle cx="193.48" cy="262.138" fill="#555a65" r="15"/><circle cx="317.414" cy="262.138" fill="#333940" r="15"/><path d="m226.329 81.213c-5.66-2.504-11.917-3.906-18.505-3.906-12.447 0-23.727 4.973-31.981 13.032-13.812 3.109-25.256 12.458-31.227 24.928-22.651 2.761-40.2 22.045-40.2 45.441 0 23.335 17.458 42.58 40.023 45.419 9.568 12.439 24.592 20.462 41.498 20.462 12.154 0 23.325-4.161 32.207-11.113 8.303 11.646 21.911 19.247 37.303 19.247l19.472-81.98-19.472-81.98c-11.06.002-21.204 3.923-29.118 10.45z" fill="#fff"/><path d="m368.056 114.915c-.643 0-1.281.022-1.918.049-5.692-11.666-16.195-20.554-28.929-24.083-8.299-8.379-19.809-13.573-32.534-13.573-6.999 0-13.627 1.576-19.56 4.383-7.993-6.808-18.348-10.925-29.669-10.925v163.96c15.392 0 29-7.602 37.302-19.247 8.882 6.952 20.053 11.113 32.207 11.113 16.756 0 31.662-7.884 41.241-20.135.617.025 1.236.047 1.859.047 25.291 0 45.794-20.502 45.794-45.794.001-25.293-20.502-45.795-45.793-45.795z" fill="#e9edf5"/></g></svg>