<svg id="Capa_1" enable-background="new 0 0 512 512" height="512" viewBox="0 0 512 512" width="512" xmlns="http://www.w3.org/2000/svg"><g><circle cx="256" cy="256" fill="#8cc7fc" r="256"/><path d="m391.891 150.337-99.799 99.799-37.826-37.826-150.297 150.298 149.358 149.358c.892.009 1.779.034 2.673.034 136.668 0 248.312-107.097 255.611-241.943z" fill="#6cb1f8"/><path d="m70.751 310.972c22.385 63.253 96.838 109.718 185.249 109.718l12.894-159.125-12.894-170.255-137.749 60.903c-17.723 18.106-31.649 38.395-41.063 59.945z" fill="#fa0"/><path d="m441.249 310.972c-22.385 63.253-96.838 109.718-185.249 109.718v-329.38l137.749 60.903c17.723 18.106 31.649 38.395 41.063 59.945z" fill="#ff9500"/><path d="m180.953 212.158h-103.765c-8.601 19.529-13.326 39.689-13.326 59.039 0 13.774 2.406 27.109 6.889 39.775h110.203c27.287 0 49.407-22.12 49.407-49.407-.001-27.287-22.121-49.407-49.408-49.407z" fill="#ad6d68"/><path d="m331.047 212.158h103.765c8.601 19.529 13.326 39.689 13.326 59.039 0 13.774-2.406 27.109-6.889 39.775h-110.202c-27.287 0-49.407-22.12-49.407-49.407 0-27.287 22.12-49.407 49.407-49.407z" fill="#99584d"/><path d="m118.251 152.213c14.606-.822 34.221-.261 56.437 5.296 39.935 9.989 67.23 30.857 81.312 43.469l12.894-65.686-12.894-43.982c-54.029 0-102.84 25.237-137.749 60.903z" fill="#ad6d68"/><path d="m393.749 152.213c-14.606-.822-34.221-.261-56.437 5.296-39.935 9.989-67.23 30.857-81.312 43.469v-109.668c54.029 0 102.84 25.237 137.749 60.903z" fill="#99584d"/><path d="m256 296.83h-16.768c-4.982 0-9.021 4.039-9.021 9.021 0 13.285 10.77 24.055 24.055 24.055.584 0 1.16-.028 1.733-.069l12.894-16.469z" fill="#555a65"/><path d="m256 296.83h16.768c4.982 0 9.021 4.039 9.021 9.021 0 13.285-10.77 24.055-24.055 24.055-.584 0-1.16-.028-1.733-.069v-33.007z" fill="#333940"/><circle cx="173.848" cy="261.565" fill="#555a65" r="15"/><circle cx="338.152" cy="261.565" fill="#333940" r="15"/></g></svg>