<svg id="Capa_1" enable-background="new 0 0 512 512" height="512" viewBox="0 0 512 512" width="512" xmlns="http://www.w3.org/2000/svg"><g><circle cx="256" cy="256" fill="#36d987" r="256"/><path d="m281.066 223.087-109.664-109.665-13.559 13.559-3.789 3.789-21.99 21.99 85.47 85.47-120.889 120.89 152.797 152.797c2.179.055 4.366.083 6.558.083 141.385 0 256-114.615 256-256 0-10.966-.692-21.771-2.03-32.374l-114.721-114.721z" fill="#3cc483"/><path d="m116.751 108.904c-2.652 35.404 23.898 61.955 59.303 59.303 13.179-14.27 11.283-38.196-3.878-53.997-15.671-16.333-40.659-18.926-55.425-5.306z" fill="#ad6d68"/><path d="m116.751 108.904c-2.652 35.404 23.898 61.955 59.303 59.303 2.652-35.404-23.899-61.955-59.303-59.303z" fill="#c48174"/><path d="m395.249 108.904c2.652 35.404-23.898 61.955-59.303 59.303-13.179-14.27-11.283-38.196 3.878-53.997 15.671-16.333 40.659-18.926 55.425-5.306z" fill="#99584d"/><path d="m395.249 108.904c2.652 35.404-23.898 61.955-59.303 59.303-2.652-35.404 23.899-61.955 59.303-59.303z" fill="#ad6d68"/><path d="m170.972 138.996c-9.432 6.396-16.751 12.948-22.112 18.362-22.911 23.265-37.48 53.992-39.176 87.915-23.101 17.412-36.802 39.076-36.802 62.56 0 7.152 1.271 14.133 3.691 20.88l179.427 83.157 23.488-146.917-23.488-151.729z" fill="#fa0"/><path d="m341.028 138.996c9.432 6.396 16.751 12.948 22.112 18.362 22.911 23.265 37.48 53.992 39.176 87.915 23.101 17.412 36.802 39.076 36.802 62.56 0 7.152-1.27 14.136-3.69 20.882l-179.428 83.155v-298.646z" fill="#ff9500"/><path d="m76.573 328.713c57.689-7.333 111.029-10.521 158.892-11.212l20.535 2.296 16.609 47.924-16.609 44.149c-88.546 0-162.411-35.706-179.427-83.157z" fill="#fcc515"/><path d="m435.427 328.713c-57.689-7.333-111.029-10.521-158.892-11.212l-20.535 2.296v92.073c88.546 0 162.411-35.706 179.427-83.157z" fill="#fa0"/><path d="m235.466 357.514h20.534l11.744-19.103-11.744-21.06c-6.726 0-13.573.049-20.534.15z" fill="#fff"/><path d="m276.534 317.501c-6.961-.101-13.809-.15-20.534-.15v40.163h20.534z" fill="#e9edf5"/><path d="m214.907 118.76c-17.662 4.903-30.425 11.894-36.579 15.557-2.584 1.538-5.031 3.105-7.355 4.68 13.016 13.057 27.114 28.987 40.938 48.082 20.436 28.227 34.436 55.304 44.089 77.875l16.609-84.941-16.609-66.789c-10.733-.028-24.992 1.066-41.093 5.536z" fill="#ad6d68"/><path d="m297.093 118.76c17.662 4.903 30.425 11.894 36.579 15.557 2.584 1.538 5.031 3.105 7.355 4.68-13.016 13.057-27.114 28.987-40.938 48.082-20.436 28.227-34.436 55.304-44.089 77.875v-151.73c10.733-.028 24.992 1.066 41.093 5.536z" fill="#99584d"/><path d="m256 264.953h-15.272c-4.538 0-8.216 3.678-8.216 8.216 0 12.1 9.809 21.909 21.909 21.909.531 0 1.057-.026 1.579-.063l11.744-15z" fill="#555a65"/><path d="m256 264.953h15.272c4.538 0 8.216 3.678 8.216 8.216 0 12.1-9.809 21.909-21.909 21.909-.531 0-1.057-.026-1.579-.063z" fill="#333940"/><circle cx="200.158" cy="240.894" fill="#555a65" r="15"/><circle cx="311.842" cy="240.894" fill="#333940" r="15"/></g></svg>