<svg id="Capa_1" enable-background="new 0 0 512 512" height="512" viewBox="0 0 512 512" width="512" xmlns="http://www.w3.org/2000/svg"><g><circle cx="256" cy="256" fill="#8cc7fc" r="256"/><path d="m341.014 98.49-128.853 128.853 9.776 9.776-64.946 64.946 87.724 87.724-44.401 44.401 76.926 76.926c127.129-10.444 227.943-113.761 234.427-241.973z" fill="#6cb1f8"/><path d="m256 60c-75.013 0-135.822 83.475-135.822 154.289s60.809 128.221 135.822 128.221l25.534-134.505z" fill="#fff"/><path d="m256 60c75.013 0 135.822 83.475 135.822 154.289s-60.809 128.221-135.822 128.221z" fill="#e9edf5"/><path d="m256 238.783-56.201 46.234-10.866 124.811c0 23.291 29.672 42.172 52.963 42.172l14.104-3.435 25.534-101.004z" fill="#fa0"/><path d="m256 238.783 56.201 46.234 10.866 124.811c0 23.291-29.672 42.172-52.963 42.172l-14.104-3.435z" fill="#ff9500"/><path d="m256 238.783c-26.488 0-46.408-8.467-56.201-13.431v59.665c11.28 6.685 30.765 15.593 56.201 16.012l20.261-33.108z" fill="#555a65"/><path d="m256 238.783c26.488 0 46.408-8.467 56.201-13.431v59.665c-11.28 6.685-30.765 15.593-56.201 16.012z" fill="#333940"/><path d="m241.896 451.925c.029.029.045.046.074.075h14.03l7.052-12.783-7.052-23.154c-9.185 9.925-13.877 22.856-14.104 35.862z" fill="#555a65"/><path d="m270.104 451.925c-.029.029-.045.046-.074.075h-14.03v-35.937c9.185 9.925 13.877 22.856 14.104 35.862z" fill="#333940"/><path d="m211.62 245.501-19.002-3.35c-25.147-4.434-41.938-28.414-37.504-53.562 1.85-10.494 11.858-17.501 22.352-15.651 25.147 4.434 41.938 28.414 37.504 53.562z" fill="#555a65"/><path d="m300.38 245.501 19.002-3.35c25.147-4.434 41.938-28.414 37.504-53.562-1.85-10.494-11.858-17.501-22.352-15.651-25.147 4.434-41.938 28.414-37.504 53.562z" fill="#333940"/></g></svg>