<svg id="Capa_1" enable-background="new 0 0 512 512" height="512" viewBox="0 0 512 512" width="512" xmlns="http://www.w3.org/2000/svg"><g><circle cx="256" cy="256" fill="#8cc7fc" r="256"/><path d="m252.766 231.825-46.831-46.831-128.7 128.7 20.161 20.161-7.456 1.955 18.492 18.492-4.842 1.038 156.607 156.607c139.447-2.244 251.803-115.965 251.803-255.947 0-21.736-2.719-42.835-7.817-62.986l-106.303-106.303z" fill="#6cb1f8"/><path d="m120.258 215.56c-6.038-10.383-13.143-25.584-16.682-44.956-7.107-38.897 4.577-70.429 10.546-83.893 31 17.792 62.001 35.584 93.001 53.375-25.407 18.856-61.458 56.618-86.865 75.474z" fill="#fcc515"/><path d="m391.742 215.56c6.038-10.383 13.143-25.584 16.682-44.956 7.107-38.897-4.577-70.429-10.546-83.893-31 17.792-62.001 35.584-93.001 53.375 25.407 18.856 61.458 56.618 86.865 75.474z" fill="#fa0"/><path d="m96 272.398c-1.045 6.295-3.161 14.821-7.706 24.118-3.541 7.242-7.574 12.946-11.059 17.176 2.661 1.676 7.699 4.356 14.588 5.177 8.072.961 14.416-1.138 17.412-2.353-1.736 2.893-4.171 6.361-7.529 9.882-4.198 4.401-8.434 7.411-11.765 9.412 2.958 1.368 8.834 3.565 16.235 2.824 3.447-.345 6.315-1.236 8.471-2.118-.146 2.136-.643 5.394-2.353 8.941-2.648 5.495-6.7 8.563-8.706 9.882 9.812 1.011 24.81 3.776 41.176 12 20.526 10.313 33.344 24.257 39.973 32.652v-126.147z" fill="#fcc515"/><path d="m416 272.398c1.045 6.295 3.161 14.821 7.706 24.118 3.541 7.242 7.574 12.946 11.059 17.176-2.661 1.676-7.699 4.356-14.588 5.177-8.072.961-14.416-1.138-17.412-2.353 1.736 2.893 4.171 6.361 7.529 9.882 4.198 4.401 8.434 7.411 11.765 9.412-2.958 1.368-8.834 3.565-16.235 2.824-3.447-.345-6.315-1.236-8.471-2.118.146 2.136.643 5.394 2.353 8.941 2.648 5.495 6.7 8.563 8.706 9.882-9.812 1.011-24.81 3.776-41.176 12-20.526 10.313-33.344 24.257-39.973 32.652v-126.147z" fill="#fa0"/><path d="m256 112.586-11.112.202c-13.939.955-27.371 3.683-40.102 7.983l-8.197 7.803-11.391.315c-11.086 5.482-21.462 12.2-30.916 20.001l-4.634 9.566-10.559 4.724c-16.992 18.181-29.793 40.317-36.863 64.892l.657 13.92-5.732 11.21c-.742 6.249-1.15 12.747-1.15 19.195 21.449 15.235 37.39 30.347 48.412 42 16.954 17.925 34.574 36.898 45.971 65.861 3.587 9.116 5.618 8.701 5.618 15.031 0 22.091 26.863 40 60 40l16.72-162.892z" fill="#fa0"/><path d="m256 112.586 11.112.202c13.939.955 27.371 3.683 40.102 7.983l8.197 7.803 11.391.315c11.086 5.482 21.462 12.2 30.916 20.001l4.634 9.566 10.559 4.724c16.992 18.181 29.793 40.317 36.863 64.892l-.657 13.92 5.732 11.21c.742 6.249 1.15 12.747 1.15 19.195-21.449 15.235-37.39 30.347-48.412 42-16.954 17.925-34.574 36.898-45.971 65.861-3.587 9.116-5.618 8.701-5.618 15.031 0 22.091-26.863 40-60 40z" fill="#ff9500"/><path d="m256 345.382-33.44-6.043h-3.56c-22.091 0-40 17.909-40 40s17.909 40 40 40c16.707 0 31.014-10.246 37-24.793l14.059-23.5z" fill="#fff"/><path d="m256 345.382 33.44-6.043h3.56c22.091 0 40 17.909 40 40s-17.909 40-40 40c-16.707 0-31.014-10.246-37-24.793z" fill="#e9edf5"/><g fill="#555a65"><path d="m97.15 253.202 50.082 36.546-45.007-61.676c-2.339 8.13-4.046 16.526-5.075 25.13z"/><path d="m218.108 188.556-13.323-67.784c-6.744 2.277-13.281 5-19.589 8.118z"/><path d="m139.088 163.181 50.359 43.961-35.167-58.252c-5.371 4.429-10.441 9.208-15.192 14.291z"/><path d="m256 112.398c-3.737 0-7.44.139-11.113.391l11.113 71.12 4.441-45.187z"/></g><path d="m414.85 253.202-50.082 36.546 45.007-61.676c2.339 8.13 4.046 16.526 5.075 25.13z" fill="#333940"/><path d="m293.892 188.556 13.323-67.784c6.744 2.277 13.281 5 19.589 8.118z" fill="#333940"/><path d="m372.912 163.181-50.359 43.961 35.167-58.252c5.371 4.429 10.441 9.208 15.192 14.291z" fill="#333940"/><path d="m256 112.398c3.737 0 7.44.139 11.113.391l-11.113 71.12z" fill="#333940"/><path d="m222.56 339.339 33.44 31.885 6.118-20.179-6.118-11.706z" fill="#555a65"/><path d="m289.44 339.339-33.44 31.885v-31.885z" fill="#333940"/><path d="m207.731 264.3-8.632 1.522c-25.147 4.434-49.127-12.357-53.562-37.504l-1.522-8.632 8.632-1.522c25.147-4.434 49.127 12.357 53.562 37.504z" fill="#555a65"/><path d="m304.269 264.3 8.632 1.522c25.147 4.434 49.127-12.357 53.562-37.504l1.522-8.632-8.632-1.522c-25.147-4.434-49.127 12.357-53.562 37.504z" fill="#333940"/></g></svg>