<svg id="Capa_1" enable-background="new 0 0 512 512" height="512" viewBox="0 0 512 512" width="512" xmlns="http://www.w3.org/2000/svg"><g><circle cx="256" cy="256" fill="#36d987" r="256"/><path d="m339.259 98.85-147.052 147.052 25.873 25.873-78.232 78.232 69.15 69.15-16.675 16.675 75.873 75.873c130.697-6.131 235.749-110.263 243.348-240.571z" fill="#3cc483"/><path d="m256 362.315h-35v-50h35l17.5 25z" fill="#555a65"/><path d="m256 312.315h35v50h-35z" fill="#333940"/><path d="m256 64.412c-65.095 0-117.865 52.77-117.865 117.865v117.865h117.865l16.709-121.263z" fill="#cdd2e1"/><path d="m373.865 182.277c0-65.095-52.77-117.865-117.865-117.865v235.731h117.865z" fill="#b8bcc9"/><path d="m227.794 447.588h-7.146c-22.091 0-40-17.909-40-40v-89.652h47.146z" fill="#fff"/><path d="m284.206 447.588h7.146c22.091 0 40-17.909 40-40v-89.652h-47.146z" fill="#e9edf5"/><path d="m189.996 229.423c-39.057 0-70.719 31.662-70.719 70.719s31.662 70.719 70.719 70.719c30.105 0 55.799-7.186 66.004-33.696l16.709-47.007-16.709-55.431-28.206-5.304z" fill="#e9edf5"/><path d="m322.004 370.862c39.057 0 70.719-31.662 70.719-70.719s-31.662-70.719-70.719-70.719h-37.798l-28.206 5.303v102.439c10.205 26.51 35.899 33.696 66.004 33.696z" fill="#cdd2e1"/><circle cx="205.221" cy="161.2" fill="#555a65" r="15"/><circle cx="306.779" cy="161.2" fill="#333940" r="15"/><path d="m256 229.423h-28.206v9.866c0 14.531 11.78 26.31 26.31 26.31.638 0 1.269-.031 1.896-.075l12.227-18.013z" fill="#555a65"/><path d="m256 229.423h28.206v9.866c0 14.531-11.78 26.31-26.31 26.31-.638 0-1.269-.031-1.896-.075z" fill="#333940"/><g fill="#555a65"><circle cx="180.648" cy="293.273" r="7.5"/><circle cx="196.677" cy="312.634" r="7.5"/><circle cx="164.618" cy="312.634" r="7.5"/></g><circle cx="331.352" cy="293.273" fill="#333940" r="7.5"/><circle cx="347.382" cy="312.634" fill="#333940" r="7.5"/><circle cx="315.323" cy="312.634" fill="#333940" r="7.5"/></g></svg>