<svg id="Capa_1" enable-background="new 0 0 512 512" height="512" viewBox="0 0 512 512" width="512" xmlns="http://www.w3.org/2000/svg"><g><circle cx="256" cy="256" fill="#ad6d68" r="256"/><path d="m292.495 204.848-9.83-9.83-202.809 202.809 103.784 103.784c22.948 6.75 47.227 10.389 72.36 10.389 141.385 0 256-114.615 256-256 0-.981-.026-1.955-.037-2.933l-133.844-133.844z" fill="#99584d"/><path d="m104.993 342.225c-16.531 26.482-22.658 45.629-25.137 55.603 9.974-2.48 29.121-8.606 55.603-25.137 34.611-21.606 61.596-48.405 72.754-60.02l-21.6-21.6-21.6-21.6c-11.615 11.158-38.414 38.143-60.02 72.754z" fill="#8cc7fc"/><path d="m407.007 342.225c16.531 26.482 22.658 45.629 25.137 55.603-9.974-2.48-29.121-8.606-55.603-25.137-34.611-21.606-61.596-48.405-72.754-60.02l21.6-21.6 21.6-21.6c11.615 11.158 38.414 38.143 60.02 72.754z" fill="#6cb1f8"/><path d="m256 82.924h-41.139c-69.119 0-127.999 71.077-138.92 167.696l180.059 167.696 20.57-178.701z" fill="#8cc7fc"/><path d="m256 82.924h41.139c69.119 0 127.999 71.077 138.92 167.696l-180.059 167.696z" fill="#6cb1f8"/><path d="m135.963 260.159c-1.113.416-2.258.802-3.439 1.158-22.89 6.892-43.555-2.554-56.583-10.693.054.479.117.953.174 1.431 6.552 55.397 28.889 102.279 59.848 131.995l60.016 32.477c6.19 1.181 12.487 1.79 18.883 1.79h41.138l20.57-111.181-20.57-111.182c-20.494 0-40.963 6.125-60.021 18.375l-29.116 40.359z" fill="#fff"/><path d="m195.055 214.912c-.488.319-.965.636-1.434.95-27.045 18.119-36.613 36.422-57.658 44.286v123.902c17.646 16.938 38.094 28.297 60.016 32.477v-202.198c-.308.197-.618.382-.924.583z" fill="#e9edf5"/><path d="m376.037 260.159c1.113.416 2.258.802 3.439 1.158 22.89 6.892 43.555-2.554 56.583-10.693-.054.479-.117.953-.174 1.431-6.552 55.397-28.889 102.279-59.848 131.995l-60.016 32.477c-6.19 1.181-12.487 1.79-18.883 1.79h-41.138v-222.363c20.494 0 40.963 6.125 60.021 18.375l29.116 40.359z" fill="#e9edf5"/><path d="m316.945 214.912c.488.319.966.636 1.434.95 27.045 18.119 36.613 36.422 57.658 44.286v123.902c-17.646 16.938-38.094 28.297-60.016 32.477v-202.198c.307.197.618.382.924.583z" fill="#cdd2e1"/><circle cx="173.425" cy="183.071" fill="#555a65" r="15"/><circle cx="338.575" cy="183.071" fill="#333940" r="15"/></g></svg>