<svg id="Capa_1" enable-background="new 0 0 512 512" height="512" viewBox="0 0 512 512" width="512" xmlns="http://www.w3.org/2000/svg"><g><circle cx="256" cy="256" fill="#36d987" r="256"/><path d="m255.474 290.475-111.877-111.877-34.379 34.379 21.782 21.782-29.186 29.186-8.082-8.082-34.379 34.379 32 32-16.705 16.706 172.898 172.898c2.808.091 5.624.154 8.454.154 141.385 0 256-114.615 256-256 0-23.909-3.288-47.047-9.418-69l-71.816-71.816z" fill="#3cc483"/><path d="m131.675 230.246c-9.112-5.281-25.653-16.594-37.97-37.182-20.415-34.125-14.34-68.852-12.471-77.883 7.507 3.314 18.95 7.348 33.176 8.235 21.918 1.366 31.666-5.909 49.647-4.706 10.612.71 25.563 4.472 43.115 18.702z" fill="#c48174"/><path d="m380.325 230.246c9.112-5.281 25.653-16.594 37.97-37.182 20.415-34.125 14.34-68.852 12.471-77.883-7.507 3.314-18.95 7.348-33.176 8.235-21.918 1.366-31.666-5.909-49.647-4.706-10.612.71-25.563 4.472-43.115 18.702z" fill="#ad6d68"/><path d="m256 126.209c-22.296.079-41.319 5.971-57.715 16.168-26.111 16.239-45.556 43.395-60.924 75.403-1.964 4.09-5.685 12.466-5.685 12.466-8.545 1.568-27.209 6.208-45.028 21.406-16.666 14.214-24.184 30.509-27.294 38.588 8.066-.797 17.877-1.096 28.941 0 8.019.794 15.187 2.154 21.36 3.708-5.919 5.011-12.877 11.771-19.713 20.528-6.949 8.902-11.852 17.425-15.294 24.471 4.254-2.392 12.123-5.971 22.235-5.765 3.464.071 6.931.711 9.514 1.349.001-.012.002-.025.002-.037 5.174 60.902 61.025 93.286 149.601 91.657l24.288-149.941z" fill="#ad6d68"/><path d="m256 126.209c22.296.079 41.319 5.971 57.715 16.168 26.111 16.239 45.556 43.395 60.924 75.403 1.964 4.09 5.685 12.466 5.685 12.466 8.545 1.568 27.209 6.208 45.028 21.406 16.666 14.214 24.184 30.509 27.294 38.588-8.066-.797-17.877-1.096-28.941 0-8.019.794-15.187 2.154-21.36 3.708 5.919 5.011 12.877 11.771 19.713 20.528 6.949 8.902 11.852 17.425 15.294 24.471-4.254-2.392-12.123-5.971-22.235-5.765-3.464.071-6.931.711-9.514 1.349-.001-.012-.002-.025-.002-.037-5.174 60.902-61.025 93.286-149.601 91.657z" fill="#99584d"/><path d="m129.029 266.261c-3.302 9.008-7.203 22.988-7.059 40.235.109 13.004.357 42.642 21.412 64 28.499 28.909 72.648 19.853 76.235 19.059v-53.647c-9.573.007-24.894-1.366-41.176-9.412-35.465-17.524-47.098-52.673-49.412-60.235z" fill="#fff"/><path d="m382.971 266.261c3.302 9.008 7.203 22.988 7.059 40.235-.109 13.004-.357 42.642-21.412 64-28.499 28.909-72.648 19.853-76.235 19.059v-53.647c9.573.007 24.894-1.366 41.176-9.412 35.465-17.524 47.098-52.673 49.412-60.235z" fill="#e9edf5"/><path d="m256 404.388h-41.192c-5.018-1.169-11.002-3.507-15.67-8.498-15.392-16.459-6.712-51.347 9.862-71.65 15.855-19.422 38.132-24.516 47-26.013l14.412 62.147z" fill="#c48174"/><path d="m256 404.388h41.192c5.018-1.169 11.002-3.507 15.67-8.498 15.392-16.459 6.712-51.347-9.862-71.65-15.855-19.422-38.132-24.516-47-26.013z" fill="#ad6d68"/><ellipse cx="228.17" cy="360.374" fill="#ad6d68" rx="8.553" ry="17.105"/><ellipse cx="283.83" cy="360.374" fill="#99584d" rx="8.553" ry="17.105"/><circle cx="198.513" cy="266.261" fill="#555a65" r="15"/><circle cx="313.487" cy="266.261" fill="#333940" r="15"/></g></svg>