<svg id="Capa_1" enable-background="new 0 0 512 512" height="512" viewBox="0 0 512 512" width="512" xmlns="http://www.w3.org/2000/svg"><g><circle cx="256" cy="256" fill="#36d987" r="256"/><path d="m271.286 229.081-97.965-97.965-42.763 42.763 50.211 50.211-108.19 108.19 34.557 34.557-1.547 1.547 143.521 143.522c2.29.06 4.586.094 6.89.094 141.385 0 256-114.615 256-256 0-25.094-3.627-49.337-10.357-72.253l-92.511-92.511z" fill="#3cc483"/><path d="m155.802 115.97c-22.223-16.626-42.109-22.455-52.932-24.734-3.438 10.513-8.333 30.649-5.046 58.208 4.296 36.02 20.069 63.747 27.257 75.193l82.211-47.464c-6.318-11.949-22.444-39.473-51.49-61.203z" fill="#333940"/><path d="m356.198 115.97c22.223-16.626 42.109-22.455 52.932-24.734 3.438 10.513 8.333 30.649 5.046 58.208-4.296 36.02-20.069 63.747-27.257 75.193l-82.211-47.464c6.318-11.949 22.444-39.473 51.49-61.203z" fill="#101214"/><path d="m256 161.681h-.344c-16.197.225-68.364 3-115.804 41.908-58.832 48.251-66.125 115.769-67.27 128.696l57.873-8.927 125.545 71.764 21.144-131.307z" fill="#555a65"/><path d="m256 161.681h.344c16.197.225 68.364 3 115.804 41.908 58.832 48.252 66.125 115.77 67.271 128.697l-57.873-8.927-125.546 71.763z" fill="#333940"/><path d="m256 396.061c-18.829 0-34.094 10.903-34.094 24.353s15.264 24.353 34.094 24.353l12.434-24.353z" fill="#555a65"/><path d="m256 396.061c18.829 0 34.094 10.903 34.094 24.353s-15.264 24.353-34.094 24.353z" fill="#333940"/><path d="m208.493 343.209c19.686-31.453 22.519-64.304 7.365-83.324-9.919-12.45-24.672-15.369-27.644-15.957-36.241-7.169-81.233 29.351-115.632 88.357 5.568.392 12.837 1.444 20.972 4.126 7.413 2.443 13.411 5.536 17.906 8.275-1.572 1.78-4.088 5.104-5.529 9.946-1.826 6.138-.922 11.347-.344 13.752l150.413 52.029 12.434-21.023-12.434-19.166z" fill="#fff"/><path d="m303.507 343.209c-19.686-31.453-22.519-64.304-7.365-83.324 9.919-12.45 24.672-15.369 27.644-15.957 36.241-7.169 81.233 29.351 115.632 88.357-5.568.392-12.837 1.444-20.972 4.126-7.413 2.443-13.411 5.536-17.906 8.275 1.572 1.78 4.088 5.104 5.529 9.946 1.826 6.138.922 11.347.344 13.752l-150.413 52.029v-40.189z" fill="#e9edf5"/><path d="m256 312.001c-6.575 1.236-24.086 5.437-39.136 20.857-15.428 15.806-18.812 33.711-20.17 41.485-1.75 10.022-3.571 20.454 1.834 31.859 1.385 2.923 7.458 14.798 21.545 20.284 17.956 6.993 33.93-2.239 35.927-3.438l17.047-47.725z" fill="#333940"/><path d="m256 312.001c6.575 1.236 24.086 5.437 39.136 20.857 15.428 15.806 18.812 33.711 20.17 41.485 1.75 10.022 3.571 20.454-1.834 31.859-1.385 2.923-7.458 14.798-21.545 20.284-17.956 6.993-33.93-2.239-35.927-3.438z" fill="#101214"/><path d="m226.777 372.045 29.223 34.093 12.434-21.188-12.434-12.905z" fill="#555a65"/><path d="m285.223 372.045-29.223 34.093v-34.093z" fill="#333940"/><path d="m174.468 304.911c-14.964-4.414-23.119-20.883-17.224-35.395l51.437 18.722c-4.636 14.188-20.175 21.814-34.213 16.673z" fill="#555a65"/><path d="m337.532 304.911c14.964-4.414 23.119-20.883 17.224-35.395l-51.437 18.722c4.636 14.188 20.175 21.814 34.213 16.673z" fill="#333940"/></g></svg>