<svg id="Capa_1" enable-background="new 0 0 512 512" height="512" viewBox="0 0 512 512" width="512" xmlns="http://www.w3.org/2000/svg"><g><circle cx="256" cy="256" fill="#ad6d68" r="256"/><path d="m338.408 105.216-47.265-47.265-67.351 67.351 47.265 47.265-78.775 78.775 110.961 110.961-84.17 84.17 64.092 64.092c128.613-13.567 228.835-122.357 228.835-254.565 0-12.424-.904-24.636-2.614-36.588l-142.587-142.587z" fill="#99584d"/><path d="m187.996 88.328c-18.789-9.492-34.409-11.226-42.794-11.503-1.183 8.305-2.188 23.99 3.897 44.141 7.953 26.338 23.386 44.971 30.262 52.574l55.154-46.28c-6.291-8.093-21.962-26.527-46.519-38.932z" fill="#333940"/><path d="m324.004 88.328c18.789-9.492 34.409-11.226 42.794-11.503 1.183 8.305 2.188 23.99-3.897 44.141-7.953 26.338-23.386 44.971-30.262 52.574l-55.154-46.28c6.291-8.093 21.962-26.527 46.519-38.932z" fill="#101214"/><path d="m256 86.886-9.069 5.169-12.892-1.227c-6.855 2.091-14.392 5.287-21.514 10.201-3.102 2.14-5.886 4.445-8.29 6.645l-21.593 37.774c-.921 2.934-2.065 6.056-3.803 9.804-1.984 4.274-4.693 9.227-8.572 15.137-7.916 12.062-16.501 21.774-13.679 32.794 1.61 6.285 3.726 6.322 7.002 17.184 2.69 8.918 2.79 15.797 3.016 20.913.335 7.609 1.445 20.845 4.45 35.667l5.92 9.707-.031 12.67c2.113 6.32 5.766 15.58 12.04 26.01.141.208.284.424.429.641l8.413 5.8.493 15.751c2.502 14.122-2.454 17.225-2.528 33.469l60.208 76.182 21.484-187.975z" fill="#fff"/><path d="m256 86.886 9.069 5.169 12.892-1.227c6.855 2.091 14.392 5.287 21.514 10.201 3.102 2.14 5.886 4.445 8.29 6.645l21.593 37.774c.921 2.934 2.065 6.056 3.803 9.804 1.984 4.274 4.693 9.227 8.572 15.137 7.916 12.062 16.501 21.774 13.679 32.794-1.61 6.285-3.726 6.322-7.002 17.184-2.69 8.918-2.79 15.797-3.016 20.913-.335 7.609-1.445 20.845-4.45 35.667l-5.92 9.707.031 12.67c-2.113 6.32-5.766 15.58-12.04 26.01-.141.208-.284.424-.429.641l-8.413 5.8-.493 15.751c-2.502 14.122 2.454 17.225 2.528 33.469l-60.208 76.182z" fill="#e9edf5"/><path d="m256 365.568c-1.034.013-2.111-.031-3.279-.194-9.697-1.354-11.402-7.386-22.558-7.779-2.126-.075-11.291-.397-18.409 5.445-4.308 3.535-3.892 6.068-8.038 11.149-2.686 3.293-5.408 5.344-7.924 6.806-.041.406-.081.813-.114 1.232-1.217 15.424 4.244 27.415 12.187 44.857 5.406 11.872 8.248 17.902 15.039 22.558 6.602 4.526 13.541 5.351 27.42 7.001 2.018.24 3.902.41 5.678.534l11.759-55.503z" fill="#333940"/><path d="m215.489 401.42 3.759 6.511c2.674 4.631 8.595 6.218 13.226 3.544 4.631-2.674 6.218-8.595 3.544-13.226l-3.759-6.511c-2.674-4.631-8.595-6.218-13.226-3.544-4.631 2.673-6.218 8.595-3.544 13.226z" fill="#555a65"/><path d="m256 365.568c1.034.013 2.111-.031 3.28-.194 9.697-1.354 11.402-7.386 22.558-7.779 2.126-.075 11.291-.397 18.409 5.445 4.308 3.535 3.892 6.068 8.038 11.149 2.686 3.293 5.408 5.344 7.924 6.806.041.406.081.813.114 1.232 1.217 15.424-4.244 27.415-12.187 44.857-5.406 11.872-8.248 17.902-15.039 22.558-6.602 4.526-13.541 5.351-27.42 7.001-2.018.24-3.902.41-5.678.534v-91.609z" fill="#101214"/><path d="m296.511 401.42-3.759 6.511c-2.674 4.631-8.595 6.218-13.226 3.544-4.631-2.674-6.218-8.595-3.544-13.226l3.759-6.511c2.674-4.631 8.595-6.218 13.226-3.544 4.631 2.673 6.218 8.595 3.544 13.226z" fill="#333940"/><path d="m194.64 118.013c-3.581 4.743-5.836 8.805-6.545 10.329-2.648 5.686-3.42 10.663-5.452 17.107l51.022 33.207-29.43-70.981c-5.619 5.144-9.135 9.728-9.595 10.338z" fill="#555a65"/><path d="m171.056 276.947c1.468 7.242 3.387 14.857 5.891 22.377l35.057-25.34z" fill="#555a65"/><path d="m198.319 347.526 24.879-36.692-33.785 15.141c3.224 4.853 7.166 12.158 8.906 21.551z" fill="#555a65"/><g fill="#333940"><path d="m317.36 118.013c3.581 4.743 5.836 8.805 6.545 10.329 2.648 5.686 3.42 10.663 5.452 17.107l-51.022 33.207 29.43-70.981c5.619 5.144 9.135 9.728 9.595 10.338z"/><path d="m340.944 276.947c-1.468 7.242-3.387 14.857-5.891 22.377l-35.057-25.34z"/><path d="m313.681 347.526-24.879-36.692 33.785 15.141c-3.224 4.853-7.166 12.158-8.906 21.551z"/></g><circle cx="194.245" cy="227.759" fill="#555a65" r="15"/><circle cx="317.755" cy="227.759" fill="#333940" r="15"/><path d="m214.561 72.079c-.789 25.664 13.024 51.501 41.439 71.086l18.674-48.379-18.674-48.379c-20.456 0-40.912 8.557-41.439 25.672z" fill="#333940"/><path d="m297.439 72.079c-.527-17.115-20.983-25.672-41.439-25.672v96.758c28.415-19.585 42.228-45.423 41.439-71.086z" fill="#101214"/></g></svg>