<svg xmlns="http://www.w3.org/2000/svg" version="1.1" xmlns:xlink="http://www.w3.org/1999/xlink" xmlns:svgjs="http://svgjs.com/svgjs" width="512" height="512" x="0" y="0" viewBox="0 0 24 24" style="enable-background:new 0 0 512 512" xml:space="preserve"><g><g fill="#000" fill-rule="evenodd" clip-rule="evenodd"><path d="M1.25 9A.75.75 0 0 1 2 8.25h6.5a.75.75 0 0 1 .75.75v12a.75.75 0 0 1-.75.75H2a.75.75 0 0 1-.75-.75zm1.5.75v10.5h5V9.75z" fill="#e9ecef" data-original="#000000"></path><path d="M7.75 3a.75.75 0 0 1 .75-.75H15a.75.75 0 0 1 .75.75v18a.75.75 0 0 1-.75.75H8.5a.75.75 0 0 1-.75-.75zm1.5.75v16.5h5V3.75z" fill="#e9ecef" data-original="#000000"></path><path d="M14.25 13a.75.75 0 0 1 .75-.75h6.5a.75.75 0 0 1 .75.75v8a.75.75 0 0 1-.75.75H15a.75.75 0 0 1-.75-.75zm1.5.75v6.5h5v-6.5z" fill="#e9ecef" data-original="#000000"></path></g></g></svg>